<svg xmlns="http://www.w3.org/2000/svg" xmlns:xlink="http://www.w3.org/1999/xlink" width="40" zoomAndPan="magnify" viewBox="0 0 30 30.000001" height="40" preserveAspectRatio="xMidYMid meet" version="1.0"><defs><clipPath id="d3f9c2dd40"><path d="M 4 17 L 16 17 L 16 29.03125 L 4 29.03125 Z M 4 17 " clip-rule="nonzero"/></clipPath><clipPath id="e50b657b59"><path d="M 3.714844 0.0234375 L 26.210938 0.0234375 L 26.210938 22.632812 L 3.714844 22.632812 Z M 3.714844 0.0234375 " clip-rule="nonzero"/></clipPath></defs><g clip-path="url(#d3f9c2dd40)"><path fill="#2e9129" d="M 15.089844 21.117188 L 11.097656 29.007812 L 9.136719 25.144531 L 4.867188 25.835938 L 8.859375 17.945312 L 15.089844 21.117188 " fill-opacity="1" fill-rule="nonzero"/></g><path fill="#2e9129" d="M 21.28125 17.945312 L 25.058594 25.941406 L 20.8125 25.136719 L 18.742188 28.945312 L 14.964844 20.945312 L 21.28125 17.945312 " fill-opacity="1" fill-rule="nonzero"/><g clip-path="url(#e50b657b59)"><path fill="#3aaa35" d="M 15.425781 0.21875 L 15.945312 0.75 C 16.15625 0.960938 16.480469 1.003906 16.738281 0.855469 L 17.378906 0.476562 C 17.691406 0.292969 18.09375 0.398438 18.269531 0.714844 L 18.636719 1.363281 C 18.78125 1.625 19.085938 1.75 19.375 1.671875 L 20.089844 1.472656 C 20.4375 1.375 20.800781 1.582031 20.890625 1.9375 L 21.078125 2.65625 C 21.152344 2.945312 21.414062 3.148438 21.710938 3.144531 L 22.453125 3.136719 C 22.816406 3.132812 23.109375 3.429688 23.105469 3.792969 L 23.101562 4.539062 C 23.097656 4.835938 23.296875 5.097656 23.585938 5.175781 L 24.304688 5.359375 C 24.65625 5.453125 24.867188 5.8125 24.769531 6.164062 L 24.570312 6.882812 C 24.488281 7.167969 24.617188 7.476562 24.875 7.621094 L 25.523438 7.988281 C 25.835938 8.167969 25.945312 8.570312 25.761719 8.886719 L 25.382812 9.527344 C 25.234375 9.785156 25.277344 10.113281 25.488281 10.320312 L 26.019531 10.84375 C 26.277344 11.097656 26.277344 11.515625 26.019531 11.769531 L 25.488281 12.292969 C 25.277344 12.5 25.234375 12.828125 25.382812 13.085938 L 25.761719 13.730469 C 25.945312 14.042969 25.835938 14.445312 25.523438 14.625 L 24.875 14.992188 C 24.617188 15.136719 24.488281 15.445312 24.570312 15.730469 L 24.769531 16.449219 C 24.867188 16.800781 24.65625 17.160156 24.304688 17.253906 L 23.585938 17.4375 C 23.296875 17.515625 23.097656 17.777344 23.101562 18.074219 L 23.105469 18.820312 C 23.109375 19.183594 22.816406 19.480469 22.453125 19.476562 L 21.710938 19.46875 C 21.414062 19.464844 21.152344 19.667969 21.078125 19.957031 L 20.890625 20.679688 C 20.800781 21.03125 20.4375 21.238281 20.089844 21.140625 L 19.375 20.941406 C 19.085938 20.863281 18.78125 20.988281 18.636719 21.25 L 18.269531 21.898438 C 18.09375 22.214844 17.691406 22.320312 17.378906 22.136719 L 16.738281 21.757812 C 16.480469 21.609375 16.15625 21.652344 15.945312 21.863281 L 15.425781 22.394531 C 15.171875 22.65625 14.753906 22.65625 14.5 22.394531 L 13.980469 21.863281 C 13.769531 21.652344 13.445312 21.609375 13.1875 21.757812 L 12.546875 22.136719 C 12.234375 22.320312 11.832031 22.214844 11.65625 21.898438 L 11.289062 21.25 C 11.144531 20.988281 10.839844 20.863281 10.550781 20.941406 L 9.835938 21.140625 C 9.488281 21.238281 9.125 21.03125 9.035156 20.679688 L 8.847656 19.957031 C 8.773438 19.667969 8.511719 19.464844 8.214844 19.46875 L 7.472656 19.476562 C 7.109375 19.480469 6.816406 19.183594 6.820312 18.820312 L 6.824219 18.074219 C 6.828125 17.777344 6.628906 17.515625 6.339844 17.4375 L 5.621094 17.253906 C 5.269531 17.160156 5.0625 16.800781 5.15625 16.449219 L 5.355469 15.730469 C 5.4375 15.445312 5.308594 15.136719 5.050781 14.992188 L 4.402344 14.625 C 4.089844 14.445312 3.980469 14.042969 4.164062 13.730469 L 4.542969 13.085938 C 4.691406 12.828125 4.648438 12.5 4.4375 12.292969 L 3.90625 11.769531 C 3.648438 11.515625 3.648438 11.097656 3.90625 10.84375 L 4.4375 10.320312 C 4.648438 10.113281 4.691406 9.785156 4.542969 9.527344 L 4.164062 8.886719 C 3.980469 8.570312 4.089844 8.167969 4.402344 7.988281 L 5.050781 7.621094 C 5.308594 7.476562 5.4375 7.167969 5.355469 6.882812 L 5.15625 6.164062 C 5.0625 5.8125 5.269531 5.453125 5.621094 5.359375 L 6.339844 5.175781 C 6.628906 5.097656 6.828125 4.835938 6.824219 4.539062 L 6.820312 3.792969 C 6.816406 3.429688 7.109375 3.132812 7.472656 3.136719 L 8.214844 3.144531 C 8.511719 3.148438 8.773438 2.945312 8.847656 2.65625 L 9.035156 1.9375 C 9.125 1.582031 9.488281 1.375 9.835938 1.472656 L 10.550781 1.671875 C 10.839844 1.75 11.144531 1.625 11.289062 1.363281 L 11.65625 0.714844 C 11.832031 0.398438 12.234375 0.292969 12.546875 0.476562 L 13.1875 0.855469 C 13.445312 1.003906 13.769531 0.960938 13.980469 0.75 L 14.5 0.21875 C 14.753906 -0.0429688 15.171875 -0.0429688 15.425781 0.21875 " fill-opacity="1" fill-rule="nonzero"/></g><path fill="#ffffff" d="M 14.964844 2.988281 C 10.390625 2.988281 6.667969 6.71875 6.667969 11.308594 C 6.667969 15.894531 10.390625 19.625 14.964844 19.625 C 19.535156 19.625 23.257812 15.894531 23.257812 11.308594 C 23.257812 6.71875 19.535156 2.988281 14.964844 2.988281 Z M 14.964844 19.867188 C 13.8125 19.867188 12.691406 19.640625 11.640625 19.195312 C 10.625 18.765625 9.710938 18.148438 8.925781 17.359375 C 8.144531 16.574219 7.527344 15.660156 7.097656 14.640625 C 6.652344 13.582031 6.425781 12.460938 6.425781 11.308594 C 6.425781 10.152344 6.652344 9.03125 7.097656 7.972656 C 7.527344 6.953125 8.144531 6.039062 8.925781 5.253906 C 9.710938 4.464844 10.625 3.847656 11.640625 3.417969 C 12.691406 2.972656 13.8125 2.746094 14.964844 2.746094 C 16.117188 2.746094 17.234375 2.972656 18.285156 3.417969 C 19.300781 3.847656 20.214844 4.464844 21 5.253906 C 21.78125 6.039062 22.398438 6.953125 22.828125 7.972656 C 23.273438 9.03125 23.5 10.152344 23.5 11.308594 C 23.5 12.460938 23.273438 13.582031 22.828125 14.640625 C 22.398438 15.660156 21.78125 16.574219 21 17.359375 C 20.214844 18.148438 19.300781 18.765625 18.285156 19.195312 C 17.234375 19.640625 16.117188 19.867188 14.964844 19.867188 " fill-opacity="1" fill-rule="nonzero"/><path fill="#ffffff" d="M 13.175781 16.382812 L 9.128906 12.386719 L 10.390625 11.101562 L 13.101562 13.777344 L 19.351562 6.847656 L 20.6875 8.058594 L 13.175781 16.382812 " fill-opacity="1" fill-rule="nonzero"/></svg>