<svg xmlns="http://www.w3.org/2000/svg" xmlns:xlink="http://www.w3.org/1999/xlink" width="40" zoomAndPan="magnify" viewBox="0 0 30 30.000001" height="40" preserveAspectRatio="xMidYMid meet" version="1.0"><defs><clipPath id="00be9ad7c2"><path d="M 0.84375 2.902344 L 29.148438 2.902344 L 29.148438 24.675781 L 0.84375 24.675781 Z M 0.84375 2.902344 " clip-rule="nonzero"/></clipPath></defs><path fill="#000000" d="M 21.5 14.476562 C 19.839844 14.476562 18.484375 13.101562 18.484375 11.421875 C 18.484375 9.738281 19.839844 8.363281 21.5 8.363281 C 23.160156 8.363281 24.515625 9.738281 24.515625 11.421875 C 24.515625 13.101562 23.160156 14.476562 21.5 14.476562 Z M 21.5 9.050781 C 20.210938 9.050781 19.164062 10.117188 19.164062 11.421875 C 19.164062 12.726562 20.210938 13.789062 21.5 13.789062 C 22.789062 13.789062 23.835938 12.726562 23.835938 11.421875 C 23.835938 10.117188 22.789062 9.050781 21.5 9.050781 Z M 21.5 9.050781 " fill-opacity="1" fill-rule="nonzero"/><path fill="#000000" d="M 27.023438 18.839844 L 24.753906 14.71875 C 24.988281 14.648438 25.226562 14.546875 25.394531 14.304688 C 25.597656 13.996094 25.597656 13.617188 25.566406 13.273438 C 25.566406 13.070312 25.53125 12.898438 25.566406 12.761719 C 25.597656 12.65625 25.734375 12.484375 25.835938 12.347656 C 26.039062 12.074219 26.3125 11.796875 26.3125 11.386719 C 26.3125 10.972656 26.074219 10.699219 25.835938 10.425781 C 25.734375 10.289062 25.597656 10.148438 25.566406 10.011719 C 25.53125 9.875 25.53125 9.703125 25.566406 9.496094 C 25.597656 9.152344 25.597656 8.777344 25.394531 8.46875 C 25.160156 8.15625 24.820312 8.054688 24.480469 7.984375 C 24.3125 7.953125 24.109375 7.882812 24.007812 7.8125 C 23.90625 7.746094 23.804688 7.574219 23.703125 7.402344 C 23.53125 7.128906 23.328125 6.785156 22.957031 6.679688 C 22.617188 6.578125 22.277344 6.714844 21.972656 6.820312 C 21.804688 6.886719 21.601562 6.957031 21.464844 6.957031 C 21.332031 6.957031 21.160156 6.886719 20.957031 6.820312 C 20.652344 6.679688 20.3125 6.542969 19.976562 6.679688 C 19.601562 6.785156 19.398438 7.128906 19.230469 7.402344 C 19.128906 7.574219 19.027344 7.710938 18.925781 7.8125 C 18.824219 7.882812 18.621094 7.953125 18.449219 7.984375 C 18.113281 8.054688 17.773438 8.15625 17.535156 8.46875 C 17.332031 8.777344 17.332031 9.152344 17.367188 9.496094 C 17.367188 9.703125 17.402344 9.875 17.367188 10.011719 C 17.332031 10.117188 17.199219 10.289062 17.097656 10.425781 C 16.890625 10.699219 16.621094 10.972656 16.621094 11.386719 C 16.621094 11.765625 16.859375 12.074219 17.097656 12.347656 C 17.199219 12.484375 17.332031 12.621094 17.367188 12.761719 C 17.402344 12.898438 17.402344 13.070312 17.367188 13.273438 C 17.332031 13.617188 17.332031 13.996094 17.535156 14.304688 C 17.738281 14.582031 18.042969 14.683594 18.347656 14.753906 L 16.113281 18.839844 C 16.046875 18.941406 16.046875 19.078125 16.113281 19.183594 C 16.179688 19.285156 16.28125 19.355469 16.417969 19.355469 L 17.875 19.25 L 18.550781 20.554688 C 18.621094 20.660156 18.722656 20.726562 18.859375 20.726562 C 18.992188 20.726562 19.09375 20.660156 19.164062 20.554688 L 21.601562 16.195312 L 23.972656 20.523438 C 24.039062 20.625 24.144531 20.695312 24.277344 20.695312 C 24.414062 20.695312 24.515625 20.625 24.582031 20.523438 L 25.261719 19.214844 L 26.71875 19.320312 C 26.851562 19.320312 26.953125 19.25 27.023438 19.148438 C 27.089844 19.078125 27.089844 18.941406 27.023438 18.839844 Z M 18.078125 13.308594 C 18.078125 13.070312 18.113281 12.792969 18.042969 12.554688 C 17.976562 12.3125 17.808594 12.109375 17.636719 11.9375 C 17.503906 11.765625 17.332031 11.558594 17.332031 11.421875 C 17.332031 11.28125 17.503906 11.078125 17.636719 10.90625 C 17.808594 10.699219 17.976562 10.527344 18.042969 10.289062 C 18.113281 10.046875 18.113281 9.773438 18.078125 9.53125 C 18.078125 9.292969 18.042969 9.050781 18.113281 8.949219 C 18.179688 8.84375 18.417969 8.777344 18.621094 8.742188 C 18.859375 8.671875 19.128906 8.605469 19.332031 8.46875 C 19.535156 8.328125 19.671875 8.089844 19.804688 7.882812 C 19.941406 7.675781 20.042969 7.472656 20.179688 7.4375 C 20.210938 7.4375 20.210938 7.4375 20.246094 7.4375 C 20.382812 7.4375 20.550781 7.503906 20.722656 7.574219 C 20.957031 7.675781 21.195312 7.78125 21.464844 7.78125 C 21.738281 7.78125 21.972656 7.675781 22.210938 7.574219 C 22.414062 7.503906 22.617188 7.402344 22.753906 7.4375 C 22.890625 7.472656 22.992188 7.675781 23.125 7.882812 C 23.261719 8.089844 23.398438 8.328125 23.601562 8.46875 C 23.804688 8.605469 24.074219 8.671875 24.3125 8.742188 C 24.550781 8.808594 24.753906 8.84375 24.820312 8.949219 C 24.886719 9.050781 24.886719 9.292969 24.855469 9.53125 C 24.855469 9.773438 24.820312 10.046875 24.886719 10.289062 C 24.957031 10.527344 25.125 10.734375 25.292969 10.90625 C 25.429688 11.078125 25.597656 11.28125 25.597656 11.421875 C 25.597656 11.558594 25.429688 11.765625 25.292969 11.9375 C 25.125 12.140625 24.957031 12.3125 24.886719 12.554688 C 24.820312 12.792969 24.820312 13.070312 24.855469 13.308594 C 24.855469 13.550781 24.886719 13.789062 24.820312 13.894531 C 24.753906 13.996094 24.515625 14.066406 24.3125 14.097656 C 24.074219 14.167969 23.804688 14.238281 23.601562 14.375 C 23.398438 14.511719 23.261719 14.753906 23.125 14.957031 C 22.992188 15.164062 22.890625 15.371094 22.753906 15.40625 C 22.652344 15.4375 22.414062 15.335938 22.210938 15.265625 C 22.042969 15.199219 21.839844 15.128906 21.667969 15.09375 C 21.601562 15.09375 21.535156 15.0625 21.464844 15.0625 C 21.195312 15.0625 20.957031 15.164062 20.722656 15.265625 C 20.515625 15.335938 20.3125 15.4375 20.179688 15.40625 C 20.042969 15.371094 19.941406 15.164062 19.804688 14.957031 C 19.671875 14.753906 19.535156 14.511719 19.332031 14.375 C 19.128906 14.238281 18.859375 14.167969 18.621094 14.097656 C 18.382812 14.03125 18.179688 13.996094 18.113281 13.894531 C 18.042969 13.789062 18.078125 13.550781 18.078125 13.308594 Z M 18.925781 19.664062 L 18.417969 18.734375 C 18.347656 18.632812 18.214844 18.5625 18.113281 18.5625 L 17.0625 18.597656 L 19.027344 14.992188 C 19.09375 15.0625 19.195312 15.199219 19.265625 15.335938 C 19.433594 15.609375 19.636719 15.953125 20.007812 16.058594 C 20.109375 16.089844 20.179688 16.089844 20.28125 16.089844 C 20.515625 16.089844 20.789062 15.988281 20.992188 15.886719 Z M 25.089844 18.53125 C 24.957031 18.53125 24.820312 18.597656 24.785156 18.703125 L 24.277344 19.628906 L 22.3125 16.023438 C 22.515625 16.089844 22.753906 16.125 22.992188 16.058594 C 23.363281 15.953125 23.566406 15.609375 23.734375 15.335938 C 23.835938 15.164062 23.9375 15.027344 24.039062 14.921875 C 24.074219 14.890625 24.109375 14.890625 24.144531 14.890625 L 26.175781 18.597656 Z M 25.089844 18.53125 " fill-opacity="1" fill-rule="nonzero"/><g clip-path="url(#00be9ad7c2)"><path fill="#000000" d="M 27.597656 24.675781 L 2.390625 24.675781 C 1.578125 24.675781 0.933594 24.023438 0.933594 23.199219 L 0.933594 4.378906 C 0.933594 3.554688 1.578125 2.902344 2.390625 2.902344 L 27.597656 2.902344 C 28.410156 2.902344 29.054688 3.554688 29.054688 4.378906 L 29.054688 23.199219 C 29.054688 23.992188 28.378906 24.675781 27.597656 24.675781 Z M 2.390625 3.589844 C 1.953125 3.589844 1.613281 3.933594 1.613281 4.378906 L 1.613281 23.199219 C 1.613281 23.648438 1.953125 23.992188 2.390625 23.992188 L 27.597656 23.992188 C 28.039062 23.992188 28.378906 23.648438 28.378906 23.199219 L 28.378906 4.378906 C 28.378906 3.933594 28.039062 3.589844 27.597656 3.589844 Z M 2.390625 3.589844 " fill-opacity="1" fill-rule="nonzero"/></g><path fill="#000000" d="M 26.414062 23.234375 L 3.679688 23.234375 C 2.96875 23.234375 2.390625 22.652344 2.390625 21.929688 L 2.390625 5.652344 C 2.390625 4.929688 2.96875 4.34375 3.679688 4.34375 L 26.414062 4.34375 C 27.125 4.34375 27.699219 4.929688 27.699219 5.652344 L 27.699219 21.929688 C 27.699219 22.652344 27.125 23.234375 26.414062 23.234375 Z M 3.679688 4.6875 C 3.171875 4.6875 2.730469 5.136719 2.730469 5.652344 L 2.730469 21.929688 C 2.730469 22.445312 3.171875 22.890625 3.679688 22.890625 L 26.414062 22.890625 C 26.921875 22.890625 27.359375 22.445312 27.359375 21.929688 L 27.359375 5.652344 C 27.359375 5.136719 26.921875 4.6875 26.414062 4.6875 Z M 3.679688 4.6875 " fill-opacity="1" fill-rule="nonzero"/><path fill="#000000" d="M 15.84375 8.019531 L 4.867188 8.019531 C 4.664062 8.019531 4.527344 7.882812 4.527344 7.675781 C 4.527344 7.472656 4.664062 7.332031 4.867188 7.332031 L 15.808594 7.332031 C 16.011719 7.332031 16.148438 7.472656 16.148438 7.675781 C 16.148438 7.882812 16.011719 8.019531 15.84375 8.019531 Z M 15.84375 8.019531 " fill-opacity="1" fill-rule="nonzero"/><path fill="#000000" d="M 14.589844 16.605469 L 4.867188 16.605469 C 4.664062 16.605469 4.527344 16.46875 4.527344 16.261719 C 4.527344 16.058594 4.664062 15.917969 4.867188 15.917969 L 14.589844 15.917969 C 14.792969 15.917969 14.925781 16.058594 14.925781 16.261719 C 14.925781 16.46875 14.792969 16.605469 14.589844 16.605469 Z M 14.589844 16.605469 " fill-opacity="1" fill-rule="nonzero"/><path fill="#000000" d="M 14.589844 12.65625 L 4.867188 12.65625 C 4.664062 12.65625 4.527344 12.519531 4.527344 12.3125 C 4.527344 12.109375 4.664062 11.96875 4.867188 11.96875 L 14.589844 11.96875 C 14.792969 11.96875 14.925781 12.109375 14.925781 12.3125 C 14.925781 12.519531 14.792969 12.65625 14.589844 12.65625 Z M 14.589844 12.65625 " fill-opacity="1" fill-rule="nonzero"/><path fill="#000000" d="M 10.015625 19.214844 L 4.867188 19.214844 C 4.664062 19.214844 4.527344 19.078125 4.527344 18.875 C 4.527344 18.667969 4.664062 18.53125 4.867188 18.53125 L 10.015625 18.53125 C 10.21875 18.53125 10.355469 18.667969 10.355469 18.875 C 10.355469 19.078125 10.21875 19.214844 10.015625 19.214844 Z M 10.015625 19.214844 " fill-opacity="1" fill-rule="nonzero"/></svg>