<svg xmlns="http://www.w3.org/2000/svg" xmlns:xlink="http://www.w3.org/1999/xlink" width="40" zoomAndPan="magnify" viewBox="0 0 30 30.000001" height="40" preserveAspectRatio="xMidYMid meet" version="1.0"><defs><clipPath id="32b6cdd8ea"><path d="M 0.484375 11 L 8 11 L 8 18 L 0.484375 18 Z M 0.484375 11 " clip-rule="nonzero"/></clipPath><clipPath id="08e91bc77c"><path d="M 11 22 L 19 22 L 19 29.03125 L 11 29.03125 Z M 11 22 " clip-rule="nonzero"/></clipPath><clipPath id="133658a85e"><path d="M 22 11 L 29.515625 11 L 29.515625 18 L 22 18 Z M 22 11 " clip-rule="nonzero"/></clipPath></defs><path fill="#000000" d="M 15 4.289062 C 14.210938 4.289062 13.566406 3.644531 13.566406 2.855469 C 13.566406 2.066406 14.210938 1.421875 15 1.421875 C 15.789062 1.421875 16.433594 2.066406 16.433594 2.855469 C 16.433594 3.644531 15.789062 4.289062 15 4.289062 Z M 15 2.082031 C 14.574219 2.082031 14.226562 2.429688 14.226562 2.855469 C 14.226562 3.28125 14.574219 3.628906 15 3.628906 C 15.425781 3.628906 15.773438 3.28125 15.773438 2.855469 C 15.773438 2.429688 15.425781 2.082031 15 2.082031 Z M 15 2.082031 " fill-opacity="1" fill-rule="nonzero"/><path fill="#000000" d="M 17.027344 5.984375 C 16.871094 5.984375 16.734375 5.871094 16.703125 5.710938 C 16.554688 4.886719 15.839844 4.289062 15 4.289062 C 14.160156 4.289062 13.445312 4.886719 13.296875 5.710938 C 13.261719 5.890625 13.089844 6.011719 12.914062 5.980469 C 12.734375 5.945312 12.613281 5.773438 12.644531 5.597656 C 12.851562 4.457031 13.839844 3.628906 15 3.628906 C 16.160156 3.628906 17.148438 4.457031 17.351562 5.597656 C 17.386719 5.777344 17.265625 5.949219 17.085938 5.980469 C 17.066406 5.984375 17.046875 5.984375 17.027344 5.984375 Z M 17.027344 5.984375 " fill-opacity="1" fill-rule="nonzero"/><path fill="#000000" d="M 15 6.757812 C 13.136719 6.757812 11.621094 5.242188 11.621094 3.378906 C 11.621094 1.515625 13.136719 0 15 0 C 16.863281 0 18.378906 1.515625 18.378906 3.378906 C 18.378906 5.242188 16.863281 6.757812 15 6.757812 Z M 15 0.660156 C 13.5 0.660156 12.28125 1.878906 12.28125 3.378906 C 12.28125 4.878906 13.5 6.097656 15 6.097656 C 16.5 6.097656 17.71875 4.878906 17.71875 3.378906 C 17.71875 1.878906 16.5 0.660156 15 0.660156 Z M 15 0.660156 " fill-opacity="1" fill-rule="nonzero"/><path fill="#000000" d="M 3.863281 15.425781 C 3.074219 15.425781 2.429688 14.78125 2.429688 13.992188 C 2.429688 13.203125 3.074219 12.558594 3.863281 12.558594 C 4.652344 12.558594 5.296875 13.203125 5.296875 13.992188 C 5.296875 14.78125 4.652344 15.425781 3.863281 15.425781 Z M 3.863281 13.21875 C 3.4375 13.21875 3.089844 13.566406 3.089844 13.992188 C 3.089844 14.417969 3.4375 14.765625 3.863281 14.765625 C 4.289062 14.765625 4.636719 14.417969 4.636719 13.992188 C 4.636719 13.566406 4.289062 13.21875 3.863281 13.21875 Z M 3.863281 13.21875 " fill-opacity="1" fill-rule="nonzero"/><path fill="#000000" d="M 5.890625 17.121094 C 5.734375 17.121094 5.59375 17.007812 5.566406 16.851562 C 5.417969 16.023438 4.703125 15.425781 3.863281 15.425781 C 3.023438 15.425781 2.304688 16.023438 2.15625 16.851562 C 2.125 17.03125 1.953125 17.148438 1.773438 17.117188 C 1.59375 17.085938 1.476562 16.914062 1.507812 16.734375 C 1.714844 15.59375 2.703125 14.765625 3.863281 14.765625 C 5.023438 14.765625 6.011719 15.59375 6.214844 16.734375 C 6.246094 16.914062 6.128906 17.085938 5.949219 17.117188 C 5.929688 17.121094 5.910156 17.121094 5.890625 17.121094 Z M 5.890625 17.121094 " fill-opacity="1" fill-rule="nonzero"/><g clip-path="url(#32b6cdd8ea)"><path fill="#000000" d="M 3.863281 17.894531 C 2 17.894531 0.484375 16.378906 0.484375 14.515625 C 0.484375 12.652344 2 11.136719 3.863281 11.136719 C 5.726562 11.136719 7.242188 12.652344 7.242188 14.515625 C 7.242188 16.378906 5.726562 17.894531 3.863281 17.894531 Z M 3.863281 11.796875 C 2.363281 11.796875 1.144531 13.015625 1.144531 14.515625 C 1.144531 16.015625 2.363281 17.234375 3.863281 17.234375 C 5.363281 17.234375 6.582031 16.015625 6.582031 14.515625 C 6.582031 13.015625 5.363281 11.796875 3.863281 11.796875 Z M 3.863281 11.796875 " fill-opacity="1" fill-rule="nonzero"/></g><path fill="#000000" d="M 15 26.5625 C 14.210938 26.5625 13.566406 25.921875 13.566406 25.128906 C 13.566406 24.339844 14.210938 23.699219 15 23.699219 C 15.789062 23.699219 16.433594 24.339844 16.433594 25.128906 C 16.433594 25.921875 15.789062 26.5625 15 26.5625 Z M 15 24.355469 C 14.574219 24.355469 14.226562 24.703125 14.226562 25.128906 C 14.226562 25.554688 14.574219 25.902344 15 25.902344 C 15.425781 25.902344 15.773438 25.554688 15.773438 25.128906 C 15.773438 24.703125 15.425781 24.355469 15 24.355469 Z M 15 24.355469 " fill-opacity="1" fill-rule="nonzero"/><path fill="#000000" d="M 17.027344 28.257812 C 16.871094 28.257812 16.734375 28.148438 16.703125 27.988281 C 16.554688 27.164062 15.839844 26.5625 15 26.5625 C 14.160156 26.5625 13.445312 27.164062 13.296875 27.988281 C 13.261719 28.167969 13.089844 28.285156 12.914062 28.253906 C 12.734375 28.222656 12.613281 28.050781 12.644531 27.871094 C 12.851562 26.730469 13.839844 25.902344 15 25.902344 C 16.160156 25.902344 17.148438 26.730469 17.351562 27.871094 C 17.386719 28.050781 17.265625 28.222656 17.085938 28.253906 C 17.066406 28.257812 17.046875 28.257812 17.027344 28.257812 Z M 17.027344 28.257812 " fill-opacity="1" fill-rule="nonzero"/><g clip-path="url(#08e91bc77c)"><path fill="#000000" d="M 15 29.03125 C 13.136719 29.03125 11.621094 27.515625 11.621094 25.652344 C 11.621094 23.789062 13.136719 22.273438 15 22.273438 C 16.863281 22.273438 18.378906 23.789062 18.378906 25.652344 C 18.378906 27.515625 16.863281 29.03125 15 29.03125 Z M 15 22.933594 C 13.5 22.933594 12.28125 24.152344 12.28125 25.652344 C 12.28125 27.152344 13.5 28.371094 15 28.371094 C 16.5 28.371094 17.71875 27.152344 17.71875 25.652344 C 17.71875 24.152344 16.5 22.933594 15 22.933594 Z M 15 22.933594 " fill-opacity="1" fill-rule="nonzero"/></g><path fill="#000000" d="M 26.136719 15.425781 C 25.347656 15.425781 24.707031 14.78125 24.707031 13.992188 C 24.707031 13.203125 25.347656 12.558594 26.136719 12.558594 C 26.925781 12.558594 27.570312 13.203125 27.570312 13.992188 C 27.570312 14.78125 26.925781 15.425781 26.136719 15.425781 Z M 26.136719 13.21875 C 25.710938 13.21875 25.363281 13.566406 25.363281 13.992188 C 25.363281 14.417969 25.710938 14.765625 26.136719 14.765625 C 26.5625 14.765625 26.910156 14.417969 26.910156 13.992188 C 26.910156 13.566406 26.5625 13.21875 26.136719 13.21875 Z M 26.136719 13.21875 " fill-opacity="1" fill-rule="nonzero"/><path fill="#000000" d="M 28.164062 17.121094 C 28.007812 17.121094 27.871094 17.007812 27.839844 16.851562 C 27.695312 16.023438 26.976562 15.425781 26.136719 15.425781 C 25.296875 15.425781 24.582031 16.023438 24.433594 16.851562 C 24.402344 17.03125 24.230469 17.148438 24.050781 17.117188 C 23.871094 17.085938 23.75 16.914062 23.785156 16.734375 C 23.988281 15.59375 24.976562 14.765625 26.136719 14.765625 C 27.296875 14.765625 28.285156 15.59375 28.488281 16.734375 C 28.523438 16.914062 28.402344 17.085938 28.222656 17.117188 C 28.203125 17.121094 28.183594 17.121094 28.164062 17.121094 Z M 28.164062 17.121094 " fill-opacity="1" fill-rule="nonzero"/><g clip-path="url(#133658a85e)"><path fill="#000000" d="M 26.136719 17.894531 C 24.273438 17.894531 22.757812 16.378906 22.757812 14.515625 C 22.757812 12.652344 24.273438 11.136719 26.136719 11.136719 C 28 11.136719 29.515625 12.652344 29.515625 14.515625 C 29.515625 16.378906 28 17.894531 26.136719 17.894531 Z M 26.136719 11.796875 C 24.636719 11.796875 23.417969 13.015625 23.417969 14.515625 C 23.417969 16.015625 24.636719 17.234375 26.136719 17.234375 C 27.636719 17.234375 28.855469 16.015625 28.855469 14.515625 C 28.855469 13.015625 27.636719 11.796875 26.136719 11.796875 Z M 26.136719 11.796875 " fill-opacity="1" fill-rule="nonzero"/></g><path fill="#000000" d="M 5.175781 10.171875 C 5.125 10.171875 5.074219 10.160156 5.023438 10.136719 C 4.863281 10.050781 4.796875 9.855469 4.878906 9.691406 C 6.058594 7.378906 8.007812 5.527344 10.375 4.46875 C 10.417969 4.449219 10.464844 4.4375 10.511719 4.4375 C 10.691406 4.4375 10.839844 4.585938 10.839844 4.769531 C 10.839844 4.910156 10.753906 5.027344 10.632812 5.074219 C 8.410156 6.074219 6.574219 7.816406 5.46875 9.992188 C 5.410156 10.105469 5.292969 10.171875 5.175781 10.171875 Z M 5.175781 10.171875 " fill-opacity="1" fill-rule="nonzero"/><path fill="#000000" d="M 24.824219 10.167969 C 24.691406 10.167969 24.574219 10.089844 24.523438 9.972656 C 23.410156 7.796875 21.570312 6.054688 19.339844 5.066406 C 19.21875 5.015625 19.136719 4.898438 19.136719 4.761719 C 19.136719 4.578125 19.28125 4.429688 19.464844 4.429688 C 19.511719 4.429688 19.558594 4.441406 19.601562 4.457031 C 21.976562 5.511719 23.9375 7.367188 25.117188 9.6875 C 25.144531 9.734375 25.15625 9.785156 25.15625 9.835938 C 25.152344 10.019531 25.007812 10.167969 24.824219 10.167969 Z M 24.824219 10.167969 " fill-opacity="1" fill-rule="nonzero"/><path fill="#000000" d="M 10.164062 25.074219 C 10.113281 25.074219 10.0625 25.0625 10.015625 25.039062 C 7.707031 23.910156 5.832031 22.007812 4.734375 19.6875 C 4.65625 19.523438 4.726562 19.324219 4.890625 19.246094 C 5.054688 19.167969 5.253906 19.242188 5.332031 19.40625 C 6.363281 21.589844 8.128906 23.378906 10.300781 24.445312 C 10.414062 24.496094 10.492188 24.609375 10.492188 24.742188 C 10.492188 24.925781 10.34375 25.074219 10.164062 25.074219 Z M 10.164062 25.074219 " fill-opacity="1" fill-rule="nonzero"/><path fill="#000000" d="M 20.207031 24.886719 C 20.089844 24.886719 19.972656 24.824219 19.914062 24.710938 C 19.828125 24.550781 19.890625 24.351562 20.050781 24.265625 C 22.191406 23.117188 23.894531 21.253906 24.84375 19.019531 C 24.914062 18.851562 25.109375 18.773438 25.277344 18.84375 C 25.445312 18.914062 25.523438 19.109375 25.453125 19.277344 C 24.445312 21.648438 22.636719 23.628906 20.363281 24.847656 C 20.3125 24.875 20.257812 24.886719 20.207031 24.886719 Z M 20.207031 24.886719 " fill-opacity="1" fill-rule="nonzero"/><path fill="#000000" d="M 24.824219 10.167969 C 24.792969 10.167969 24.761719 10.164062 24.730469 10.152344 L 23.277344 9.722656 C 23.101562 9.671875 23 9.488281 23.054688 9.316406 C 23.105469 9.140625 23.289062 9.039062 23.464844 9.089844 L 24.632812 9.4375 L 25.074219 8.398438 C 25.144531 8.230469 25.339844 8.152344 25.503906 8.222656 C 25.671875 8.292969 25.75 8.488281 25.679688 8.652344 L 25.128906 9.964844 C 25.074219 10.089844 24.953125 10.167969 24.824219 10.167969 Z M 24.824219 10.167969 " fill-opacity="1" fill-rule="nonzero"/><path fill="#000000" d="M 10 6.4375 C 9.964844 6.4375 9.921875 6.429688 9.882812 6.414062 C 9.714844 6.351562 9.628906 6.160156 9.695312 5.988281 L 10.089844 4.953125 L 9.097656 4.546875 C 8.925781 4.476562 8.847656 4.285156 8.917969 4.117188 C 8.984375 3.949219 9.175781 3.867188 9.347656 3.9375 L 10.636719 4.464844 C 10.804688 4.53125 10.882812 4.71875 10.820312 4.886719 L 10.3125 6.226562 C 10.261719 6.355469 10.136719 6.4375 10 6.4375 Z M 10 6.4375 " fill-opacity="1" fill-rule="nonzero"/><path fill="#000000" d="M 4.53125 21.199219 C 4.492188 21.199219 4.453125 21.191406 4.414062 21.175781 C 4.242188 21.113281 4.15625 20.921875 4.222656 20.753906 L 4.722656 19.429688 C 4.785156 19.261719 4.976562 19.175781 5.144531 19.234375 L 6.527344 19.738281 C 6.699219 19.800781 6.785156 19.992188 6.722656 20.164062 C 6.660156 20.332031 6.472656 20.421875 6.300781 20.359375 L 5.226562 19.96875 L 4.839844 20.988281 C 4.789062 21.117188 4.664062 21.199219 4.53125 21.199219 Z M 4.53125 21.199219 " fill-opacity="1" fill-rule="nonzero"/><path fill="#000000" d="M 21.527344 25.304688 C 21.492188 25.304688 21.460938 25.300781 21.425781 25.289062 L 20.105469 24.871094 C 19.945312 24.820312 19.851562 24.660156 19.882812 24.496094 L 20.148438 23.097656 C 20.179688 22.917969 20.355469 22.800781 20.535156 22.835938 C 20.710938 22.871094 20.828125 23.042969 20.796875 23.222656 L 20.585938 24.332031 L 21.625 24.660156 C 21.800781 24.714844 21.894531 24.898438 21.839844 25.074219 C 21.796875 25.214844 21.667969 25.304688 21.527344 25.304688 Z M 21.527344 25.304688 " fill-opacity="1" fill-rule="nonzero"/><path fill="#000000" d="M 11.242188 17.074219 C 11.195312 17.074219 11.144531 17.066406 11.101562 17.042969 C 10.984375 16.992188 10.910156 16.875 10.910156 16.746094 L 10.910156 15.550781 C 9.703125 15.390625 8.765625 14.351562 8.765625 13.097656 C 8.765625 11.734375 9.875 10.625 11.242188 10.625 L 14.941406 10.625 C 16.308594 10.625 17.417969 11.734375 17.417969 13.097656 C 17.417969 14.464844 16.304688 15.574219 14.941406 15.574219 L 13.160156 15.574219 L 11.453125 17 C 11.390625 17.050781 11.316406 17.074219 11.242188 17.074219 Z M 11.242188 11.28125 C 10.238281 11.28125 9.425781 12.097656 9.425781 13.097656 C 9.425781 14.097656 10.238281 14.914062 11.242188 14.914062 C 11.421875 14.914062 11.570312 15.0625 11.570312 15.242188 L 11.570312 16.039062 L 12.828125 14.988281 C 12.890625 14.941406 12.964844 14.914062 13.039062 14.914062 L 14.941406 14.914062 C 15.941406 14.914062 16.757812 14.097656 16.757812 13.097656 C 16.757812 12.097656 15.941406 11.28125 14.941406 11.28125 Z M 11.242188 11.28125 " fill-opacity="1" fill-rule="nonzero"/><path fill="#000000" d="M 18.902344 18.410156 C 18.824219 18.410156 18.75 18.382812 18.691406 18.332031 L 17.101562 17.007812 L 15.445312 17.007812 C 14.417969 17.007812 13.5 16.320312 13.210938 15.335938 C 13.15625 15.164062 13.257812 14.980469 13.433594 14.929688 C 13.605469 14.875 13.789062 14.976562 13.84375 15.152344 C 14.050781 15.855469 14.710938 16.347656 15.445312 16.347656 L 17.21875 16.347656 C 17.296875 16.347656 17.371094 16.375 17.429688 16.421875 L 18.570312 17.375 L 18.570312 16.675781 C 18.570312 16.496094 18.71875 16.347656 18.902344 16.347656 C 19.347656 16.347656 19.769531 16.171875 20.085938 15.859375 C 20.402344 15.542969 20.574219 15.121094 20.574219 14.675781 C 20.574219 13.753906 19.824219 13 18.902344 13 L 17.042969 13 C 16.863281 13 16.714844 12.855469 16.714844 12.671875 C 16.714844 12.488281 16.863281 12.34375 17.042969 12.34375 L 18.902344 12.34375 C 20.1875 12.34375 21.234375 13.386719 21.234375 14.675781 C 21.234375 15.296875 20.992188 15.882812 20.550781 16.324219 C 20.191406 16.6875 19.730469 16.914062 19.230469 16.984375 L 19.230469 18.078125 C 19.230469 18.207031 19.15625 18.324219 19.039062 18.378906 C 18.996094 18.398438 18.949219 18.410156 18.902344 18.410156 Z M 18.902344 18.410156 " fill-opacity="1" fill-rule="nonzero"/><path fill="#000000" d="M 11.578125 13.429688 C 11.488281 13.429688 11.40625 13.394531 11.34375 13.332031 C 11.328125 13.316406 11.3125 13.300781 11.300781 13.28125 C 11.289062 13.265625 11.28125 13.246094 11.273438 13.226562 C 11.261719 13.203125 11.257812 13.183594 11.253906 13.164062 C 11.25 13.140625 11.246094 13.121094 11.246094 13.097656 C 11.246094 13.011719 11.28125 12.925781 11.34375 12.867188 C 11.359375 12.851562 11.375 12.835938 11.394531 12.824219 C 11.410156 12.8125 11.429688 12.800781 11.449219 12.792969 C 11.46875 12.785156 11.492188 12.78125 11.511719 12.773438 C 11.554688 12.765625 11.597656 12.765625 11.640625 12.773438 C 11.660156 12.78125 11.683594 12.785156 11.703125 12.792969 C 11.722656 12.800781 11.742188 12.8125 11.757812 12.824219 C 11.777344 12.835938 11.792969 12.851562 11.808594 12.867188 C 11.871094 12.925781 11.90625 13.011719 11.90625 13.097656 C 11.90625 13.121094 11.902344 13.140625 11.898438 13.164062 C 11.894531 13.183594 11.890625 13.203125 11.882812 13.226562 C 11.871094 13.246094 11.863281 13.265625 11.851562 13.28125 C 11.839844 13.300781 11.824219 13.316406 11.808594 13.332031 C 11.792969 13.347656 11.777344 13.359375 11.757812 13.371094 C 11.742188 13.382812 11.722656 13.394531 11.703125 13.402344 C 11.683594 13.410156 11.660156 13.417969 11.640625 13.421875 C 11.621094 13.425781 11.597656 13.429688 11.578125 13.429688 Z M 11.578125 13.429688 " fill-opacity="1" fill-rule="nonzero"/><path fill="#000000" d="M 13.089844 13.429688 C 13.070312 13.429688 13.046875 13.425781 13.027344 13.421875 C 13.007812 13.417969 12.984375 13.410156 12.964844 13.402344 C 12.945312 13.394531 12.925781 13.382812 12.910156 13.371094 C 12.890625 13.359375 12.875 13.347656 12.859375 13.332031 C 12.84375 13.316406 12.828125 13.300781 12.816406 13.28125 C 12.804688 13.265625 12.792969 13.246094 12.785156 13.226562 C 12.777344 13.203125 12.773438 13.183594 12.769531 13.164062 C 12.765625 13.140625 12.761719 13.121094 12.761719 13.097656 C 12.761719 13.011719 12.796875 12.925781 12.859375 12.867188 C 12.875 12.851562 12.890625 12.835938 12.910156 12.824219 C 12.925781 12.8125 12.945312 12.800781 12.964844 12.792969 C 12.984375 12.785156 13.007812 12.78125 13.027344 12.773438 C 13.132812 12.753906 13.25 12.789062 13.324219 12.867188 C 13.386719 12.925781 13.421875 13.011719 13.421875 13.097656 C 13.421875 13.121094 13.417969 13.140625 13.414062 13.164062 C 13.410156 13.183594 13.40625 13.203125 13.394531 13.226562 C 13.386719 13.246094 13.378906 13.265625 13.367188 13.28125 C 13.355469 13.300781 13.339844 13.316406 13.324219 13.332031 C 13.261719 13.394531 13.179688 13.429688 13.089844 13.429688 Z M 13.089844 13.429688 " fill-opacity="1" fill-rule="nonzero"/><path fill="#000000" d="M 14.605469 13.429688 C 14.585938 13.429688 14.5625 13.425781 14.542969 13.421875 C 14.519531 13.417969 14.5 13.410156 14.480469 13.402344 C 14.460938 13.394531 14.441406 13.382812 14.421875 13.371094 C 14.40625 13.359375 14.386719 13.347656 14.375 13.332031 C 14.3125 13.269531 14.277344 13.183594 14.277344 13.097656 C 14.277344 13.078125 14.277344 13.054688 14.285156 13.035156 C 14.289062 13.011719 14.292969 12.992188 14.300781 12.972656 C 14.308594 12.953125 14.320312 12.933594 14.332031 12.914062 C 14.34375 12.898438 14.359375 12.878906 14.375 12.867188 C 14.386719 12.851562 14.40625 12.835938 14.421875 12.824219 C 14.441406 12.8125 14.460938 12.800781 14.480469 12.792969 C 14.5 12.785156 14.519531 12.78125 14.542969 12.773438 C 14.585938 12.765625 14.628906 12.765625 14.671875 12.773438 C 14.691406 12.78125 14.714844 12.785156 14.734375 12.792969 C 14.753906 12.800781 14.773438 12.8125 14.789062 12.824219 C 14.808594 12.835938 14.824219 12.851562 14.839844 12.867188 C 14.855469 12.878906 14.867188 12.898438 14.878906 12.914062 C 14.894531 12.933594 14.902344 12.953125 14.910156 12.972656 C 14.917969 12.992188 14.925781 13.011719 14.929688 13.035156 C 14.933594 13.054688 14.9375 13.078125 14.9375 13.097656 C 14.9375 13.183594 14.902344 13.269531 14.839844 13.332031 C 14.824219 13.347656 14.808594 13.359375 14.789062 13.371094 C 14.773438 13.382812 14.753906 13.394531 14.734375 13.402344 C 14.714844 13.410156 14.691406 13.417969 14.671875 13.421875 C 14.648438 13.425781 14.628906 13.429688 14.605469 13.429688 Z M 14.605469 13.429688 " fill-opacity="1" fill-rule="nonzero"/></svg>