<svg xmlns="http://www.w3.org/2000/svg" xmlns:xlink="http://www.w3.org/1999/xlink" width="40" zoomAndPan="magnify" viewBox="0 0 30 30.000001" height="40" preserveAspectRatio="xMidYMid meet" version="1.0"><defs><clipPath id="99ee0a4614"><path d="M 16 9 L 29.515625 9 L 29.515625 24 L 16 24 Z M 16 9 " clip-rule="nonzero"/></clipPath><clipPath id="d6abeea279"><path d="M 0.484375 12 L 13 12 L 13 26 L 0.484375 26 Z M 0.484375 12 " clip-rule="nonzero"/></clipPath><clipPath id="9d65a5a087"><path d="M 1 9 L 29.515625 9 L 29.515625 26 L 1 26 Z M 1 9 " clip-rule="nonzero"/></clipPath><clipPath id="cdfeef05fd"><path d="M 1 6 L 23 6 L 23 28.730469 L 1 28.730469 Z M 1 6 " clip-rule="nonzero"/></clipPath><clipPath id="a57bda0d01"><path d="M 9 14 L 23 14 L 23 28.730469 L 9 28.730469 Z M 9 14 " clip-rule="nonzero"/></clipPath><clipPath id="73391adb8a"><path d="M 8 0.421875 L 17 0.421875 L 17 14 L 8 14 Z M 8 0.421875 " clip-rule="nonzero"/></clipPath></defs><path fill="#dd7b4a" d="M 19.667969 10.710938 C 19.667969 10.726562 19.667969 10.734375 19.667969 10.75 C 19.664062 11.140625 19.65625 11.539062 19.644531 11.945312 C 19.636719 12.171875 19.628906 12.402344 19.621094 12.632812 C 19.601562 13.121094 19.578125 13.605469 19.554688 14.070312 C 19.523438 14.613281 19.492188 15.125 19.460938 15.585938 C 19.429688 16.070312 19.394531 16.496094 19.371094 16.832031 C 19.328125 17.363281 19.042969 17.84375 18.59375 18.132812 C 17.296875 18.976562 15.308594 19.957031 14.324219 20.425781 C 13.929688 20.617188 13.480469 20.648438 13.066406 20.507812 C 11.40625 19.957031 9.242188 18.898438 8.039062 18.285156 C 7.476562 18 7.117188 17.421875 7.109375 16.789062 C 7.105469 16.449219 7.105469 16.113281 7.105469 15.78125 C 7.109375 15.1875 7.117188 14.605469 7.128906 14.050781 C 7.132812 13.859375 7.136719 13.671875 7.144531 13.488281 C 7.152344 13.15625 7.160156 12.84375 7.171875 12.542969 C 7.175781 12.460938 7.179688 12.375 7.179688 12.292969 C 7.1875 12.179688 7.191406 12.070312 7.195312 11.964844 C 7.207031 11.660156 7.21875 11.378906 7.230469 11.132812 C 7.238281 10.988281 7.246094 10.855469 7.25 10.734375 C 7.253906 10.707031 7.253906 10.683594 7.253906 10.65625 C 7.28125 10.152344 7.53125 9.683594 7.933594 9.378906 C 9.269531 8.378906 11.445312 7.320312 12.523438 6.824219 C 12.9375 6.632812 13.40625 6.613281 13.832031 6.773438 C 16.121094 7.644531 17.898438 8.652344 18.859375 9.25 C 19.316406 9.535156 19.613281 10.015625 19.660156 10.546875 C 19.664062 10.601562 19.667969 10.65625 19.667969 10.710938 Z M 19.667969 10.710938 " fill-opacity="1" fill-rule="nonzero"/><path fill="#56091f" d="M 19.753906 12.066406 C 19.753906 12.214844 19.753906 12.378906 19.75 12.554688 C 19.75 12.730469 19.738281 12.917969 19.730469 13.117188 L 19.699219 13.738281 C 19.691406 13.945312 19.683594 14.152344 19.667969 14.359375 L 19.589844 15.601562 L 19.5 16.84375 C 19.464844 17.285156 19.261719 17.714844 18.9375 18.023438 C 18.859375 18.097656 18.769531 18.167969 18.679688 18.230469 L 18.414062 18.398438 L 18.148438 18.558594 L 17.878906 18.71875 C 17.519531 18.925781 17.15625 19.125 16.789062 19.320312 C 16.058594 19.707031 15.320312 20.078125 14.574219 20.4375 C 14.476562 20.480469 14.390625 20.527344 14.285156 20.570312 C 14.183594 20.613281 14.078125 20.644531 13.972656 20.667969 C 13.757812 20.714844 13.53125 20.71875 13.316406 20.683594 C 13.207031 20.667969 13.097656 20.640625 12.996094 20.605469 L 12.703125 20.5 C 12.507812 20.429688 12.3125 20.355469 12.121094 20.28125 C 11.347656 19.976562 10.59375 19.636719 9.84375 19.28125 C 9.472656 19.105469 9.101562 18.925781 8.730469 18.738281 L 8.175781 18.460938 C 8.085938 18.410156 7.992188 18.367188 7.898438 18.3125 C 7.804688 18.253906 7.714844 18.191406 7.632812 18.117188 C 7.46875 17.976562 7.335938 17.800781 7.230469 17.609375 C 7.132812 17.414062 7.0625 17.203125 7.039062 16.988281 C 7.023438 16.878906 7.027344 16.769531 7.027344 16.667969 L 7.027344 15.734375 C 7.046875 14.074219 7.101562 12.414062 7.191406 10.757812 C 7.195312 10.65625 7.203125 10.546875 7.222656 10.441406 C 7.242188 10.335938 7.273438 10.234375 7.308594 10.132812 C 7.382812 9.933594 7.496094 9.75 7.636719 9.589844 C 7.707031 9.507812 7.785156 9.433594 7.867188 9.367188 C 7.953125 9.304688 8.035156 9.246094 8.121094 9.183594 C 8.292969 9.066406 8.464844 8.953125 8.636719 8.839844 C 9.335938 8.398438 10.0625 8 10.800781 7.625 C 11.167969 7.4375 11.539062 7.253906 11.910156 7.078125 C 12.097656 6.988281 12.285156 6.902344 12.472656 6.816406 C 12.660156 6.726562 12.867188 6.667969 13.074219 6.652344 C 13.28125 6.632812 13.492188 6.652344 13.695312 6.707031 C 13.796875 6.734375 13.890625 6.777344 13.988281 6.8125 L 14.273438 6.929688 C 14.65625 7.082031 15.039062 7.246094 15.414062 7.414062 C 16.164062 7.753906 16.902344 8.125 17.625 8.523438 C 17.984375 8.722656 18.339844 8.929688 18.691406 9.144531 C 18.78125 9.199219 18.867188 9.253906 18.953125 9.3125 C 19.035156 9.371094 19.113281 9.441406 19.1875 9.515625 C 19.328125 9.664062 19.445312 9.839844 19.523438 10.027344 C 19.617188 10.246094 19.640625 10.425781 19.644531 10.539062 C 19.640625 10.65625 19.636719 10.714844 19.625 10.714844 C 19.617188 10.714844 19.605469 10.65625 19.59375 10.542969 C 19.574219 10.433594 19.542969 10.265625 19.453125 10.058594 C 19.378906 9.878906 19.265625 9.714844 19.128906 9.570312 C 19.058594 9.503906 18.984375 9.4375 18.90625 9.382812 C 18.828125 9.328125 18.738281 9.273438 18.648438 9.21875 C 18.296875 9.007812 17.941406 8.804688 17.582031 8.605469 C 16.859375 8.210938 16.125 7.847656 15.375 7.515625 C 14.996094 7.347656 14.617188 7.1875 14.238281 7.035156 L 13.949219 6.925781 L 13.804688 6.867188 C 13.757812 6.851562 13.714844 6.835938 13.667969 6.824219 C 13.480469 6.769531 13.28125 6.753906 13.089844 6.769531 C 12.894531 6.789062 12.707031 6.84375 12.527344 6.929688 C 12.34375 7.015625 12.15625 7.105469 11.972656 7.195312 C 11.601562 7.371094 11.230469 7.558594 10.867188 7.746094 C 10.136719 8.125 9.414062 8.523438 8.722656 8.96875 C 8.550781 9.078125 8.378906 9.195312 8.214844 9.3125 C 8.132812 9.375 8.042969 9.433594 7.96875 9.496094 C 7.890625 9.554688 7.820312 9.621094 7.757812 9.695312 C 7.628906 9.839844 7.53125 10.007812 7.464844 10.191406 C 7.429688 10.28125 7.402344 10.375 7.386719 10.472656 C 7.371094 10.566406 7.363281 10.660156 7.359375 10.769531 C 7.28125 12.421875 7.234375 14.082031 7.226562 15.738281 L 7.226562 16.359375 L 7.230469 16.671875 C 7.230469 16.722656 7.226562 16.777344 7.230469 16.824219 L 7.234375 16.894531 L 7.242188 16.96875 C 7.265625 17.160156 7.328125 17.34375 7.417969 17.515625 C 7.507812 17.683594 7.628906 17.835938 7.773438 17.960938 C 7.847656 18.027344 7.925781 18.078125 8.007812 18.128906 C 8.089844 18.175781 8.183594 18.222656 8.277344 18.269531 L 8.828125 18.546875 C 9.199219 18.726562 9.570312 18.90625 9.945312 19.082031 C 10.691406 19.429688 11.445312 19.765625 12.210938 20.0625 C 12.402344 20.136719 12.59375 20.210938 12.789062 20.277344 L 13.078125 20.378906 C 13.171875 20.410156 13.261719 20.433594 13.359375 20.449219 C 13.546875 20.476562 13.738281 20.46875 13.925781 20.425781 C 14.019531 20.40625 14.109375 20.378906 14.199219 20.339844 L 14.261719 20.3125 L 14.332031 20.277344 L 14.472656 20.210938 C 15.214844 19.851562 15.949219 19.480469 16.675781 19.09375 C 17.039062 18.898438 17.398438 18.699219 17.753906 18.492188 C 17.929688 18.386719 18.105469 18.28125 18.28125 18.175781 C 18.367188 18.121094 18.457031 18.066406 18.539062 18.011719 C 18.617188 17.957031 18.691406 17.894531 18.761719 17.832031 C 19.035156 17.566406 19.207031 17.199219 19.234375 16.816406 L 19.328125 15.582031 C 19.351562 15.167969 19.378906 14.757812 19.402344 14.34375 C 19.417969 14.136719 19.425781 13.933594 19.4375 13.726562 L 19.464844 13.109375 C 19.476562 12.910156 19.484375 12.722656 19.492188 12.546875 C 19.5 12.371094 19.507812 12.210938 19.511719 12.058594 C 19.527344 11.761719 19.542969 11.511719 19.5625 11.3125 C 19.59375 10.914062 19.632812 10.714844 19.664062 10.714844 C 19.699219 10.714844 19.726562 10.917969 19.738281 11.316406 C 19.75 11.515625 19.753906 11.765625 19.753906 12.066406 Z M 19.753906 12.066406 " fill-opacity="1" fill-rule="nonzero"/><g clip-path="url(#99ee0a4614)"><path fill="#f9aabb" d="M 29.359375 17.925781 C 29.359375 18.414062 29.355469 18.839844 29.351562 19.175781 C 29.34375 19.710938 29.09375 20.207031 28.667969 20.527344 C 27.425781 21.457031 25.511719 22.570312 24.558594 23.105469 C 24.179688 23.320312 23.734375 23.382812 23.308594 23.273438 C 21.617188 22.835938 19.386719 21.929688 18.144531 21.398438 C 17.566406 21.152344 17.167969 20.601562 17.117188 19.96875 C 17.089844 19.632812 17.066406 19.296875 17.046875 18.964844 C 17.007812 18.371094 16.976562 17.789062 16.949219 17.234375 C 16.925781 16.699219 16.90625 16.195312 16.894531 15.730469 C 16.875 15.195312 16.863281 14.714844 16.855469 14.316406 C 16.855469 14.171875 16.851562 14.039062 16.851562 13.917969 C 16.851562 13.890625 16.847656 13.867188 16.847656 13.839844 C 16.84375 13.335938 17.058594 12.851562 17.441406 12.519531 C 18.707031 11.429688 20.804688 10.226562 21.847656 9.65625 C 22.246094 9.4375 22.714844 9.386719 23.148438 9.519531 C 25.488281 10.230469 27.332031 11.117188 28.332031 11.648438 C 28.808594 11.898438 29.132812 12.359375 29.21875 12.886719 C 29.226562 12.941406 29.230469 12.996094 29.234375 13.050781 C 29.234375 13.0625 29.238281 13.074219 29.238281 13.085938 C 29.277344 13.699219 29.300781 14.335938 29.320312 14.96875 C 29.332031 15.457031 29.34375 15.945312 29.347656 16.410156 C 29.355469 16.953125 29.359375 17.464844 29.359375 17.925781 Z M 29.359375 17.925781 " fill-opacity="1" fill-rule="nonzero"/></g><g clip-path="url(#d6abeea279)"><path fill="#56091f" d="M 12.03125 17.238281 C 12.03125 17.25 12.03125 17.261719 12.027344 17.273438 C 12.023438 17.398438 12.015625 17.523438 12.011719 17.652344 C 11.996094 17.945312 11.976562 18.246094 11.957031 18.546875 C 11.941406 18.75 11.925781 18.949219 11.910156 19.152344 C 11.898438 19.335938 11.882812 19.519531 11.867188 19.699219 C 11.855469 19.84375 11.84375 19.988281 11.832031 20.128906 C 11.816406 20.285156 11.804688 20.4375 11.789062 20.589844 C 11.769531 20.828125 11.746094 21.0625 11.722656 21.289062 C 11.695312 21.570312 11.667969 21.84375 11.640625 22.097656 C 11.605469 22.414062 11.574219 22.703125 11.542969 22.960938 C 11.527344 23.097656 11.515625 23.226562 11.5 23.339844 C 11.449219 23.769531 11.238281 24.160156 10.917969 24.4375 L 10.914062 24.4375 C 10.839844 24.5 10.761719 24.558594 10.675781 24.609375 C 10.261719 24.855469 9.777344 25.117188 9.28125 25.367188 C 8.917969 25.546875 8.550781 25.726562 8.191406 25.894531 C 8.160156 25.910156 8.128906 25.925781 8.097656 25.941406 C 7.949219 26.007812 7.777344 26.007812 7.628906 25.933594 L 7.539062 25.886719 L 1.132812 22.640625 L 0.710938 22.425781 C 0.585938 22.363281 0.507812 22.226562 0.519531 22.082031 L 0.921875 16.390625 C 0.9375 16.132812 0.996094 15.882812 1.089844 15.648438 C 1.171875 15.429688 1.289062 15.226562 1.429688 15.042969 C 1.457031 15.003906 1.488281 14.96875 1.519531 14.929688 C 1.574219 14.871094 1.628906 14.816406 1.683594 14.757812 C 1.855469 14.597656 2.050781 14.457031 2.265625 14.347656 C 2.378906 14.289062 2.492188 14.234375 2.605469 14.175781 C 2.90625 14.027344 3.207031 13.886719 3.496094 13.753906 C 3.605469 13.703125 3.710938 13.652344 3.816406 13.605469 C 3.878906 13.578125 3.9375 13.550781 3.996094 13.523438 C 4.398438 13.347656 4.757812 13.195312 5.042969 13.074219 C 5.460938 12.902344 5.933594 12.898438 6.351562 13.078125 C 6.371094 13.085938 6.390625 13.09375 6.410156 13.101562 C 6.902344 13.3125 7.363281 13.527344 7.800781 13.742188 C 7.855469 13.765625 7.90625 13.792969 7.957031 13.816406 C 8.25 13.960938 8.527344 14.105469 8.789062 14.25 C 8.847656 14.28125 8.90625 14.308594 8.960938 14.339844 C 9.707031 14.746094 10.335938 15.128906 10.832031 15.449219 C 10.941406 15.523438 11.050781 15.589844 11.144531 15.65625 C 11.191406 15.6875 11.238281 15.71875 11.28125 15.746094 C 11.382812 15.8125 11.472656 15.890625 11.554688 15.976562 C 11.578125 16.003906 11.605469 16.027344 11.625 16.054688 C 11.632812 16.0625 11.636719 16.066406 11.640625 16.070312 C 11.726562 16.175781 11.800781 16.292969 11.863281 16.414062 C 11.960938 16.617188 12.019531 16.839844 12.03125 17.070312 C 12.035156 17.125 12.035156 17.179688 12.03125 17.238281 Z M 12.03125 17.238281 " fill-opacity="1" fill-rule="nonzero"/></g><path fill="#dd7b4a" d="M 7.6875 19.894531 L 7.679688 20.21875 L 7.667969 20.671875 L 7.664062 20.785156 L 7.636719 21.964844 L 7.621094 22.484375 L 7.613281 22.910156 L 7.609375 23.082031 L 7.582031 24.1875 L 7.539062 25.886719 L 1.132812 22.640625 L 1.214844 21.292969 L 1.28125 20.222656 L 1.285156 20.125 L 1.296875 19.9375 L 1.347656 19.09375 L 1.417969 17.953125 L 1.417969 17.929688 L 1.4375 17.636719 L 1.496094 16.683594 C 1.507812 16.460938 1.742188 16.324219 1.941406 16.417969 L 7.050781 18.855469 C 7.449219 19.046875 7.695312 19.453125 7.6875 19.894531 Z M 22.644531 12.476562 C 24.117188 12.292969 25.582031 12.0625 27.050781 11.863281 C 27.226562 11.839844 27.210938 11.574219 27.03125 11.585938 C 25.53125 11.6875 24.042969 11.761719 22.550781 11.941406 C 21.820312 12.027344 21.089844 12.125 20.359375 12.238281 C 20.027344 12.289062 19.691406 12.339844 19.359375 12.398438 C 19 12.457031 18.710938 12.492188 18.433594 12.738281 C 18.382812 12.78125 18.40625 12.878906 18.464844 12.90625 C 18.757812 13.035156 19 13.003906 19.316406 12.953125 C 19.691406 12.894531 20.070312 12.832031 20.445312 12.777344 C 21.179688 12.671875 21.910156 12.570312 22.644531 12.476562 Z M 21.761719 10.941406 C 22.117188 10.890625 22.46875 10.839844 22.824219 10.796875 C 23.148438 10.757812 23.441406 10.667969 23.753906 10.609375 C 24.105469 10.542969 24.460938 10.511719 24.8125 10.480469 C 24.914062 10.46875 24.90625 10.320312 24.804688 10.320312 C 24.117188 10.320312 23.425781 10.246094 22.742188 10.3125 C 22.40625 10.34375 22.074219 10.382812 21.738281 10.429688 C 21.472656 10.46875 21.148438 10.464844 21.007812 10.730469 C 20.984375 10.777344 20.996094 10.832031 21.03125 10.867188 C 21.234375 11.0625 21.507812 10.976562 21.761719 10.941406 Z M 28.058594 17.324219 C 28.011719 16.507812 27.933594 15.683594 27.78125 14.878906 C 27.636719 14.132812 27.03125 13.550781 26.261719 13.503906 C 25.738281 13.46875 25.1875 13.550781 24.664062 13.589844 C 24.109375 13.632812 23.550781 13.691406 22.996094 13.757812 C 22.378906 13.828125 21.761719 13.90625 21.152344 14.027344 C 20.859375 14.085938 20.5625 14.195312 20.265625 14.230469 C 19.964844 14.269531 19.6875 14.304688 19.390625 14.375 C 19.296875 14.394531 19.332031 14.546875 19.421875 14.539062 C 19.796875 14.503906 20.179688 14.40625 20.550781 14.386719 C 20.863281 14.367188 21.175781 14.359375 21.484375 14.332031 C 22.128906 14.269531 22.777344 14.214844 23.421875 14.164062 C 24.042969 14.117188 24.667969 14.078125 25.292969 14.042969 C 25.824219 14.011719 26.410156 13.894531 26.855469 14.253906 C 27.226562 14.550781 27.285156 14.992188 27.351562 15.433594 C 27.417969 15.898438 27.46875 16.367188 27.507812 16.835938 C 27.554688 17.386719 27.578125 17.941406 27.578125 18.496094 C 27.578125 18.796875 27.566406 19.09375 27.558594 19.394531 C 27.558594 19.570312 27.5625 19.742188 27.566406 19.917969 C 27.566406 20.09375 27.609375 20.277344 27.605469 20.445312 C 27.601562 20.59375 27.835938 20.613281 27.863281 20.46875 C 27.914062 20.207031 28.003906 19.96875 28.039062 19.699219 C 28.074219 19.4375 28.082031 19.179688 28.089844 18.917969 C 28.101562 18.386719 28.089844 17.855469 28.058594 17.324219 Z M 26.378906 18.519531 C 26.351562 18.121094 26.332031 17.722656 26.292969 17.328125 C 26.214844 16.53125 25.652344 15.84375 24.84375 15.710938 C 24.222656 15.609375 23.507812 15.777344 22.886719 15.859375 C 22.105469 15.957031 21.332031 16.085938 20.5625 16.246094 C 20.441406 16.269531 20.445312 16.457031 20.578125 16.445312 C 21.800781 16.324219 23.023438 16.210938 24.25 16.140625 C 25.066406 16.097656 25.753906 16.511719 25.820312 17.386719 C 25.894531 18.386719 25.941406 19.390625 26.007812 20.394531 C 26.027344 20.664062 26.023438 20.949219 26.097656 21.210938 C 26.125 21.300781 26.21875 21.488281 26.222656 21.527344 C 26.230469 21.65625 26.4375 21.648438 26.425781 21.515625 C 26.429688 21.550781 26.429688 21.460938 26.4375 21.441406 C 26.4375 21.441406 26.480469 21.328125 26.496094 21.265625 C 26.550781 21.027344 26.519531 20.769531 26.503906 20.523438 C 26.460938 19.855469 26.421875 19.1875 26.378906 18.519531 Z M 22.390625 17.644531 C 22.3125 17.664062 22.320312 17.777344 22.40625 17.773438 C 23.519531 17.742188 23.429688 19.183594 23.421875 19.933594 C 23.417969 20.382812 23.417969 20.832031 23.40625 21.28125 C 23.394531 21.703125 23.335938 22.121094 23.5625 22.496094 C 23.574219 22.519531 23.609375 22.519531 23.625 22.5 C 23.964844 22.085938 23.902344 21.480469 23.914062 20.96875 C 23.925781 20.378906 23.921875 19.785156 23.851562 19.199219 C 23.765625 18.457031 23.304688 17.425781 22.390625 17.644531 Z M 22.390625 17.644531 " fill-opacity="1" fill-rule="nonzero"/><path fill="#db5275" d="M 7.667969 20.671875 L 7.636719 21.964844 C 7.324219 21.835938 7.042969 21.632812 6.746094 21.464844 C 6.496094 21.324219 6.230469 21.207031 5.964844 21.09375 C 5.328125 20.816406 4.691406 20.542969 4.054688 20.273438 C 3.148438 19.886719 2.242188 19.503906 1.347656 19.09375 L 1.421875 17.929688 C 1.84375 18.144531 2.308594 18.277344 2.746094 18.46875 C 3.039062 18.601562 3.324219 18.761719 3.609375 18.910156 C 4.917969 19.589844 6.355469 20.015625 7.667969 20.671875 Z M 2.585938 20.65625 C 2.15625 20.464844 1.703125 20.335938 1.285156 20.125 L 1.214844 21.292969 C 2.097656 21.699219 2.996094 22.078125 3.890625 22.457031 C 4.53125 22.726562 5.167969 23 5.804688 23.277344 C 6.070312 23.394531 6.335938 23.507812 6.585938 23.652344 C 6.914062 23.835938 7.226562 24.070312 7.582031 24.1875 L 7.613281 22.910156 C 6.269531 22.222656 4.792969 21.792969 3.449219 21.097656 C 3.160156 20.949219 2.878906 20.789062 2.585938 20.65625 Z M 2.585938 20.65625 " fill-opacity="1" fill-rule="nonzero"/><g clip-path="url(#9d65a5a087)"><path fill="#56091f" d="M 29.484375 17.933594 L 29.476562 19.179688 C 29.472656 19.625 29.296875 20.0625 28.996094 20.390625 C 28.921875 20.472656 28.839844 20.546875 28.753906 20.613281 L 28.5 20.800781 L 28.246094 20.980469 L 27.988281 21.15625 C 27.644531 21.386719 27.296875 21.613281 26.945312 21.832031 C 26.242188 22.269531 25.527344 22.6875 24.808594 23.097656 C 24.714844 23.148438 24.632812 23.199219 24.53125 23.25 C 24.433594 23.296875 24.328125 23.339844 24.222656 23.367188 C 24.011719 23.429688 23.789062 23.449219 23.570312 23.429688 C 23.460938 23.421875 23.351562 23.398438 23.25 23.371094 L 22.949219 23.289062 C 22.75 23.230469 22.550781 23.171875 22.351562 23.109375 C 21.5625 22.855469 20.785156 22.570312 20.015625 22.269531 C 19.628906 22.117188 19.246094 21.960938 18.867188 21.800781 L 18.292969 21.558594 C 18.199219 21.519531 18.105469 21.480469 18.003906 21.429688 C 17.910156 21.378906 17.816406 21.324219 17.730469 21.257812 C 17.558594 21.125 17.410156 20.960938 17.296875 20.777344 C 17.183594 20.589844 17.101562 20.382812 17.0625 20.171875 C 17.039062 20.0625 17.035156 19.953125 17.027344 19.851562 L 17.007812 19.542969 L 16.964844 18.921875 C 16.871094 17.265625 16.816406 15.605469 16.792969 13.945312 C 16.792969 13.84375 16.792969 13.734375 16.804688 13.628906 C 16.816406 13.523438 16.835938 13.417969 16.867188 13.316406 C 16.929688 13.109375 17.027344 12.917969 17.15625 12.75 C 17.222656 12.664062 17.292969 12.585938 17.371094 12.515625 C 17.453125 12.445312 17.53125 12.382812 17.613281 12.3125 C 17.773438 12.183594 17.9375 12.058594 18.105469 11.933594 C 18.773438 11.445312 19.472656 11 20.179688 10.574219 C 20.535156 10.363281 20.890625 10.15625 21.25 9.953125 C 21.433594 9.851562 21.613281 9.753906 21.792969 9.652344 C 21.976562 9.550781 22.175781 9.476562 22.382812 9.445312 C 22.589844 9.414062 22.800781 9.417969 23.003906 9.460938 C 23.109375 9.480469 23.207031 9.515625 23.304688 9.546875 L 23.601562 9.640625 C 23.992188 9.769531 24.382812 9.90625 24.765625 10.046875 C 25.539062 10.335938 26.300781 10.65625 27.046875 11.003906 C 27.421875 11.179688 27.789062 11.363281 28.15625 11.550781 C 28.246094 11.601562 28.339844 11.648438 28.425781 11.699219 C 28.515625 11.753906 28.597656 11.816406 28.671875 11.886719 C 28.824219 12.027344 28.953125 12.191406 29.046875 12.375 C 29.152344 12.585938 29.1875 12.761719 29.199219 12.878906 C 29.207031 12.996094 29.203125 13.050781 29.195312 13.054688 C 29.1875 13.054688 29.171875 12.996094 29.152344 12.886719 C 29.125 12.777344 29.085938 12.609375 28.980469 12.410156 C 28.890625 12.234375 28.769531 12.078125 28.625 11.945312 C 28.550781 11.878906 28.472656 11.820312 28.386719 11.769531 C 28.304688 11.71875 28.210938 11.671875 28.121094 11.625 C 27.757812 11.4375 27.386719 11.257812 27.015625 11.085938 C 26.269531 10.742188 25.507812 10.429688 24.738281 10.148438 C 24.351562 10.003906 23.960938 9.875 23.570312 9.746094 L 23.277344 9.65625 L 23.128906 9.609375 C 23.082031 9.597656 23.035156 9.582031 22.988281 9.574219 C 22.796875 9.535156 22.601562 9.53125 22.40625 9.5625 C 22.214844 9.59375 22.03125 9.660156 21.855469 9.757812 C 21.675781 9.859375 21.496094 9.957031 21.316406 10.058594 C 20.960938 10.265625 20.605469 10.472656 20.253906 10.6875 C 19.546875 11.113281 18.855469 11.5625 18.195312 12.050781 C 18.03125 12.175781 17.871094 12.300781 17.710938 12.429688 C 17.632812 12.496094 17.550781 12.5625 17.476562 12.625 C 17.40625 12.691406 17.339844 12.761719 17.28125 12.839844 C 17.164062 12.996094 17.074219 13.171875 17.019531 13.359375 C 16.992188 13.453125 16.972656 13.546875 16.964844 13.644531 C 16.953125 13.742188 16.953125 13.835938 16.957031 13.941406 C 16.988281 15.597656 17.054688 17.257812 17.15625 18.910156 L 17.203125 19.53125 L 17.222656 19.839844 C 17.226562 19.890625 17.230469 19.945312 17.238281 19.992188 L 17.246094 20.0625 L 17.257812 20.136719 C 17.292969 20.324219 17.367188 20.507812 17.46875 20.671875 C 17.574219 20.832031 17.703125 20.980469 17.859375 21.09375 C 17.933594 21.152344 18.019531 21.203125 18.101562 21.246094 C 18.1875 21.289062 18.285156 21.328125 18.378906 21.367188 L 18.949219 21.605469 C 19.332031 21.761719 19.714844 21.914062 20.101562 22.066406 C 20.871094 22.363281 21.644531 22.644531 22.429688 22.890625 C 22.625 22.953125 22.824219 23.011719 23.019531 23.066406 L 23.316406 23.148438 C 23.410156 23.171875 23.503906 23.1875 23.601562 23.195312 C 23.789062 23.210938 23.984375 23.191406 24.167969 23.136719 C 24.257812 23.109375 24.347656 23.074219 24.433594 23.03125 L 24.496094 22.996094 L 24.5625 22.960938 L 24.699219 22.882812 C 25.414062 22.472656 26.125 22.054688 26.824219 21.617188 C 27.171875 21.398438 27.515625 21.175781 27.859375 20.945312 C 28.027344 20.828125 28.195312 20.710938 28.363281 20.589844 C 28.445312 20.53125 28.527344 20.46875 28.609375 20.410156 C 28.683594 20.351562 28.753906 20.285156 28.816406 20.214844 C 29.074219 19.929688 29.222656 19.554688 29.222656 19.167969 L 29.230469 17.929688 C 29.230469 17.515625 29.226562 17.101562 29.226562 16.691406 C 29.226562 16.484375 29.222656 16.277344 29.214844 16.070312 L 29.203125 15.453125 C 29.199219 15.253906 29.195312 15.066406 29.191406 14.890625 C 29.1875 14.714844 29.183594 14.550781 29.179688 14.402344 C 29.175781 14.101562 29.171875 13.851562 29.175781 13.652344 C 29.183594 13.253906 29.207031 13.050781 29.234375 13.050781 C 29.265625 13.050781 29.304688 13.246094 29.347656 13.648438 C 29.367188 13.847656 29.386719 14.097656 29.40625 14.394531 C 29.417969 14.546875 29.425781 14.707031 29.4375 14.882812 C 29.445312 15.058594 29.449219 15.246094 29.453125 15.445312 L 29.464844 16.066406 C 29.472656 16.277344 29.476562 16.484375 29.476562 16.691406 Z M 7.191406 25.660156 C 5.277344 24.542969 3.253906 23.585938 1.238281 22.667969 C 1.09375 22.605469 1.097656 22.601562 1.238281 22.671875 C 2.226562 23.171875 3.199219 23.714844 4.179688 24.238281 C 5.15625 24.765625 6.148438 25.269531 7.167969 25.710938 C 7.292969 25.761719 7.382812 25.800781 7.449219 25.828125 C 7.507812 25.851562 7.539062 25.867188 7.539062 25.867188 C 7.539062 25.867188 7.507812 25.851562 7.453125 25.816406 C 7.394531 25.78125 7.308594 25.730469 7.191406 25.660156 Z M 7.191406 25.660156 " fill-opacity="1" fill-rule="nonzero"/></g><g clip-path="url(#cdfeef05fd)"><path fill="#faefd6" d="M 9.820312 10.25 C 9.503906 9.5625 9.5625 8.71875 9.960938 8.082031 C 10.363281 7.441406 11.101562 7.03125 11.851562 7.023438 L 14.566406 6.703125 C 15.265625 6.855469 15.953125 7.113281 16.511719 7.558594 C 17.070312 8.007812 17.484375 8.667969 17.535156 9.382812 C 17.585938 10.097656 17.21875 10.855469 16.574219 11.167969 C 16.078125 11.40625 15.496094 11.367188 14.972656 11.542969 C 14.472656 11.714844 14.039062 12.082031 13.511719 12.167969 C 13.011719 12.25 12.5 12.054688 12.074219 11.777344 C 11.703125 11.535156 11.363281 11.222656 10.941406 11.082031 C 10.769531 11.023438 10.582031 10.996094 10.417969 10.917969 C 10.140625 10.785156 9.945312 10.527344 9.820312 10.25 Z M 22.445312 18.605469 C 22.445312 18.550781 22.441406 18.496094 22.4375 18.441406 C 22.378906 17.910156 22.074219 17.4375 21.609375 17.164062 C 20.636719 16.585938 18.835938 15.617188 16.53125 14.796875 C 16.101562 14.644531 15.628906 14.671875 15.222656 14.871094 C 14.15625 15.390625 12.003906 16.496094 10.691406 17.527344 C 10.292969 17.839844 10.054688 18.3125 10.039062 18.816406 C 10.039062 18.84375 10.035156 18.867188 10.035156 18.894531 C 10.023438 19.351562 10.003906 19.976562 9.996094 20.707031 C 9.988281 21.171875 9.984375 21.679688 9.984375 22.214844 C 9.984375 22.769531 9.988281 23.351562 10 23.945312 C 10.003906 24.277344 10.011719 24.613281 10.023438 24.949219 C 10.042969 25.582031 10.414062 26.152344 10.984375 26.429688 C 12.199219 27.015625 14.386719 28.027344 16.054688 28.542969 C 16.472656 28.671875 16.921875 28.628906 17.3125 28.433594 C 18.289062 27.941406 20.253906 26.917969 21.535156 26.046875 C 21.972656 25.75 22.25 25.261719 22.28125 24.730469 C 22.300781 24.394531 22.324219 23.96875 22.34375 23.480469 C 22.367188 23.023438 22.386719 22.507812 22.40625 21.96875 C 22.421875 21.5 22.433594 21.015625 22.441406 20.523438 C 22.453125 19.878906 22.457031 19.230469 22.445312 18.605469 Z M 7.484375 22.425781 C 7.53125 22.445312 7.578125 22.464844 7.621094 22.484375 L 7.613281 22.910156 L 7.609375 23.082031 C 7.484375 23.023438 7.363281 22.957031 7.238281 22.902344 C 6.9375 22.765625 6.636719 22.636719 6.332031 22.507812 C 5.722656 22.253906 5.109375 22.007812 4.496094 21.761719 C 3.871094 21.503906 3.234375 21.261719 2.621094 20.972656 C 2.152344 20.75 1.691406 20.53125 1.28125 20.222656 L 1.285156 20.125 L 1.296875 19.9375 C 1.859375 20.070312 2.390625 20.304688 2.925781 20.527344 C 3.53125 20.78125 4.132812 21.035156 4.742188 21.28125 C 5.375 21.535156 6.007812 21.792969 6.636719 22.058594 C 6.921875 22.175781 7.203125 22.300781 7.484375 22.425781 Z M 7.503906 20.148438 C 7.214844 20.019531 6.925781 19.894531 6.636719 19.769531 C 6.019531 19.5 5.402344 19.230469 4.785156 18.960938 C 4.171875 18.695312 3.554688 18.429688 2.941406 18.160156 C 2.480469 17.960938 1.953125 17.671875 1.4375 17.636719 L 1.417969 17.929688 L 1.417969 17.953125 C 1.816406 18.285156 2.378906 18.46875 2.835938 18.667969 C 3.453125 18.9375 4.070312 19.210938 4.6875 19.480469 C 5.304688 19.75 5.921875 20.019531 6.539062 20.289062 C 6.828125 20.414062 7.117188 20.539062 7.402344 20.664062 C 7.492188 20.703125 7.578125 20.746094 7.664062 20.785156 L 7.667969 20.671875 L 7.679688 20.21875 C 7.617188 20.195312 7.558594 20.171875 7.503906 20.148438 Z M 7.503906 20.148438 " fill-opacity="1" fill-rule="nonzero"/></g><path fill="#dd7b4a" d="M 22.441406 20.523438 C 21.125 21.238281 19.804688 21.953125 18.484375 22.667969 C 17.761719 23.0625 16.976562 23.46875 16.15625 23.375 C 15.324219 23.28125 14.640625 22.691406 13.867188 22.363281 C 13.476562 22.199219 13.066406 22.101562 12.667969 21.957031 C 12.285156 21.820312 11.914062 21.640625 11.546875 21.460938 C 11.03125 21.210938 10.511719 20.957031 9.996094 20.707031 C 10.003906 19.976562 10.023438 19.351562 10.035156 18.894531 C 11.773438 19.785156 13.566406 20.5625 15.402344 21.222656 C 15.707031 21.332031 16.015625 21.4375 16.339844 21.453125 C 17.203125 21.496094 17.941406 20.894531 18.699219 20.476562 C 19.539062 20.011719 20.480469 19.75 21.285156 19.226562 C 21.671875 18.972656 22.03125 18.65625 22.4375 18.441406 C 22.441406 18.496094 22.445312 18.550781 22.445312 18.605469 C 22.457031 19.230469 22.453125 19.878906 22.441406 20.523438 Z M 17.542969 24.804688 C 16.652344 25.058594 15.714844 24.796875 14.839844 24.492188 C 13.164062 23.90625 11.539062 23.152344 9.984375 22.242188 C 9.984375 22.867188 9.988281 23.519531 10 24.183594 C 11.3125 24.644531 12.609375 25.164062 13.890625 25.738281 C 15.0625 26.269531 16.332031 26.855469 17.550781 26.488281 C 18.03125 26.34375 18.46875 26.054688 18.898438 25.773438 C 19.292969 25.511719 19.6875 25.253906 20.082031 24.992188 C 20.816406 24.507812 21.558594 24.019531 22.34375 23.664062 C 22.367188 23.148438 22.386719 22.574219 22.40625 21.964844 C 21.199219 22.707031 19.996094 23.445312 18.789062 24.183594 C 18.386719 24.429688 17.984375 24.679688 17.542969 24.804688 Z M 17.542969 24.804688 " fill-opacity="1" fill-rule="nonzero"/><g clip-path="url(#a57bda0d01)"><path fill="#56091f" d="M 22.507812 21.878906 C 22.503906 22.179688 22.492188 22.527344 22.476562 22.929688 L 22.449219 23.550781 L 22.417969 24.171875 C 22.40625 24.378906 22.398438 24.582031 22.382812 24.796875 C 22.363281 25.015625 22.304688 25.230469 22.207031 25.429688 C 22.113281 25.625 21.980469 25.808594 21.820312 25.957031 C 21.742188 26.03125 21.648438 26.101562 21.5625 26.160156 C 21.476562 26.214844 21.390625 26.273438 21.300781 26.332031 C 20.953125 26.554688 20.597656 26.769531 20.238281 26.980469 C 19.523438 27.394531 18.792969 27.785156 18.058594 28.167969 L 17.507812 28.449219 L 17.367188 28.519531 C 17.320312 28.542969 17.269531 28.566406 17.21875 28.585938 C 17.117188 28.628906 17.015625 28.660156 16.90625 28.679688 C 16.691406 28.722656 16.46875 28.726562 16.253906 28.691406 C 16.148438 28.675781 16.039062 28.640625 15.941406 28.609375 C 15.84375 28.578125 15.746094 28.546875 15.648438 28.511719 C 14.859375 28.246094 14.09375 27.933594 13.332031 27.605469 C 12.574219 27.273438 11.824219 26.925781 11.078125 26.566406 L 10.941406 26.496094 C 10.890625 26.472656 10.84375 26.449219 10.796875 26.417969 C 10.703125 26.363281 10.621094 26.296875 10.539062 26.226562 C 10.378906 26.082031 10.242188 25.90625 10.144531 25.714844 C 10.042969 25.519531 9.980469 25.308594 9.957031 25.09375 C 9.953125 25.039062 9.949219 24.984375 9.945312 24.933594 L 9.941406 24.777344 L 9.9375 24.464844 C 9.933594 24.257812 9.925781 24.050781 9.925781 23.84375 L 9.921875 23.222656 C 9.921875 22.804688 9.914062 22.390625 9.917969 21.976562 L 9.933594 20.730469 L 9.980469 18.867188 C 9.984375 18.65625 10.023438 18.441406 10.101562 18.242188 C 10.179688 18.042969 10.289062 17.855469 10.433594 17.699219 C 10.503906 17.621094 10.582031 17.546875 10.667969 17.484375 L 10.914062 17.296875 C 11.589844 16.808594 12.300781 16.386719 13.019531 15.980469 C 13.742188 15.578125 14.476562 15.199219 15.222656 14.839844 C 15.601562 14.660156 16.046875 14.621094 16.445312 14.742188 C 16.839844 14.878906 17.222656 15.027344 17.605469 15.179688 C 18.371094 15.488281 19.125 15.832031 19.863281 16.199219 C 20.230469 16.386719 20.59375 16.578125 20.957031 16.777344 C 21.136719 16.878906 21.316406 16.980469 21.492188 17.085938 C 21.582031 17.136719 21.671875 17.1875 21.753906 17.25 C 21.835938 17.3125 21.917969 17.378906 21.988281 17.457031 C 22.273438 17.757812 22.4375 18.167969 22.449219 18.582031 C 22.449219 18.992188 22.445312 19.40625 22.445312 19.820312 C 22.4375 20.761719 22.378906 20.761719 22.378906 19.820312 C 22.378906 19.410156 22.378906 18.996094 22.378906 18.582031 C 22.367188 18.1875 22.207031 17.796875 21.933594 17.511719 C 21.867188 17.4375 21.789062 17.375 21.710938 17.316406 C 21.632812 17.253906 21.546875 17.207031 21.457031 17.15625 C 21.277344 17.050781 21.101562 16.953125 20.921875 16.851562 C 20.558594 16.65625 20.195312 16.464844 19.828125 16.28125 C 19.089844 15.917969 18.339844 15.578125 17.574219 15.277344 C 17.382812 15.199219 17.191406 15.125 17 15.054688 C 16.902344 15.015625 16.804688 14.984375 16.710938 14.949219 C 16.613281 14.914062 16.511719 14.875 16.421875 14.847656 C 16.046875 14.738281 15.628906 14.769531 15.277344 14.941406 C 14.539062 15.304688 13.804688 15.6875 13.085938 16.089844 C 12.371094 16.5 11.664062 16.925781 11 17.410156 L 10.757812 17.597656 C 10.679688 17.65625 10.609375 17.722656 10.542969 17.796875 C 10.414062 17.941406 10.308594 18.113281 10.238281 18.296875 C 10.171875 18.480469 10.132812 18.671875 10.132812 18.871094 L 10.121094 19.496094 L 10.09375 20.738281 L 10.085938 21.980469 C 10.082031 22.394531 10.09375 22.8125 10.09375 23.226562 L 10.101562 23.847656 C 10.101562 24.054688 10.109375 24.261719 10.117188 24.46875 L 10.125 24.777344 L 10.128906 24.933594 C 10.132812 24.984375 10.132812 25.03125 10.140625 25.082031 C 10.160156 25.273438 10.21875 25.464844 10.308594 25.636719 C 10.398438 25.808594 10.523438 25.960938 10.667969 26.09375 C 10.742188 26.15625 10.820312 26.214844 10.902344 26.265625 C 10.941406 26.289062 10.988281 26.308594 11.03125 26.332031 L 11.171875 26.402344 C 11.914062 26.757812 12.664062 27.101562 13.421875 27.425781 C 14.179688 27.75 14.945312 28.058594 15.722656 28.320312 C 15.820312 28.355469 15.917969 28.382812 16.015625 28.414062 L 16.089844 28.4375 L 16.160156 28.457031 C 16.207031 28.46875 16.253906 28.480469 16.300781 28.488281 C 16.492188 28.519531 16.6875 28.515625 16.875 28.472656 C 16.972656 28.453125 17.0625 28.425781 17.152344 28.386719 C 17.199219 28.371094 17.238281 28.347656 17.285156 28.324219 L 17.421875 28.257812 L 17.972656 27.972656 C 18.703125 27.59375 19.429688 27.199219 20.140625 26.789062 C 20.496094 26.582031 20.847656 26.367188 21.191406 26.144531 L 21.449219 25.976562 C 21.53125 25.917969 21.605469 25.863281 21.675781 25.792969 C 21.816406 25.660156 21.933594 25.503906 22.015625 25.328125 C 22.097656 25.15625 22.152344 24.964844 22.167969 24.773438 C 22.183594 24.574219 22.191406 24.363281 22.203125 24.160156 L 22.234375 23.539062 L 22.261719 22.921875 C 22.277344 22.523438 22.296875 22.171875 22.3125 21.875 C 22.324219 21.574219 22.339844 21.324219 22.355469 21.125 C 22.386719 20.726562 22.417969 20.527344 22.445312 20.527344 C 22.472656 20.527344 22.492188 20.726562 22.503906 21.128906 C 22.507812 21.328125 22.507812 21.578125 22.507812 21.878906 Z M 22.507812 21.878906 " fill-opacity="1" fill-rule="nonzero"/></g><path fill="#db5275" d="M 19.855469 15.542969 C 19.855469 15.546875 19.855469 15.550781 19.855469 15.554688 C 19.855469 15.554688 19.855469 15.554688 19.855469 15.558594 C 19.855469 15.558594 19.855469 15.5625 19.855469 15.5625 C 19.855469 15.5625 19.855469 15.566406 19.855469 15.566406 C 19.855469 15.851562 19.699219 16.097656 19.46875 16.230469 C 19.601562 16.460938 19.613281 16.753906 19.476562 17 C 19.339844 17.246094 19.085938 17.386719 18.824219 17.390625 C 18.835938 17.652344 18.714844 17.910156 18.484375 18.066406 C 18.253906 18.21875 17.972656 18.230469 17.738281 18.125 C 17.636719 18.359375 17.417969 18.539062 17.144531 18.578125 C 17.105469 18.585938 17.066406 18.585938 17.027344 18.585938 C 16.800781 18.585938 16.589844 18.484375 16.449219 18.316406 C 16.261719 18.488281 15.988281 18.558594 15.726562 18.480469 C 15.460938 18.402344 15.269531 18.195312 15.199219 17.945312 C 14.953125 18.019531 14.675781 17.96875 14.46875 17.78125 C 14.257812 17.59375 14.179688 17.320312 14.226562 17.0625 C 13.96875 17.015625 13.738281 16.835938 13.640625 16.570312 C 13.542969 16.304688 13.601562 16.015625 13.769531 15.8125 C 13.566406 15.644531 13.449219 15.378906 13.488281 15.101562 C 13.527344 14.832031 13.695312 14.617188 13.921875 14.511719 C 13.8125 14.289062 13.8125 14.019531 13.941406 13.789062 C 14.070312 13.558594 14.300781 13.417969 14.542969 13.398438 C 14.515625 13.148438 14.609375 12.894531 14.8125 12.71875 C 15.023438 12.542969 15.304688 12.496094 15.550781 12.582031 C 15.632812 12.324219 15.84375 12.121094 16.125 12.058594 C 16.410156 12 16.695312 12.109375 16.871094 12.320312 C 17.082031 12.144531 17.378906 12.085938 17.652344 12.195312 C 17.910156 12.300781 18.082031 12.53125 18.125 12.789062 C 18.375 12.742188 18.640625 12.820312 18.824219 13.019531 C 19.003906 13.214844 19.0625 13.476562 19.007812 13.71875 C 19.25 13.765625 19.460938 13.929688 19.566406 14.171875 C 19.667969 14.414062 19.636719 14.683594 19.503906 14.886719 C 19.71875 15.027344 19.859375 15.269531 19.855469 15.542969 Z M 19.855469 15.542969 " fill-opacity="1" fill-rule="nonzero"/><path fill="#56091f" d="M 13.457031 12.28125 C 13.070312 12.324219 12.6875 12.222656 12.355469 12.058594 C 12.183594 11.976562 12.023438 11.875 11.875 11.769531 C 11.726562 11.667969 11.582031 11.558594 11.433594 11.457031 C 11.289062 11.359375 11.136719 11.273438 10.980469 11.210938 C 10.828125 11.148438 10.648438 11.121094 10.464844 11.054688 C 10.375 11.023438 10.28125 10.972656 10.199219 10.914062 C 10.121094 10.855469 10.046875 10.789062 9.984375 10.714844 C 9.855469 10.5625 9.761719 10.398438 9.691406 10.21875 C 9.542969 9.871094 9.488281 9.484375 9.515625 9.105469 C 9.546875 8.730469 9.660156 8.359375 9.863281 8.035156 C 10.0625 7.714844 10.34375 7.445312 10.667969 7.253906 C 11.027344 7.042969 11.34375 6.988281 11.546875 6.976562 C 11.648438 6.972656 11.726562 6.976562 11.777344 6.988281 C 11.824219 7 11.851562 7.011719 11.851562 7.027344 C 11.851562 7.039062 11.828125 7.054688 11.78125 7.070312 C 11.730469 7.082031 11.660156 7.101562 11.566406 7.125 C 11.382812 7.171875 11.105469 7.25 10.777344 7.445312 C 10.484375 7.617188 10.226562 7.863281 10.046875 8.152344 C 9.867188 8.445312 9.757812 8.785156 9.730469 9.128906 C 9.703125 9.472656 9.753906 9.824219 9.886719 10.144531 C 10.015625 10.457031 10.230469 10.753906 10.542969 10.863281 C 10.695312 10.917969 10.878906 10.949219 11.058594 11.019531 C 11.238281 11.09375 11.398438 11.1875 11.550781 11.292969 C 11.855469 11.5 12.128906 11.730469 12.441406 11.882812 C 12.753906 12.039062 13.101562 12.132812 13.441406 12.09375 C 13.78125 12.058594 14.097656 11.882812 14.417969 11.714844 C 14.578125 11.632812 14.742188 11.550781 14.917969 11.488281 C 15.09375 11.425781 15.277344 11.390625 15.457031 11.363281 C 15.8125 11.304688 16.175781 11.273438 16.496094 11.136719 C 16.816406 11 17.078125 10.746094 17.25 10.4375 C 17.421875 10.128906 17.507812 9.773438 17.492188 9.421875 C 17.480469 9.066406 17.367188 8.71875 17.195312 8.40625 C 17.019531 8.09375 16.78125 7.820312 16.507812 7.589844 C 16.230469 7.363281 15.917969 7.183594 15.585938 7.039062 C 15.257812 6.898438 14.914062 6.792969 14.5625 6.714844 C 13.773438 6.804688 12.984375 6.894531 12.199219 6.980469 C 11.738281 7.035156 11.734375 6.972656 12.195312 6.917969 C 12.976562 6.820312 13.761719 6.726562 14.554688 6.628906 L 14.566406 6.625 L 14.578125 6.628906 C 14.933594 6.707031 15.285156 6.808594 15.625 6.949219 C 15.960938 7.089844 16.285156 7.273438 16.574219 7.503906 C 16.863281 7.738281 17.113281 8.019531 17.296875 8.34375 C 17.484375 8.667969 17.605469 9.035156 17.625 9.414062 C 17.644531 9.792969 17.558594 10.175781 17.375 10.507812 C 17.195312 10.839844 16.910156 11.128906 16.558594 11.28125 C 16.203125 11.4375 15.832031 11.46875 15.480469 11.527344 C 15.304688 11.558594 15.132812 11.59375 14.972656 11.652344 C 14.8125 11.710938 14.65625 11.792969 14.496094 11.875 C 14.335938 11.960938 14.175781 12.050781 14.007812 12.125 C 13.835938 12.199219 13.652344 12.261719 13.457031 12.28125 Z M 19.863281 15.171875 C 19.808594 15.050781 19.722656 14.949219 19.621094 14.863281 C 19.734375 14.644531 19.746094 14.371094 19.648438 14.140625 C 19.550781 13.910156 19.347656 13.726562 19.109375 13.65625 C 19.140625 13.402344 19.058594 13.136719 18.878906 12.953125 C 18.707031 12.765625 18.441406 12.671875 18.191406 12.695312 C 18.160156 12.574219 18.101562 12.464844 18.023438 12.367188 C 17.929688 12.253906 17.804688 12.164062 17.664062 12.109375 C 17.523438 12.058594 17.367188 12.042969 17.222656 12.070312 C 17.101562 12.089844 16.984375 12.140625 16.882812 12.210938 C 16.792969 12.125 16.6875 12.054688 16.566406 12.011719 C 16.425781 11.960938 16.269531 11.949219 16.121094 11.980469 C 15.972656 12.007812 15.832031 12.078125 15.71875 12.179688 C 15.625 12.265625 15.554688 12.371094 15.503906 12.488281 C 15.253906 12.425781 14.976562 12.488281 14.777344 12.652344 C 14.574219 12.816406 14.460938 13.078125 14.46875 13.335938 C 14.222656 13.378906 14 13.535156 13.882812 13.757812 C 13.757812 13.976562 13.746094 14.25 13.84375 14.480469 C 13.617188 14.609375 13.453125 14.851562 13.429688 15.109375 C 13.394531 15.371094 13.5 15.640625 13.695312 15.816406 C 13.582031 15.972656 13.527344 16.167969 13.542969 16.359375 C 13.558594 16.515625 13.609375 16.582031 13.617188 16.578125 C 13.628906 16.574219 13.605469 16.5 13.59375 16.355469 C 13.582031 16.160156 13.644531 15.960938 13.773438 15.8125 L 13.773438 15.808594 C 13.570312 15.644531 13.460938 15.375 13.496094 15.117188 C 13.527344 14.863281 13.695312 14.628906 13.929688 14.523438 L 13.945312 14.519531 L 13.9375 14.503906 C 13.828125 14.28125 13.835938 14.011719 13.960938 13.800781 C 14.078125 13.585938 14.308594 13.441406 14.546875 13.425781 L 14.578125 13.425781 L 14.574219 13.394531 C 14.546875 13.148438 14.65625 12.890625 14.847656 12.742188 C 15.039062 12.585938 15.308594 12.539062 15.539062 12.621094 L 15.578125 12.636719 L 15.59375 12.59375 C 15.671875 12.34375 15.890625 12.152344 16.144531 12.109375 C 16.398438 12.058594 16.667969 12.160156 16.828125 12.359375 L 16.863281 12.40625 L 16.910156 12.367188 C 17.101562 12.203125 17.378906 12.160156 17.609375 12.25 C 17.84375 12.335938 18.015625 12.554688 18.050781 12.796875 L 18.0625 12.871094 L 18.136719 12.859375 C 18.363281 12.816406 18.605469 12.898438 18.757812 13.066406 C 18.917969 13.234375 18.984375 13.480469 18.929688 13.699219 L 18.910156 13.78125 L 18.992188 13.796875 C 19.210938 13.84375 19.402344 14 19.484375 14.203125 C 19.574219 14.410156 19.550781 14.65625 19.433594 14.839844 L 19.382812 14.914062 L 19.457031 14.960938 C 19.5625 15.03125 19.648438 15.128906 19.703125 15.246094 C 19.757812 15.363281 19.777344 15.488281 19.765625 15.621094 C 19.746094 15.839844 19.644531 15.988281 19.574219 16.074219 C 19.503906 16.167969 19.457031 16.210938 19.46875 16.230469 C 19.46875 16.234375 19.476562 16.238281 19.488281 16.238281 C 19.492188 16.261719 19.507812 16.300781 19.527344 16.359375 C 19.609375 16.589844 19.574219 16.855469 19.433594 17.050781 C 19.296875 17.253906 19.0625 17.375 18.824219 17.375 L 18.808594 17.375 L 18.808594 17.390625 C 18.816406 17.648438 18.683594 17.902344 18.46875 18.039062 C 18.257812 18.179688 17.976562 18.199219 17.753906 18.085938 L 17.71875 18.070312 L 17.699219 18.105469 C 17.601562 18.332031 17.378906 18.496094 17.136719 18.527344 C 16.898438 18.5625 16.648438 18.460938 16.496094 18.273438 L 16.457031 18.226562 L 16.410156 18.269531 C 16.398438 18.28125 16.382812 18.289062 16.371094 18.296875 C 16.367188 18.296875 16.367188 18.292969 16.363281 18.292969 C 16.386719 18.265625 16.410156 18.242188 16.429688 18.214844 C 16.691406 17.875 16.652344 17.40625 16.339844 17.167969 C 16.085938 16.96875 15.726562 16.992188 15.460938 17.199219 C 15.457031 17.1875 15.453125 17.171875 15.449219 17.15625 C 15.300781 16.753906 14.886719 16.535156 14.519531 16.667969 C 14.375 16.722656 14.257812 16.828125 14.179688 16.957031 C 14.113281 16.9375 14.046875 16.910156 13.988281 16.871094 C 13.867188 16.789062 13.796875 16.703125 13.746094 16.648438 C 13.695312 16.589844 13.664062 16.558594 13.644531 16.566406 C 13.625 16.574219 13.613281 16.621094 13.644531 16.707031 C 13.671875 16.789062 13.742188 16.914062 13.890625 17.015625 C 13.957031 17.058594 14.03125 17.09375 14.109375 17.117188 C 14.058594 17.28125 14.058594 17.464844 14.125 17.640625 C 14.128906 17.65625 14.136719 17.671875 14.140625 17.683594 C 13.808594 17.699219 13.515625 17.914062 13.449219 18.226562 C 13.367188 18.609375 13.636719 18.996094 14.054688 19.085938 C 14.085938 19.09375 14.121094 19.097656 14.152344 19.101562 C 14.082031 19.417969 14.203125 19.742188 14.472656 19.894531 C 14.808594 20.089844 15.257812 19.945312 15.46875 19.570312 C 15.492188 19.53125 15.511719 19.488281 15.53125 19.441406 C 15.574219 19.464844 15.617188 19.484375 15.660156 19.5 C 16.0625 19.648438 16.496094 19.46875 16.628906 19.105469 C 16.699219 18.910156 16.671875 18.703125 16.574219 18.527344 C 16.746094 18.636719 16.957031 18.6875 17.160156 18.65625 C 17.417969 18.617188 17.652344 18.449219 17.773438 18.21875 C 18.019531 18.304688 18.308594 18.273438 18.523438 18.121094 C 18.746094 17.972656 18.882812 17.714844 18.886719 17.449219 C 19.128906 17.425781 19.355469 17.292969 19.488281 17.089844 C 19.636719 16.871094 19.667969 16.585938 19.578125 16.34375 C 19.554688 16.289062 19.535156 16.253906 19.515625 16.234375 C 19.550781 16.226562 19.597656 16.207031 19.65625 16.164062 C 19.710938 16.121094 19.773438 16.0625 19.828125 15.976562 C 19.882812 15.886719 19.925781 15.773438 19.941406 15.632812 C 19.953125 15.480469 19.933594 15.316406 19.863281 15.171875 Z M 18.046875 16.070312 C 18.144531 16.007812 18.230469 15.921875 18.300781 15.820312 C 18.367188 15.71875 18.417969 15.601562 18.433594 15.472656 C 18.449219 15.347656 18.429688 15.214844 18.378906 15.097656 C 18.324219 14.980469 18.238281 14.878906 18.132812 14.816406 C 18.109375 14.796875 18.085938 14.789062 18.074219 14.785156 C 18.058594 14.777344 18.054688 14.773438 18.054688 14.773438 C 18.054688 14.773438 18.058594 14.777344 18.066406 14.789062 C 18.074219 14.800781 18.085938 14.820312 18.101562 14.84375 C 18.167969 14.945312 18.214844 15.046875 18.246094 15.152344 C 18.28125 15.253906 18.300781 15.359375 18.296875 15.46875 C 18.296875 15.679688 18.21875 15.90625 18.046875 16.070312 C 18.023438 16.09375 18.019531 16.089844 18.046875 16.070312 Z M 17.78125 17.226562 C 17.621094 17.355469 17.410156 17.4375 17.183594 17.414062 C 17.152344 17.410156 17.152344 17.40625 17.183594 17.417969 C 17.292969 17.449219 17.40625 17.460938 17.523438 17.449219 C 17.640625 17.4375 17.753906 17.402344 17.859375 17.335938 C 17.960938 17.273438 18.050781 17.179688 18.109375 17.074219 C 18.167969 16.964844 18.195312 16.84375 18.191406 16.726562 C 18.191406 16.695312 18.1875 16.675781 18.183594 16.660156 C 18.179688 16.648438 18.179688 16.640625 18.179688 16.640625 C 18.183594 16.640625 18.171875 16.667969 18.148438 16.71875 C 18.101562 16.820312 18.050781 16.914062 17.988281 17 C 17.929688 17.085938 17.859375 17.164062 17.78125 17.226562 Z M 17.320312 13.480469 C 17.3125 13.46875 17.308594 13.453125 17.304688 13.4375 C 17.25 13.300781 17.136719 13.183594 17 13.109375 C 16.863281 13.035156 16.703125 13.007812 16.550781 13.03125 C 16.394531 13.054688 16.253906 13.125 16.136719 13.21875 C 16.023438 13.3125 15.933594 13.433594 15.878906 13.566406 C 15.863281 13.605469 15.863281 13.601562 15.882812 13.566406 C 15.953125 13.449219 16.058594 13.347656 16.179688 13.277344 C 16.300781 13.207031 16.433594 13.167969 16.566406 13.164062 C 16.695312 13.15625 16.824219 13.1875 16.941406 13.238281 C 17.0625 13.289062 17.171875 13.359375 17.265625 13.460938 C 17.289062 13.484375 17.308594 13.503906 17.320312 13.519531 C 17.328125 13.53125 17.332031 13.539062 17.332031 13.539062 C 17.332031 13.539062 17.328125 13.53125 17.324219 13.515625 C 17.324219 13.503906 17.320312 13.492188 17.320312 13.480469 Z M 15.738281 14.714844 C 15.671875 14.816406 15.632812 14.941406 15.625 15.066406 C 15.621094 15.1875 15.644531 15.3125 15.691406 15.421875 C 15.738281 15.53125 15.808594 15.628906 15.886719 15.710938 C 15.914062 15.734375 15.910156 15.734375 15.890625 15.707031 C 15.828125 15.617188 15.78125 15.511719 15.761719 15.402344 C 15.742188 15.292969 15.742188 15.179688 15.757812 15.074219 C 15.777344 14.972656 15.8125 14.875 15.863281 14.78125 C 15.910156 14.691406 15.964844 14.601562 16.039062 14.519531 C 16.058594 14.5 16.070312 14.480469 16.082031 14.472656 C 16.09375 14.460938 16.097656 14.460938 16.097656 14.460938 C 16.097656 14.460938 16.089844 14.460938 16.078125 14.464844 C 16.0625 14.46875 16.042969 14.472656 16.015625 14.484375 C 15.90625 14.527344 15.808594 14.609375 15.738281 14.714844 Z M 14.523438 14.691406 C 14.578125 14.605469 14.644531 14.523438 14.730469 14.453125 C 14.753906 14.433594 14.769531 14.421875 14.78125 14.410156 C 14.792969 14.402344 14.796875 14.402344 14.796875 14.402344 C 14.796875 14.402344 14.792969 14.402344 14.777344 14.40625 C 14.761719 14.40625 14.742188 14.40625 14.710938 14.414062 C 14.59375 14.441406 14.488281 14.515625 14.410156 14.613281 C 14.328125 14.710938 14.28125 14.832031 14.265625 14.957031 C 14.25 15.082031 14.269531 15.207031 14.308594 15.320312 C 14.351562 15.433594 14.414062 15.535156 14.488281 15.625 C 14.511719 15.648438 14.507812 15.648438 14.492188 15.621094 C 14.433594 15.523438 14.394531 15.414062 14.378906 15.300781 C 14.363281 15.191406 14.371094 15.078125 14.398438 14.976562 C 14.421875 14.875 14.46875 14.777344 14.523438 14.691406 Z M 18.65625 14.105469 C 18.753906 14.242188 18.832031 14.40625 18.855469 14.59375 C 18.859375 14.621094 18.859375 14.621094 18.859375 14.59375 C 18.867188 14.5 18.867188 14.40625 18.855469 14.3125 C 18.839844 14.214844 18.816406 14.121094 18.769531 14.03125 C 18.722656 13.941406 18.660156 13.863281 18.578125 13.800781 C 18.5 13.742188 18.402344 13.703125 18.304688 13.695312 C 18.28125 13.695312 18.261719 13.695312 18.25 13.695312 C 18.238281 13.695312 18.230469 13.695312 18.230469 13.695312 C 18.234375 13.691406 18.253906 13.707031 18.289062 13.734375 C 18.4375 13.851562 18.558594 13.964844 18.65625 14.105469 Z M 15.394531 13.234375 C 15.382812 13.234375 15.367188 13.230469 15.34375 13.234375 C 15.253906 13.238281 15.160156 13.269531 15.082031 13.324219 C 15.003906 13.382812 14.941406 13.457031 14.902344 13.546875 C 14.824219 13.722656 14.84375 13.933594 14.929688 14.082031 C 14.945312 14.105469 14.941406 14.105469 14.933594 14.082031 C 14.910156 14 14.90625 13.914062 14.925781 13.832031 C 14.941406 13.75 14.976562 13.671875 15.023438 13.605469 C 15.066406 13.539062 15.121094 13.484375 15.175781 13.429688 C 15.230469 13.378906 15.289062 13.328125 15.359375 13.273438 C 15.390625 13.246094 15.410156 13.234375 15.410156 13.234375 C 15.410156 13.234375 15.40625 13.238281 15.394531 13.234375 Z M 15.410156 16.449219 C 15.375 16.410156 15.359375 16.390625 15.363281 16.386719 C 15.363281 16.386719 15.363281 16.394531 15.367188 16.40625 C 15.367188 16.421875 15.367188 16.441406 15.371094 16.46875 C 15.394531 16.574219 15.445312 16.679688 15.523438 16.761719 C 15.601562 16.847656 15.699219 16.910156 15.808594 16.945312 C 16.027344 17.019531 16.269531 16.976562 16.441406 16.859375 C 16.46875 16.839844 16.46875 16.84375 16.441406 16.855469 C 16.347656 16.894531 16.242188 16.910156 16.140625 16.902344 C 16.039062 16.894531 15.941406 16.863281 15.855469 16.820312 C 15.769531 16.777344 15.691406 16.722656 15.617188 16.660156 C 15.546875 16.597656 15.476562 16.527344 15.410156 16.449219 Z M 15.410156 16.449219 " fill-opacity="1" fill-rule="nonzero"/><path fill="#db5275" d="M 16.019531 7.683594 L 16.003906 7.839844 C 16.003906 7.84375 16.003906 7.851562 16.003906 7.859375 C 16.003906 7.863281 16 7.871094 16 7.878906 L 16 7.886719 C 15.871094 8.984375 14.765625 9.769531 13.519531 9.636719 C 12.269531 9.507812 11.347656 8.511719 11.445312 7.410156 L 11.464844 7.210938 C 11.554688 6.351562 12.3125 5.726562 13.160156 5.816406 C 13.285156 5.828125 13.402344 5.863281 13.507812 5.914062 C 13.75 6.03125 14.027344 6.0625 14.285156 5.996094 C 14.402344 5.964844 14.523438 5.957031 14.648438 5.96875 C 15.496094 6.058594 16.109375 6.824219 16.019531 7.683594 Z M 16.019531 7.683594 " fill-opacity="1" fill-rule="nonzero"/><g clip-path="url(#73391adb8a)"><path fill="#56091f" d="M 15.996094 7.910156 L 16.003906 7.914062 L 15.992188 7.914062 Z M 16.023438 7.886719 L 15.992188 7.90625 L 15.996094 7.910156 L 16.015625 7.898438 C 16.015625 7.894531 16.019531 7.890625 16.023438 7.886719 Z M 16.003906 7.914062 L 16.007812 7.917969 C 16.007812 7.914062 16.007812 7.914062 16.007812 7.914062 Z M 14.683594 3.03125 C 14.992188 2.386719 15.398438 1.792969 15.917969 1.296875 C 16.089844 1.132812 16.546875 0.84375 16.292969 0.558594 C 16.167969 0.421875 16.003906 0.5 15.878906 0.589844 C 15.742188 0.6875 15.621094 0.808594 15.515625 0.941406 C 15.140625 1.40625 14.875 1.953125 14.648438 2.503906 C 14.40625 3.097656 14.214844 3.710938 14.058594 4.328125 C 13.929688 4.851562 13.820312 5.378906 13.746094 5.910156 C 13.683594 5.894531 13.625 5.871094 13.566406 5.84375 C 13.449219 5.785156 13.3125 5.742188 13.179688 5.730469 C 13.113281 5.726562 13.046875 5.71875 12.980469 5.722656 C 12.914062 5.726562 12.847656 5.726562 12.78125 5.738281 C 12.519531 5.773438 12.265625 5.875 12.050781 6.035156 C 12.023438 6.054688 12 6.074219 11.972656 6.097656 L 11.898438 6.164062 C 11.847656 6.207031 11.808594 6.261719 11.761719 6.308594 C 11.679688 6.414062 11.601562 6.523438 11.546875 6.644531 C 11.53125 6.671875 11.519531 6.703125 11.503906 6.734375 L 11.472656 6.828125 C 11.445312 6.890625 11.433594 6.957031 11.417969 7.019531 C 11.402344 7.082031 11.394531 7.148438 11.386719 7.214844 L 11.367188 7.402344 L 11.355469 7.5 L 11.359375 7.5 C 11.351562 7.753906 11.394531 8.007812 11.484375 8.242188 C 11.585938 8.507812 11.742188 8.75 11.9375 8.953125 C 12.324219 9.363281 12.855469 9.617188 13.40625 9.691406 C 13.957031 9.769531 14.535156 9.675781 15.015625 9.394531 C 15.257812 9.257812 15.476562 9.078125 15.648438 8.855469 C 15.820312 8.640625 15.949219 8.382812 16.011719 8.109375 C 16.03125 8.011719 16.035156 7.941406 16.035156 7.910156 L 16.039062 7.910156 L 16.035156 7.898438 C 16.035156 7.898438 16.035156 7.894531 16.035156 7.894531 L 16.03125 7.890625 C 16.03125 7.882812 16.027344 7.882812 16.023438 7.886719 L 16.019531 7.898438 L 16.015625 7.898438 C 16.011719 7.902344 16.011719 7.910156 16.007812 7.914062 L 16.011719 7.914062 L 16.007812 7.917969 C 15.996094 7.953125 15.980469 8.011719 15.964844 8.097656 C 15.898438 8.363281 15.773438 8.609375 15.601562 8.820312 C 15.429688 9.03125 15.214844 9.203125 14.980469 9.335938 C 14.507812 9.601562 13.949219 9.679688 13.417969 9.597656 C 12.890625 9.519531 12.382812 9.269531 12.019531 8.875 C 11.839844 8.679688 11.695312 8.449219 11.605469 8.199219 C 11.511719 7.949219 11.476562 7.679688 11.503906 7.417969 L 11.507812 7.390625 L 11.523438 7.230469 C 11.535156 7.167969 11.542969 7.109375 11.554688 7.050781 C 11.574219 6.992188 11.582031 6.929688 11.605469 6.875 L 11.636719 6.789062 C 11.648438 6.761719 11.664062 6.734375 11.679688 6.707031 C 11.730469 6.597656 11.800781 6.5 11.875 6.40625 C 11.957031 6.316406 12.042969 6.230469 12.140625 6.160156 C 12.335938 6.019531 12.566406 5.929688 12.804688 5.898438 C 12.863281 5.886719 12.921875 5.886719 12.980469 5.882812 C 13.042969 5.882812 13.101562 5.890625 13.160156 5.894531 C 13.277344 5.90625 13.386719 5.941406 13.496094 5.996094 C 13.570312 6.03125 13.644531 6.058594 13.726562 6.078125 C 13.714844 6.152344 13.707031 6.230469 13.695312 6.308594 C 13.679688 6.445312 13.898438 6.445312 13.914062 6.308594 C 13.921875 6.242188 13.933594 6.175781 13.941406 6.109375 C 14.054688 6.117188 14.171875 6.109375 14.28125 6.085938 C 14.402344 6.054688 14.511719 6.042969 14.628906 6.054688 C 14.6875 6.0625 14.746094 6.070312 14.804688 6.082031 C 14.863281 6.101562 14.921875 6.109375 14.976562 6.132812 C 15.425781 6.292969 15.78125 6.6875 15.894531 7.148438 C 15.953125 7.382812 15.953125 7.5625 15.960938 7.6875 C 15.964844 7.8125 15.980469 7.878906 16.003906 7.882812 C 16.023438 7.882812 16.050781 7.820312 16.082031 7.699219 C 16.105469 7.570312 16.128906 7.367188 16.0625 7.105469 C 15.9375 6.589844 15.539062 6.148438 15.035156 5.972656 C 14.976562 5.945312 14.910156 5.933594 14.84375 5.914062 C 14.78125 5.902344 14.714844 5.894531 14.648438 5.882812 C 14.515625 5.871094 14.371094 5.886719 14.25 5.917969 C 14.15625 5.941406 14.058594 5.949219 13.960938 5.941406 C 14.097656 4.957031 14.34375 3.976562 14.679688 3.042969 C 14.675781 3.039062 14.679688 3.035156 14.683594 3.03125 Z M 13.046875 13.957031 C 12.28125 13.550781 11.511719 13.140625 10.742188 12.734375 C 9.972656 12.324219 9.210938 11.90625 8.460938 11.460938 C 8.371094 11.40625 8.304688 11.363281 8.261719 11.335938 C 8.214844 11.308594 8.191406 11.296875 8.191406 11.296875 C 8.191406 11.296875 8.214844 11.308594 8.265625 11.328125 C 8.3125 11.34375 8.390625 11.371094 8.488281 11.410156 C 9.296875 11.738281 10.070312 12.144531 10.820312 12.585938 C 11.574219 13.03125 12.308594 13.5 13.050781 13.949219 C 13.15625 14.015625 13.15625 14.011719 13.046875 13.957031 Z M 13.046875 13.957031 " fill-opacity="1" fill-rule="nonzero"/></g><path fill="#f9aabb" d="M 2.605469 14.175781 C 2.90625 14.027344 3.207031 13.886719 3.496094 13.753906 C 3.605469 13.703125 3.710938 13.652344 3.816406 13.605469 C 3.929688 13.601562 4.039062 13.601562 4.152344 13.597656 C 4.726562 13.585938 5.300781 13.589844 5.875 13.609375 C 6.585938 13.632812 7.273438 13.695312 7.957031 13.816406 C 8.25 13.960938 8.527344 14.105469 8.789062 14.25 C 7.800781 14.257812 6.816406 14.230469 5.828125 14.207031 C 5.25 14.195312 4.675781 14.195312 4.097656 14.214844 C 3.59375 14.230469 3.101562 14.269531 2.605469 14.175781 Z M 11.28125 15.746094 C 11.238281 15.71875 11.191406 15.6875 11.144531 15.65625 C 10.464844 15.457031 9.738281 15.363281 9.042969 15.269531 C 8.097656 15.140625 7.140625 15.078125 6.1875 15.039062 C 5.277344 15 4.371094 14.992188 3.460938 14.996094 C 2.808594 15 2.097656 14.941406 1.429688 15.042969 C 1.289062 15.226562 1.171875 15.429688 1.089844 15.648438 C 1.839844 15.800781 2.664062 15.695312 3.417969 15.6875 C 4.328125 15.679688 5.238281 15.6875 6.148438 15.710938 C 7.054688 15.734375 7.960938 15.789062 8.867188 15.84375 C 9.78125 15.902344 10.703125 16.058594 11.617188 16.058594 C 11.621094 16.058594 11.625 16.058594 11.625 16.054688 C 11.605469 16.027344 11.578125 16.003906 11.554688 15.976562 C 11.472656 15.890625 11.382812 15.8125 11.28125 15.746094 Z M 10.464844 17.035156 C 9.347656 16.765625 8.199219 16.679688 7.054688 16.621094 C 6.480469 16.59375 5.90625 16.582031 5.328125 16.582031 C 4.816406 16.582031 4.230469 16.539062 3.773438 16.816406 C 3.726562 16.847656 3.730469 16.917969 3.777344 16.941406 C 4.230469 17.183594 4.785156 17.128906 5.28125 17.128906 C 5.859375 17.128906 6.433594 17.140625 7.011719 17.152344 C 8.15625 17.171875 9.304688 17.25 10.449219 17.21875 C 10.550781 17.214844 10.5625 17.058594 10.464844 17.035156 Z M 10.960938 8.511719 C 11.042969 8.613281 11.144531 8.695312 11.253906 8.757812 C 11.308594 8.789062 11.371094 8.816406 11.433594 8.832031 C 11.488281 8.847656 11.558594 8.867188 11.613281 8.851562 C 11.640625 8.84375 11.636719 8.804688 11.617188 8.792969 C 11.570312 8.761719 11.507812 8.753906 11.457031 8.734375 C 11.40625 8.710938 11.351562 8.6875 11.304688 8.660156 C 11.203125 8.601562 11.113281 8.519531 11.039062 8.429688 C 10.960938 8.339844 10.898438 8.230469 10.855469 8.117188 C 10.808594 8 10.789062 7.875 10.742188 7.757812 C 10.734375 7.742188 10.710938 7.738281 10.707031 7.761719 C 10.679688 7.894531 10.714844 8.03125 10.761719 8.160156 C 10.808594 8.285156 10.875 8.40625 10.960938 8.511719 Z M 11.140625 9.800781 C 11.597656 9.890625 12.078125 9.816406 12.496094 9.613281 C 12.542969 9.589844 12.515625 9.511719 12.464844 9.535156 C 12.058594 9.71875 11.601562 9.765625 11.164062 9.679688 C 10.960938 9.636719 10.761719 9.566406 10.578125 9.464844 C 10.402344 9.371094 10.242188 9.246094 10.066406 9.144531 C 10.050781 9.132812 10.035156 9.15625 10.042969 9.171875 C 10.265625 9.53125 10.742188 9.722656 11.140625 9.800781 Z M 13.476562 9.96875 C 13.511719 9.925781 13.449219 9.882812 13.414062 9.917969 C 13.117188 10.203125 12.738281 10.410156 12.34375 10.515625 C 12.117188 10.574219 11.882812 10.609375 11.648438 10.621094 C 11.414062 10.628906 11.179688 10.621094 10.945312 10.636719 C 10.914062 10.636719 10.914062 10.679688 10.941406 10.6875 C 11.402344 10.84375 11.949219 10.800781 12.410156 10.660156 C 12.824219 10.53125 13.199219 10.304688 13.476562 9.96875 Z M 16.90625 10 C 16.875 9.820312 16.828125 9.640625 16.757812 9.472656 C 16.617188 9.132812 16.414062 8.839844 16.136719 8.597656 C 16.085938 8.554688 16.015625 8.628906 16.066406 8.679688 C 16.304688 8.917969 16.5 9.214844 16.625 9.53125 C 16.683594 9.683594 16.730469 9.84375 16.757812 10.007812 C 16.785156 10.167969 16.777344 10.347656 16.835938 10.5 C 16.84375 10.523438 16.875 10.527344 16.886719 10.503906 C 16.957031 10.355469 16.929688 10.160156 16.90625 10 Z M 15.410156 9.253906 C 15.390625 9.230469 15.355469 9.257812 15.367188 9.28125 C 15.480469 9.574219 15.589844 9.867188 15.613281 10.183594 C 15.621094 10.339844 15.613281 10.496094 15.585938 10.648438 C 15.5625 10.796875 15.5 10.941406 15.5 11.089844 C 15.496094 11.121094 15.535156 11.128906 15.550781 11.109375 C 15.660156 11 15.699219 10.8125 15.726562 10.664062 C 15.75 10.496094 15.757812 10.328125 15.746094 10.160156 C 15.71875 9.835938 15.628906 9.503906 15.410156 9.253906 Z M 14.472656 9.78125 C 14.425781 9.875 14.40625 9.976562 14.375 10.074219 C 14.339844 10.179688 14.300781 10.28125 14.25 10.382812 C 14.15625 10.578125 14.03125 10.753906 13.886719 10.917969 C 13.746094 11.078125 13.582031 11.21875 13.398438 11.335938 C 13.308594 11.390625 13.214844 11.441406 13.121094 11.488281 C 13.046875 11.523438 12.921875 11.574219 12.898438 11.660156 C 12.894531 11.675781 12.90625 11.695312 12.917969 11.707031 C 12.996094 11.765625 13.136719 11.710938 13.214844 11.675781 C 13.324219 11.628906 13.425781 11.570312 13.519531 11.503906 C 13.707031 11.378906 13.878906 11.21875 14.023438 11.046875 C 14.167969 10.871094 14.285156 10.671875 14.375 10.464844 C 14.460938 10.269531 14.570312 10.007812 14.523438 9.792969 C 14.515625 9.765625 14.488281 9.757812 14.472656 9.78125 Z M 15.613281 7.265625 C 15.585938 7.074219 15.535156 6.882812 15.441406 6.699219 C 15.390625 6.609375 15.335938 6.523438 15.265625 6.445312 C 15.199219 6.371094 15.113281 6.296875 15 6.253906 C 14.945312 6.234375 14.902344 6.28125 14.894531 6.335938 C 14.886719 6.390625 14.894531 6.445312 14.925781 6.457031 C 15.0625 6.515625 15.195312 6.65625 15.300781 6.796875 C 15.410156 6.941406 15.496094 7.105469 15.550781 7.28125 C 15.558594 7.304688 15.617188 7.292969 15.613281 7.265625 Z M 15.613281 7.265625 " fill-opacity="1" fill-rule="nonzero"/><path fill="#dd7b4a" d="M 20.097656 16.886719 C 20.160156 17.421875 19.703125 17.808594 19.296875 18.070312 C 19.09375 18.207031 18.875 17.882812 19.085938 17.761719 C 19.46875 17.539062 19.75 17.265625 19.9375 16.855469 C 19.972656 16.777344 20.089844 16.804688 20.097656 16.886719 Z M 19.457031 18.679688 C 19.070312 18.707031 18.703125 18.726562 18.351562 18.527344 C 18.132812 18.402344 17.945312 18.769531 18.171875 18.878906 C 18.589844 19.074219 19.15625 19.121094 19.484375 18.734375 C 19.503906 18.714844 19.484375 18.675781 19.457031 18.679688 Z M 17.234375 18.820312 C 17.199219 18.792969 17.140625 18.824219 17.148438 18.871094 C 17.199219 19.195312 17.128906 19.511719 16.953125 19.78125 C 16.816406 19.996094 17.175781 20.167969 17.3125 19.953125 C 17.539062 19.585938 17.59375 19.117188 17.234375 18.820312 Z M 21.320312 17.824219 C 20.925781 17.675781 20.449219 17.957031 20.210938 18.277344 C 20.078125 18.453125 20.335938 18.683594 20.464844 18.503906 C 20.65625 18.246094 20.988281 17.980469 21.308594 17.910156 C 21.347656 17.902344 21.371094 17.839844 21.320312 17.824219 Z M 13.585938 17.382812 C 13.4375 17.339844 13.3125 17.390625 13.164062 17.414062 C 12.996094 17.441406 12.824219 17.429688 12.65625 17.398438 C 12.460938 17.359375 12.40625 17.660156 12.601562 17.703125 C 12.894531 17.773438 13.488281 17.796875 13.617188 17.441406 C 13.625 17.414062 13.613281 17.390625 13.585938 17.382812 Z M 12.988281 17.105469 C 13.054688 16.988281 13.085938 16.851562 13.148438 16.730469 C 13.21875 16.589844 13.285156 16.464844 13.398438 16.359375 C 13.457031 16.308594 13.398438 16.230469 13.332031 16.265625 C 13.058594 16.414062 12.714844 16.65625 12.691406 17.007812 C 12.683594 17.183594 12.894531 17.265625 12.988281 17.105469 Z M 12.265625 18.457031 C 11.992188 18.425781 11.667969 18.121094 11.609375 17.851562 C 11.566406 17.644531 11.234375 17.746094 11.292969 17.957031 C 11.410156 18.394531 11.824219 18.621094 12.257812 18.589844 C 12.328125 18.582031 12.339844 18.46875 12.265625 18.457031 Z M 13.277344 18.867188 C 13.179688 18.8125 13.109375 18.683594 13.058594 18.589844 C 13.007812 18.492188 12.941406 18.382812 12.902344 18.277344 C 12.871094 18.183594 12.738281 18.203125 12.71875 18.292969 C 12.6875 18.476562 12.679688 18.628906 12.761719 18.804688 C 12.835938 18.972656 12.957031 19.121094 13.113281 19.21875 C 13.324219 19.34375 13.492188 18.988281 13.277344 18.867188 Z M 15.640625 19.847656 C 15.40625 19.777344 15.324219 20.183594 15.574219 20.234375 C 15.710938 20.261719 15.839844 20.273438 15.96875 20.328125 C 16.09375 20.378906 16.199219 20.464844 16.308594 20.542969 C 16.363281 20.582031 16.460938 20.53125 16.425781 20.460938 C 16.269531 20.125 15.984375 19.953125 15.640625 19.847656 Z M 16.515625 18.847656 C 16.464844 19.058594 16.296875 19.246094 16.085938 19.300781 C 15.886719 19.347656 15.652344 19.296875 15.480469 19.1875 C 15.378906 19.347656 15.210938 19.46875 15.042969 19.535156 C 14.863281 19.609375 14.601562 19.640625 14.449219 19.5 C 14.289062 19.355469 14.316406 19.089844 14.375 18.886719 C 14.132812 18.910156 13.890625 18.792969 13.773438 18.570312 C 13.65625 18.34375 13.667969 18.011719 13.921875 17.890625 C 13.941406 17.878906 13.960938 17.914062 13.941406 17.929688 C 13.855469 17.988281 13.820312 18.132812 13.808594 18.234375 C 13.800781 18.339844 13.824219 18.457031 13.878906 18.546875 C 13.996094 18.742188 14.226562 18.824219 14.441406 18.773438 C 14.484375 18.765625 14.503906 18.816406 14.492188 18.84375 C 14.433594 19.003906 14.378906 19.257812 14.488281 19.402344 C 14.601562 19.554688 14.859375 19.507812 15.007812 19.449219 C 15.171875 19.382812 15.339844 19.265625 15.425781 19.105469 C 15.4375 19.078125 15.46875 19.070312 15.492188 19.089844 C 15.816406 19.332031 16.355469 19.277344 16.472656 18.839844 C 16.480469 18.816406 16.519531 18.824219 16.515625 18.847656 Z M 16.515625 18.847656 " fill-opacity="1" fill-rule="nonzero"/><path fill="#faefd6" d="M 22.96875 6.910156 C 21.019531 6.910156 20.601562 7.328125 20.601562 9.285156 C 20.601562 7.328125 20.183594 6.910156 18.234375 6.910156 C 20.183594 6.910156 20.601562 6.488281 20.601562 4.53125 C 20.597656 6.488281 21.015625 6.910156 22.96875 6.910156 Z M 5.316406 9.40625 C 5.316406 10.710938 5.039062 10.988281 3.742188 10.988281 C 5.039062 10.988281 5.316406 11.269531 5.316406 12.574219 C 5.316406 11.269531 5.59375 10.988281 6.894531 10.988281 C 5.59375 10.988281 5.316406 10.710938 5.316406 9.40625 Z M 14.261719 12.007812 C 14.261719 13.015625 14.046875 13.230469 13.042969 13.230469 C 14.046875 13.230469 14.261719 13.449219 14.261719 14.457031 C 14.261719 13.449219 14.476562 13.230469 15.480469 13.230469 C 14.476562 13.234375 14.261719 13.015625 14.261719 12.007812 Z M 24.71875 23.542969 C 24.71875 24.550781 24.503906 24.765625 23.5 24.765625 C 24.503906 24.765625 24.71875 24.980469 24.71875 25.988281 C 24.71875 24.980469 24.933594 24.765625 25.9375 24.765625 C 24.933594 24.765625 24.71875 24.550781 24.71875 23.542969 Z M 8.789062 4.179688 C 8.789062 5.1875 8.574219 5.402344 7.570312 5.402344 C 8.574219 5.402344 8.789062 5.617188 8.789062 6.625 C 8.789062 5.617188 9.003906 5.402344 10.007812 5.402344 C 9.003906 5.402344 8.789062 5.1875 8.789062 4.179688 Z M 8.789062 4.179688 " fill-opacity="1" fill-rule="nonzero"/><path fill="#56091f" d="M 10.035156 5.359375 C 9.730469 5.359375 9.316406 5.375 9.082031 5.136719 C 8.851562 4.894531 8.859375 4.480469 8.859375 4.171875 C 8.859375 4.109375 8.722656 4.132812 8.722656 4.1875 C 8.71875 4.488281 8.734375 4.902344 8.511719 5.140625 C 8.296875 5.375 7.886719 5.359375 7.597656 5.359375 C 7.570312 5.359375 7.519531 5.367188 7.507812 5.398438 C 7.496094 5.425781 7.515625 5.445312 7.546875 5.445312 C 7.847656 5.449219 8.265625 5.433594 8.496094 5.667969 C 8.730469 5.910156 8.71875 6.324219 8.722656 6.632812 C 8.722656 6.65625 8.742188 6.667969 8.765625 6.671875 C 8.769531 6.671875 8.777344 6.671875 8.785156 6.671875 C 8.785156 6.671875 8.789062 6.671875 8.789062 6.671875 C 8.824219 6.664062 8.859375 6.644531 8.859375 6.617188 C 8.859375 6.316406 8.84375 5.902344 9.066406 5.664062 C 9.285156 5.429688 9.691406 5.449219 9.984375 5.445312 C 10.011719 5.445312 10.0625 5.4375 10.074219 5.40625 C 10.085938 5.378906 10.0625 5.359375 10.035156 5.359375 Z M 9.132812 5.5 C 8.957031 5.59375 8.851562 5.746094 8.796875 5.925781 C 8.777344 5.863281 8.753906 5.804688 8.722656 5.746094 C 8.609375 5.539062 8.398438 5.441406 8.175781 5.398438 C 8.269531 5.378906 8.359375 5.347656 8.445312 5.304688 C 8.621094 5.210938 8.726562 5.058594 8.785156 4.878906 C 8.804688 4.9375 8.828125 5 8.855469 5.058594 C 8.96875 5.265625 9.179688 5.363281 9.40625 5.40625 C 9.3125 5.425781 9.21875 5.453125 9.132812 5.5 Z M 25.964844 24.722656 C 25.660156 24.722656 25.242188 24.738281 25.011719 24.5 C 24.777344 24.261719 24.789062 23.84375 24.789062 23.535156 C 24.789062 23.472656 24.648438 23.496094 24.648438 23.550781 C 24.648438 23.851562 24.664062 24.265625 24.441406 24.503906 C 24.222656 24.738281 23.816406 24.722656 23.527344 24.722656 C 23.496094 24.722656 23.449219 24.730469 23.433594 24.761719 C 23.425781 24.789062 23.445312 24.8125 23.476562 24.8125 C 23.777344 24.8125 24.195312 24.796875 24.425781 25.035156 C 24.660156 25.273438 24.648438 25.6875 24.648438 25.996094 C 24.648438 26.019531 24.667969 26.03125 24.695312 26.035156 C 24.699219 26.035156 24.707031 26.035156 24.714844 26.035156 C 24.714844 26.035156 24.71875 26.035156 24.71875 26.035156 C 24.753906 26.03125 24.789062 26.007812 24.789062 25.984375 C 24.789062 25.683594 24.773438 25.265625 24.996094 25.027344 C 25.214844 24.796875 25.621094 24.8125 25.910156 24.8125 C 25.941406 24.8125 25.992188 24.800781 26.003906 24.769531 C 26.011719 24.742188 25.992188 24.722656 25.964844 24.722656 Z M 25.0625 24.863281 C 24.886719 24.957031 24.78125 25.109375 24.722656 25.292969 C 24.707031 25.230469 24.683594 25.167969 24.652344 25.113281 C 24.539062 24.902344 24.328125 24.804688 24.105469 24.765625 C 24.105469 24.765625 24.101562 24.765625 24.101562 24.765625 C 24.199219 24.742188 24.289062 24.714844 24.375 24.667969 C 24.550781 24.578125 24.65625 24.421875 24.714844 24.242188 C 24.734375 24.304688 24.757812 24.363281 24.785156 24.421875 C 24.898438 24.628906 25.109375 24.726562 25.335938 24.769531 C 25.242188 24.789062 25.148438 24.820312 25.0625 24.863281 Z M 15.503906 13.1875 C 15.203125 13.1875 14.785156 13.203125 14.554688 12.964844 C 14.320312 12.726562 14.332031 12.308594 14.332031 12 C 14.332031 11.9375 14.191406 11.964844 14.191406 12.015625 C 14.191406 12.316406 14.207031 12.730469 13.984375 12.96875 C 13.765625 13.203125 13.359375 13.1875 13.066406 13.1875 C 13.039062 13.1875 12.988281 13.195312 12.976562 13.226562 C 12.964844 13.257812 12.988281 13.277344 13.015625 13.277344 C 13.320312 13.277344 13.738281 13.261719 13.96875 13.5 C 14.203125 13.738281 14.191406 14.15625 14.191406 14.464844 C 14.191406 14.488281 14.210938 14.5 14.234375 14.5 C 14.242188 14.5 14.25 14.5 14.253906 14.5 C 14.257812 14.5 14.257812 14.5 14.261719 14.5 C 14.296875 14.496094 14.332031 14.476562 14.332031 14.449219 C 14.332031 14.148438 14.316406 13.734375 14.539062 13.496094 C 14.757812 13.261719 15.164062 13.277344 15.453125 13.277344 C 15.484375 13.277344 15.53125 13.269531 15.542969 13.238281 C 15.554688 13.207031 15.535156 13.1875 15.503906 13.1875 Z M 14.605469 13.328125 C 14.429688 13.421875 14.324219 13.578125 14.265625 13.757812 C 14.246094 13.695312 14.222656 13.632812 14.195312 13.578125 C 14.082031 13.367188 13.871094 13.273438 13.644531 13.230469 C 13.738281 13.210938 13.832031 13.179688 13.917969 13.136719 C 14.09375 13.042969 14.199219 12.890625 14.253906 12.707031 C 14.273438 12.769531 14.296875 12.832031 14.328125 12.886719 C 14.441406 13.097656 14.652344 13.195312 14.875 13.234375 C 14.78125 13.257812 14.691406 13.285156 14.605469 13.328125 Z M 6.917969 10.945312 C 6.570312 10.945312 6.167969 10.953125 5.851562 10.78125 C 5.597656 10.648438 5.484375 10.386719 5.4375 10.113281 C 5.394531 9.878906 5.386719 9.636719 5.386719 9.398438 C 5.386719 9.335938 5.246094 9.363281 5.246094 9.414062 C 5.246094 9.761719 5.253906 10.164062 5.089844 10.484375 C 4.964844 10.738281 4.722656 10.851562 4.457031 10.898438 C 4.230469 10.941406 3.996094 10.945312 3.765625 10.945312 C 3.738281 10.945312 3.6875 10.953125 3.675781 10.984375 C 3.664062 11.015625 3.6875 11.035156 3.714844 11.035156 C 4.0625 11.035156 4.464844 11.027344 4.78125 11.195312 C 5.039062 11.332031 5.148438 11.59375 5.199219 11.867188 C 5.242188 12.101562 5.246094 12.34375 5.25 12.582031 C 5.25 12.605469 5.269531 12.617188 5.292969 12.617188 C 5.332031 12.621094 5.386719 12.597656 5.386719 12.566406 C 5.386719 12.214844 5.382812 11.816406 5.542969 11.496094 C 5.671875 11.242188 5.910156 11.128906 6.179688 11.082031 C 6.40625 11.039062 6.636719 11.035156 6.867188 11.035156 C 6.898438 11.035156 6.945312 11.027344 6.957031 10.996094 C 6.96875 10.964844 6.949219 10.945312 6.917969 10.945312 Z M 5.769531 11.125 C 5.523438 11.257812 5.390625 11.480469 5.324219 11.742188 C 5.296875 11.636719 5.261719 11.539062 5.210938 11.445312 C 5.066406 11.175781 4.792969 11.050781 4.503906 10.996094 C 4.488281 10.996094 4.46875 10.992188 4.453125 10.988281 C 4.597656 10.964844 4.738281 10.921875 4.867188 10.851562 C 5.113281 10.722656 5.246094 10.496094 5.3125 10.238281 C 5.339844 10.34375 5.375 10.441406 5.425781 10.535156 C 5.570312 10.804688 5.84375 10.929688 6.128906 10.980469 C 6.148438 10.984375 6.167969 10.984375 6.183594 10.988281 C 6.039062 11.015625 5.898438 11.058594 5.769531 11.125 Z M 22.992188 6.867188 C 22.667969 6.867188 22.34375 6.855469 22.023438 6.808594 C 21.800781 6.777344 21.570312 6.722656 21.371094 6.613281 C 20.980469 6.402344 20.8125 6.003906 20.738281 5.585938 C 20.679688 5.238281 20.667969 4.878906 20.667969 4.523438 C 20.667969 4.460938 20.53125 4.484375 20.53125 4.539062 C 20.53125 4.855469 20.523438 5.175781 20.476562 5.492188 C 20.445312 5.722656 20.394531 5.953125 20.289062 6.160156 C 20.089844 6.546875 19.71875 6.71875 19.308594 6.792969 C 18.964844 6.855469 18.609375 6.863281 18.257812 6.863281 C 18.230469 6.863281 18.179688 6.875 18.167969 6.90625 C 18.15625 6.933594 18.175781 6.953125 18.207031 6.953125 C 18.53125 6.953125 18.855469 6.960938 19.175781 7.007812 C 19.398438 7.042969 19.628906 7.09375 19.828125 7.207031 C 20.21875 7.414062 20.386719 7.8125 20.460938 8.230469 C 20.519531 8.582031 20.53125 8.941406 20.53125 9.292969 C 20.53125 9.316406 20.550781 9.328125 20.574219 9.332031 C 20.582031 9.332031 20.585938 9.332031 20.59375 9.332031 C 20.59375 9.332031 20.597656 9.332031 20.601562 9.332031 C 20.636719 9.328125 20.667969 9.304688 20.667969 9.28125 C 20.667969 8.960938 20.679688 8.640625 20.722656 8.324219 C 20.753906 8.097656 20.804688 7.863281 20.910156 7.65625 C 21.109375 7.273438 21.480469 7.097656 21.890625 7.023438 C 22.234375 6.960938 22.589844 6.953125 22.941406 6.953125 C 22.96875 6.953125 23.019531 6.945312 23.03125 6.914062 C 23.042969 6.882812 23.023438 6.867188 22.992188 6.867188 Z M 21.289062 7.132812 C 20.882812 7.351562 20.691406 7.75 20.605469 8.1875 C 20.605469 8.199219 20.605469 8.210938 20.601562 8.21875 C 20.566406 8.003906 20.507812 7.792969 20.40625 7.601562 C 20.191406 7.203125 19.785156 7.019531 19.359375 6.941406 C 19.289062 6.929688 19.222656 6.917969 19.152344 6.910156 C 19.421875 6.875 19.679688 6.808594 19.914062 6.683594 C 20.316406 6.464844 20.511719 6.070312 20.59375 5.628906 C 20.59375 5.621094 20.597656 5.609375 20.597656 5.597656 C 20.632812 5.8125 20.691406 6.023438 20.792969 6.21875 C 21.007812 6.617188 21.414062 6.796875 21.839844 6.875 C 21.910156 6.886719 21.976562 6.898438 22.046875 6.90625 C 21.78125 6.945312 21.519531 7.011719 21.289062 7.132812 Z M 21.289062 7.132812 " fill-opacity="1" fill-rule="nonzero"/></svg>