<svg xmlns="http://www.w3.org/2000/svg" xmlns:xlink="http://www.w3.org/1999/xlink" width="100" zoomAndPan="magnify" viewBox="0 0 75 74.999997" height="100" preserveAspectRatio="xMidYMid meet" version="1.0"><defs><clipPath id="2fc5c99f7b"><path d="M 75 37.5 C 75 38.730469 74.941406 39.953125 74.820312 41.175781 C 74.699219 42.398438 74.519531 43.613281 74.28125 44.816406 C 74.042969 46.019531 73.742188 47.210938 73.386719 48.386719 C 73.03125 49.5625 72.617188 50.71875 72.148438 51.851562 C 71.675781 52.984375 71.152344 54.09375 70.574219 55.179688 C 69.996094 56.261719 69.363281 57.3125 68.679688 58.335938 C 68 59.355469 67.269531 60.339844 66.488281 61.289062 C 65.710938 62.242188 64.886719 63.148438 64.019531 64.019531 C 63.148438 64.886719 62.242188 65.710938 61.289062 66.488281 C 60.339844 67.269531 59.355469 68 58.335938 68.679688 C 57.3125 69.363281 56.261719 69.996094 55.179688 70.574219 C 54.09375 71.152344 52.984375 71.675781 51.851562 72.148438 C 50.71875 72.617188 49.5625 73.03125 48.386719 73.386719 C 47.210938 73.742188 46.019531 74.042969 44.816406 74.28125 C 43.613281 74.519531 42.398438 74.699219 41.175781 74.820312 C 39.953125 74.941406 38.730469 75 37.5 75 C 36.273438 75 35.046875 74.941406 33.824219 74.820312 C 32.601562 74.699219 31.390625 74.519531 30.183594 74.28125 C 28.980469 74.042969 27.789062 73.742188 26.613281 73.386719 C 25.441406 73.03125 24.285156 72.617188 23.148438 72.148438 C 22.015625 71.675781 20.90625 71.152344 19.824219 70.574219 C 18.738281 69.996094 17.6875 69.363281 16.667969 68.679688 C 15.644531 68 14.660156 67.269531 13.710938 66.488281 C 12.761719 65.710938 11.851562 64.886719 10.984375 64.019531 C 10.117188 63.148438 9.292969 62.242188 8.511719 61.289062 C 7.734375 60.339844 7.003906 59.355469 6.320312 58.335938 C 5.636719 57.3125 5.007812 56.261719 4.429688 55.179688 C 3.847656 54.09375 3.324219 52.984375 2.855469 51.851562 C 2.382812 50.71875 1.972656 49.5625 1.613281 48.386719 C 1.257812 47.210938 0.960938 46.019531 0.71875 44.816406 C 0.480469 43.613281 0.300781 42.398438 0.179688 41.175781 C 0.0585938 39.953125 0 38.730469 0 37.5 C 0 36.273438 0.0585938 35.046875 0.179688 33.824219 C 0.300781 32.601562 0.480469 31.390625 0.71875 30.183594 C 0.960938 28.980469 1.257812 27.789062 1.613281 26.613281 C 1.972656 25.441406 2.382812 24.285156 2.855469 23.148438 C 3.324219 22.015625 3.847656 20.90625 4.429688 19.824219 C 5.007812 18.738281 5.636719 17.6875 6.320312 16.667969 C 7.003906 15.644531 7.734375 14.660156 8.511719 13.710938 C 9.292969 12.761719 10.117188 11.851562 10.984375 10.984375 C 11.851562 10.117188 12.761719 9.292969 13.710938 8.511719 C 14.660156 7.734375 15.644531 7.003906 16.667969 6.320312 C 17.6875 5.636719 18.738281 5.007812 19.824219 4.429688 C 20.90625 3.847656 22.015625 3.324219 23.148438 2.855469 C 24.285156 2.382812 25.441406 1.972656 26.613281 1.613281 C 27.789062 1.257812 28.980469 0.960938 30.183594 0.71875 C 31.390625 0.480469 32.601562 0.300781 33.824219 0.179688 C 35.046875 0.0585938 36.273438 0 37.5 0 C 38.730469 0 39.953125 0.0585938 41.175781 0.179688 C 42.398438 0.300781 43.613281 0.480469 44.816406 0.71875 C 46.019531 0.960938 47.210938 1.257812 48.386719 1.613281 C 49.5625 1.972656 50.71875 2.382812 51.851562 2.855469 C 52.984375 3.324219 54.09375 3.847656 55.179688 4.429688 C 56.261719 5.007812 57.3125 5.636719 58.335938 6.320312 C 59.355469 7.003906 60.339844 7.734375 61.289062 8.511719 C 62.242188 9.292969 63.148438 10.117188 64.019531 10.984375 C 64.886719 11.851562 65.710938 12.761719 66.488281 13.710938 C 67.269531 14.660156 68 15.644531 68.679688 16.667969 C 69.363281 17.6875 69.996094 18.738281 70.574219 19.824219 C 71.152344 20.90625 71.675781 22.015625 72.148438 23.148438 C 72.617188 24.285156 73.03125 25.441406 73.386719 26.613281 C 73.742188 27.789062 74.042969 28.980469 74.28125 30.183594 C 74.519531 31.390625 74.699219 32.601562 74.820312 33.824219 C 74.941406 35.046875 75 36.273438 75 37.5 Z M 75 37.5 " clip-rule="nonzero"/></clipPath><linearGradient x1="0.0411892" gradientTransform="matrix(0, 80.332036, -80.332036, 0, 31.066694, -3.308816)" y1="0" x2="0.974814" gradientUnits="userSpaceOnUse" y2="0" id="cb5cf4b817"><stop stop-opacity="1" stop-color="rgb(96.914673%, 89.042664%, 50.486755%)" offset="0"/><stop stop-opacity="1" stop-color="rgb(96.818542%, 88.868713%, 50.308228%)" offset="0.0078125"/><stop stop-opacity="1" stop-color="rgb(96.626282%, 88.522339%, 49.952698%)" offset="0.015625"/><stop stop-opacity="1" stop-color="rgb(96.434021%, 88.175964%, 49.595642%)" offset="0.0234375"/><stop stop-opacity="1" stop-color="rgb(96.24176%, 87.82959%, 49.240112%)" offset="0.03125"/><stop stop-opacity="1" stop-color="rgb(96.0495%, 87.483215%, 48.883057%)" offset="0.0390625"/><stop stop-opacity="1" stop-color="rgb(95.857239%, 87.136841%, 48.527527%)" offset="0.046875"/><stop stop-opacity="1" stop-color="rgb(95.664978%, 86.790466%, 48.170471%)" offset="0.0546875"/><stop stop-opacity="1" stop-color="rgb(95.472717%, 86.444092%, 47.814941%)" offset="0.0625"/><stop stop-opacity="1" stop-color="rgb(95.280457%, 86.097717%, 47.457886%)" offset="0.0703125"/><stop stop-opacity="1" stop-color="rgb(95.088196%, 85.751343%, 47.102356%)" offset="0.078125"/><stop stop-opacity="1" stop-color="rgb(94.895935%, 85.403442%, 46.7453%)" offset="0.0859375"/><stop stop-opacity="1" stop-color="rgb(94.703674%, 85.057068%, 46.389771%)" offset="0.09375"/><stop stop-opacity="1" stop-color="rgb(94.511414%, 84.710693%, 46.032715%)" offset="0.101563"/><stop stop-opacity="1" stop-color="rgb(94.319153%, 84.364319%, 45.677185%)" offset="0.109375"/><stop stop-opacity="1" stop-color="rgb(94.126892%, 84.017944%, 45.320129%)" offset="0.117188"/><stop stop-opacity="1" stop-color="rgb(93.936157%, 83.67157%, 44.9646%)" offset="0.125"/><stop stop-opacity="1" stop-color="rgb(93.743896%, 83.325195%, 44.607544%)" offset="0.132812"/><stop stop-opacity="1" stop-color="rgb(93.551636%, 82.978821%, 44.252014%)" offset="0.140625"/><stop stop-opacity="1" stop-color="rgb(93.359375%, 82.632446%, 43.894958%)" offset="0.148438"/><stop stop-opacity="1" stop-color="rgb(93.167114%, 82.286072%, 43.539429%)" offset="0.15625"/><stop stop-opacity="1" stop-color="rgb(92.974854%, 81.939697%, 43.183899%)" offset="0.164062"/><stop stop-opacity="1" stop-color="rgb(92.782593%, 81.593323%, 42.826843%)" offset="0.171875"/><stop stop-opacity="1" stop-color="rgb(92.590332%, 81.246948%, 42.471313%)" offset="0.179688"/><stop stop-opacity="1" stop-color="rgb(92.398071%, 80.900574%, 42.114258%)" offset="0.1875"/><stop stop-opacity="1" stop-color="rgb(92.205811%, 80.554199%, 41.758728%)" offset="0.195313"/><stop stop-opacity="1" stop-color="rgb(92.01355%, 80.207825%, 41.401672%)" offset="0.203125"/><stop stop-opacity="1" stop-color="rgb(91.821289%, 79.86145%, 41.046143%)" offset="0.210937"/><stop stop-opacity="1" stop-color="rgb(91.629028%, 79.515076%, 40.689087%)" offset="0.21875"/><stop stop-opacity="1" stop-color="rgb(91.436768%, 79.167175%, 40.333557%)" offset="0.226562"/><stop stop-opacity="1" stop-color="rgb(91.244507%, 78.820801%, 39.976501%)" offset="0.234375"/><stop stop-opacity="1" stop-color="rgb(91.052246%, 78.474426%, 39.620972%)" offset="0.242188"/><stop stop-opacity="1" stop-color="rgb(90.859985%, 78.128052%, 39.263916%)" offset="0.25"/><stop stop-opacity="1" stop-color="rgb(90.66925%, 77.781677%, 38.908386%)" offset="0.257812"/><stop stop-opacity="1" stop-color="rgb(90.47699%, 77.435303%, 38.551331%)" offset="0.265625"/><stop stop-opacity="1" stop-color="rgb(90.284729%, 77.088928%, 38.195801%)" offset="0.273437"/><stop stop-opacity="1" stop-color="rgb(90.092468%, 76.742554%, 37.838745%)" offset="0.28125"/><stop stop-opacity="1" stop-color="rgb(89.900208%, 76.396179%, 37.483215%)" offset="0.289062"/><stop stop-opacity="1" stop-color="rgb(89.707947%, 76.049805%, 37.12616%)" offset="0.296875"/><stop stop-opacity="1" stop-color="rgb(89.515686%, 75.70343%, 36.77063%)" offset="0.304687"/><stop stop-opacity="1" stop-color="rgb(89.323425%, 75.357056%, 36.413574%)" offset="0.3125"/><stop stop-opacity="1" stop-color="rgb(89.131165%, 75.010681%, 36.058044%)" offset="0.320312"/><stop stop-opacity="1" stop-color="rgb(88.938904%, 74.664307%, 35.700989%)" offset="0.328125"/><stop stop-opacity="1" stop-color="rgb(88.746643%, 74.317932%, 35.345459%)" offset="0.335937"/><stop stop-opacity="1" stop-color="rgb(88.554382%, 73.971558%, 34.988403%)" offset="0.34375"/><stop stop-opacity="1" stop-color="rgb(88.362122%, 73.625183%, 34.632874%)" offset="0.351562"/><stop stop-opacity="1" stop-color="rgb(88.169861%, 73.277283%, 34.275818%)" offset="0.359375"/><stop stop-opacity="1" stop-color="rgb(87.9776%, 72.930908%, 33.920288%)" offset="0.367187"/><stop stop-opacity="1" stop-color="rgb(87.785339%, 72.584534%, 33.563232%)" offset="0.375"/><stop stop-opacity="1" stop-color="rgb(87.594604%, 72.238159%, 33.207703%)" offset="0.382812"/><stop stop-opacity="1" stop-color="rgb(87.402344%, 71.891785%, 32.850647%)" offset="0.390625"/><stop stop-opacity="1" stop-color="rgb(87.210083%, 71.54541%, 32.495117%)" offset="0.398437"/><stop stop-opacity="1" stop-color="rgb(87.017822%, 71.199036%, 32.138062%)" offset="0.40625"/><stop stop-opacity="1" stop-color="rgb(86.825562%, 70.852661%, 31.782532%)" offset="0.414062"/><stop stop-opacity="1" stop-color="rgb(86.633301%, 70.506287%, 31.425476%)" offset="0.421875"/><stop stop-opacity="1" stop-color="rgb(86.44104%, 70.159912%, 31.069946%)" offset="0.429688"/><stop stop-opacity="1" stop-color="rgb(86.248779%, 69.813538%, 30.712891%)" offset="0.4375"/><stop stop-opacity="1" stop-color="rgb(86.056519%, 69.467163%, 30.357361%)" offset="0.445312"/><stop stop-opacity="1" stop-color="rgb(85.864258%, 69.120789%, 30.000305%)" offset="0.453125"/><stop stop-opacity="1" stop-color="rgb(85.671997%, 68.774414%, 29.644775%)" offset="0.460937"/><stop stop-opacity="1" stop-color="rgb(85.479736%, 68.42804%, 29.28772%)" offset="0.46875"/><stop stop-opacity="1" stop-color="rgb(85.287476%, 68.081665%, 28.93219%)" offset="0.476562"/><stop stop-opacity="1" stop-color="rgb(85.095215%, 67.735291%, 28.575134%)" offset="0.484375"/><stop stop-opacity="1" stop-color="rgb(84.902954%, 67.38739%, 28.219604%)" offset="0.492187"/><stop stop-opacity="1" stop-color="rgb(84.710693%, 67.041016%, 27.862549%)" offset="0.5"/><stop stop-opacity="1" stop-color="rgb(84.519958%, 66.694641%, 27.507019%)" offset="0.507812"/><stop stop-opacity="1" stop-color="rgb(84.33075%, 66.369629%, 27.148438%)" offset="0.515625"/><stop stop-opacity="1" stop-color="rgb(84.155273%, 66.099548%, 26.786804%)" offset="0.523437"/><stop stop-opacity="1" stop-color="rgb(83.988953%, 65.867615%, 26.422119%)" offset="0.53125"/><stop stop-opacity="1" stop-color="rgb(83.821106%, 65.635681%, 26.057434%)" offset="0.539062"/><stop stop-opacity="1" stop-color="rgb(83.654785%, 65.402222%, 25.692749%)" offset="0.546875"/><stop stop-opacity="1" stop-color="rgb(83.486938%, 65.170288%, 25.328064%)" offset="0.554687"/><stop stop-opacity="1" stop-color="rgb(83.320618%, 64.938354%, 24.963379%)" offset="0.5625"/><stop stop-opacity="1" stop-color="rgb(83.152771%, 64.704895%, 24.598694%)" offset="0.570312"/><stop stop-opacity="1" stop-color="rgb(82.98645%, 64.472961%, 24.234009%)" offset="0.578125"/><stop stop-opacity="1" stop-color="rgb(82.818604%, 64.239502%, 23.869324%)" offset="0.585938"/><stop stop-opacity="1" stop-color="rgb(82.652283%, 64.007568%, 23.504639%)" offset="0.59375"/><stop stop-opacity="1" stop-color="rgb(82.484436%, 63.775635%, 23.139954%)" offset="0.601562"/><stop stop-opacity="1" stop-color="rgb(82.316589%, 63.542175%, 22.775269%)" offset="0.609375"/><stop stop-opacity="1" stop-color="rgb(82.150269%, 63.310242%, 22.410583%)" offset="0.617187"/><stop stop-opacity="1" stop-color="rgb(81.982422%, 63.078308%, 22.045898%)" offset="0.625"/><stop stop-opacity="1" stop-color="rgb(81.816101%, 62.844849%, 21.681213%)" offset="0.632812"/><stop stop-opacity="1" stop-color="rgb(81.648254%, 62.612915%, 21.316528%)" offset="0.640625"/><stop stop-opacity="1" stop-color="rgb(81.481934%, 62.380981%, 20.951843%)" offset="0.648438"/><stop stop-opacity="1" stop-color="rgb(81.314087%, 62.147522%, 20.587158%)" offset="0.65625"/><stop stop-opacity="1" stop-color="rgb(81.147766%, 61.915588%, 20.222473%)" offset="0.664062"/><stop stop-opacity="1" stop-color="rgb(80.979919%, 61.682129%, 19.857788%)" offset="0.671875"/><stop stop-opacity="1" stop-color="rgb(80.813599%, 61.450195%, 19.493103%)" offset="0.679687"/><stop stop-opacity="1" stop-color="rgb(80.645752%, 61.218262%, 19.128418%)" offset="0.6875"/><stop stop-opacity="1" stop-color="rgb(80.477905%, 60.984802%, 18.763733%)" offset="0.695312"/><stop stop-opacity="1" stop-color="rgb(80.311584%, 60.752869%, 18.399048%)" offset="0.703125"/><stop stop-opacity="1" stop-color="rgb(80.143738%, 60.520935%, 18.034363%)" offset="0.710938"/><stop stop-opacity="1" stop-color="rgb(79.977417%, 60.287476%, 17.669678%)" offset="0.71875"/><stop stop-opacity="1" stop-color="rgb(79.80957%, 60.055542%, 17.304993%)" offset="0.726562"/><stop stop-opacity="1" stop-color="rgb(79.64325%, 59.822083%, 16.940308%)" offset="0.734375"/><stop stop-opacity="1" stop-color="rgb(79.475403%, 59.590149%, 16.575623%)" offset="0.742187"/><stop stop-opacity="1" stop-color="rgb(79.309082%, 59.358215%, 16.210938%)" offset="0.75"/><stop stop-opacity="1" stop-color="rgb(79.141235%, 59.124756%, 15.846252%)" offset="0.757812"/><stop stop-opacity="1" stop-color="rgb(78.974915%, 58.892822%, 15.481567%)" offset="0.765625"/><stop stop-opacity="1" stop-color="rgb(78.807068%, 58.660889%, 15.116882%)" offset="0.773438"/><stop stop-opacity="1" stop-color="rgb(78.639221%, 58.427429%, 14.752197%)" offset="0.78125"/><stop stop-opacity="1" stop-color="rgb(78.4729%, 58.195496%, 14.387512%)" offset="0.789062"/><stop stop-opacity="1" stop-color="rgb(78.305054%, 57.963562%, 14.022827%)" offset="0.796875"/><stop stop-opacity="1" stop-color="rgb(78.138733%, 57.730103%, 13.658142%)" offset="0.804688"/><stop stop-opacity="1" stop-color="rgb(77.970886%, 57.498169%, 13.293457%)" offset="0.8125"/><stop stop-opacity="1" stop-color="rgb(77.804565%, 57.264709%, 12.928772%)" offset="0.820312"/><stop stop-opacity="1" stop-color="rgb(77.636719%, 57.032776%, 12.564087%)" offset="0.828125"/><stop stop-opacity="1" stop-color="rgb(77.470398%, 56.800842%, 12.199402%)" offset="0.835938"/><stop stop-opacity="1" stop-color="rgb(77.302551%, 56.567383%, 11.834717%)" offset="0.84375"/><stop stop-opacity="1" stop-color="rgb(77.13623%, 56.335449%, 11.470032%)" offset="0.851562"/><stop stop-opacity="1" stop-color="rgb(76.968384%, 56.103516%, 11.105347%)" offset="0.859375"/><stop stop-opacity="1" stop-color="rgb(76.800537%, 55.870056%, 10.740662%)" offset="0.867188"/><stop stop-opacity="1" stop-color="rgb(76.634216%, 55.638123%, 10.375977%)" offset="0.875"/><stop stop-opacity="1" stop-color="rgb(76.46637%, 55.404663%, 10.011292%)" offset="0.882813"/><stop stop-opacity="1" stop-color="rgb(76.300049%, 55.172729%, 9.646606%)" offset="0.890625"/><stop stop-opacity="1" stop-color="rgb(76.132202%, 54.940796%, 9.281921%)" offset="0.898438"/><stop stop-opacity="1" stop-color="rgb(75.965881%, 54.707336%, 8.917236%)" offset="0.90625"/><stop stop-opacity="1" stop-color="rgb(75.798035%, 54.475403%, 8.552551%)" offset="0.914062"/><stop stop-opacity="1" stop-color="rgb(75.631714%, 54.243469%, 8.18634%)" offset="0.921875"/><stop stop-opacity="1" stop-color="rgb(75.463867%, 54.01001%, 7.821655%)" offset="0.929688"/><stop stop-opacity="1" stop-color="rgb(75.297546%, 53.778076%, 7.45697%)" offset="0.9375"/><stop stop-opacity="1" stop-color="rgb(75.1297%, 53.546143%, 7.092285%)" offset="0.945313"/><stop stop-opacity="1" stop-color="rgb(74.961853%, 53.312683%, 6.7276%)" offset="0.953125"/><stop stop-opacity="1" stop-color="rgb(74.795532%, 53.08075%, 6.362915%)" offset="0.960938"/><stop stop-opacity="1" stop-color="rgb(74.627686%, 52.84729%, 5.99823%)" offset="0.96875"/><stop stop-opacity="1" stop-color="rgb(74.461365%, 52.615356%, 5.633545%)" offset="0.976562"/><stop stop-opacity="1" stop-color="rgb(74.293518%, 52.383423%, 5.26886%)" offset="0.984375"/><stop stop-opacity="1" stop-color="rgb(74.127197%, 52.149963%, 4.904175%)" offset="0.992188"/><stop stop-opacity="1" stop-color="rgb(73.959351%, 51.91803%, 4.53949%)" offset="1"/></linearGradient><clipPath id="240c21a1a1"><path d="M 5 24 L 17 24 L 17 57 L 5 57 Z M 5 24 " clip-rule="nonzero"/></clipPath><clipPath id="8e0c47d2ce"><path d="M 11.285156 27.007812 C 10.746094 25.386719 13.46875 24.082031 13.46875 24.082031 C 13.46875 24.082031 13.398438 24.878906 13.09375 25.65625 C 12.804688 26.40625 12.300781 27.144531 11.445312 27.148438 C 11.277344 27.5 11.089844 27.914062 10.898438 28.382812 C 10.949219 28.324219 11.011719 28.261719 11.085938 28.199219 C 11.464844 27.863281 12.121094 27.519531 13.21875 27.46875 C 13.21875 27.46875 11.921875 29.5 10.691406 28.902344 C 10.46875 29.496094 10.238281 30.164062 10.03125 30.902344 C 10.394531 30.503906 11.039062 30.070312 12.160156 29.875 C 12.160156 29.875 11.125 32.0625 9.800781 31.765625 C 9.679688 32.269531 9.566406 32.792969 9.46875 33.34375 C 9.453125 33.433594 9.4375 33.523438 9.421875 33.613281 C 9.78125 33.140625 10.441406 32.589844 11.664062 32.253906 C 11.664062 32.253906 10.757812 34.75 9.28125 34.578125 C 9.195312 35.265625 9.136719 35.984375 9.113281 36.734375 C 9.417969 36.222656 10.019531 35.601562 11.21875 35.140625 C 11.21875 35.140625 10.574219 37.695312 9.097656 37.695312 C 9.101562 38.3125 9.128906 38.949219 9.183594 39.601562 C 9.199219 39.550781 9.21875 39.5 9.242188 39.449219 C 9.488281 38.84375 10.050781 38.066406 11.289062 37.375 C 11.289062 37.375 10.972656 40.378906 9.273438 40.488281 C 9.3125 40.789062 9.355469 41.09375 9.402344 41.402344 C 9.449219 41.691406 9.5 41.984375 9.558594 42.277344 C 9.683594 41.636719 10.078125 40.777344 11.132812 39.859375 C 11.132812 39.859375 11.4375 42.878906 9.785156 43.324219 C 9.90625 43.828125 10.046875 44.339844 10.203125 44.859375 C 10.285156 44.210938 10.617188 43.316406 11.625 42.320312 C 11.625 42.320312 12.113281 45.277344 10.53125 45.855469 C 10.71875 46.386719 10.925781 46.925781 11.15625 47.46875 C 11.15625 47.433594 11.160156 47.398438 11.164062 47.363281 C 11.207031 46.671875 11.507812 45.699219 12.519531 44.582031 C 12.519531 44.582031 13.210938 47.6875 11.566406 48.386719 C 11.625 48.515625 11.6875 48.644531 11.75 48.773438 C 11.949219 49.183594 12.160156 49.59375 12.382812 50.003906 C 12.378906 49.945312 12.375 49.886719 12.375 49.820312 C 12.367188 49.128906 12.589844 48.136719 13.511719 46.941406 C 13.511719 46.941406 14.449219 50.003906 12.839844 50.820312 C 13.058594 51.191406 13.285156 51.5625 13.523438 51.941406 C 13.597656 52.058594 13.671875 52.175781 13.75 52.296875 C 13.742188 52.222656 13.738281 52.144531 13.734375 52.0625 C 13.710938 51.371094 13.914062 50.375 14.808594 49.160156 C 14.808594 49.160156 15.800781 52.171875 14.246094 53.039062 C 14.289062 53.105469 14.335938 53.171875 14.378906 53.238281 C 14.558594 53.507812 14.738281 53.777344 14.921875 54.050781 C 15.335938 54.664062 15.769531 55.285156 16.238281 55.914062 C 16.269531 55.949219 16.265625 56 16.230469 56.027344 C 16.195312 56.058594 16.144531 56.054688 16.117188 56.019531 C 15.570312 55.445312 15.054688 54.882812 14.578125 54.308594 C 14.363281 54.050781 14.160156 53.792969 13.964844 53.53125 C 13.929688 53.488281 13.894531 53.441406 13.863281 53.394531 C 12.84375 54.832031 9.960938 53.539062 9.960938 53.539062 C 11.25 52.757812 12.261719 52.660156 12.949219 52.757812 C 13.167969 52.789062 13.355469 52.839844 13.507812 52.894531 C 13.355469 52.671875 13.210938 52.453125 13.066406 52.230469 C 12.84375 51.890625 12.632812 51.550781 12.433594 51.210938 C 11.351562 52.535156 8.574219 51.21875 8.574219 51.21875 C 9.878906 50.464844 10.890625 50.386719 11.578125 50.496094 C 11.78125 50.53125 11.953125 50.578125 12.097656 50.632812 C 11.792969 50.089844 11.507812 49.550781 11.25 49.019531 C 11.207031 48.925781 11.164062 48.835938 11.121094 48.742188 C 9.945312 49.996094 7.261719 48.460938 7.261719 48.460938 C 8.621094 47.808594 9.636719 47.8125 10.3125 47.976562 C 10.527344 48.027344 10.707031 48.097656 10.855469 48.164062 C 10.558594 47.5 10.296875 46.839844 10.066406 46.191406 C 8.882812 47.261719 6.476562 45.699219 6.476562 45.699219 C 7.789062 45.15625 8.746094 45.210938 9.375 45.402344 C 9.570312 45.460938 9.734375 45.535156 9.867188 45.605469 C 9.648438 44.941406 9.460938 44.285156 9.304688 43.636719 C 8.054688 44.59375 5.777344 42.902344 5.777344 42.902344 C 7.125 42.445312 8.074219 42.558594 8.6875 42.789062 C 8.878906 42.863281 9.039062 42.945312 9.167969 43.027344 C 9.054688 42.503906 8.964844 41.988281 8.890625 41.484375 C 8.847656 41.210938 8.8125 40.941406 8.785156 40.671875 C 7.355469 41.433594 5.425781 39.257812 5.425781 39.257812 C 6.839844 39.082031 7.746094 39.390625 8.300781 39.742188 C 8.476562 39.851562 8.613281 39.96875 8.722656 40.074219 C 8.65625 39.277344 8.628906 38.5 8.636719 37.75 C 7.222656 38.40625 5.6875 36.085938 5.6875 36.085938 C 6.984375 36.113281 7.761719 36.503906 8.214844 36.890625 C 8.417969 37.0625 8.554688 37.230469 8.644531 37.367188 C 8.671875 36.386719 8.757812 35.453125 8.886719 34.570312 C 7.390625 35.15625 6.070312 32.636719 6.070312 32.636719 C 7.355469 32.792969 8.089844 33.261719 8.503906 33.695312 C 8.726562 33.925781 8.855469 34.148438 8.925781 34.300781 C 8.980469 33.953125 9.042969 33.609375 9.109375 33.277344 C 9.214844 32.734375 9.339844 32.21875 9.472656 31.726562 C 8.066406 32.148438 7.082031 29.746094 7.082031 29.746094 C 8.226562 29.996094 8.851562 30.480469 9.1875 30.90625 C 9.378906 31.152344 9.476562 31.375 9.527344 31.519531 C 9.800781 30.527344 10.113281 29.644531 10.425781 28.878906 C 9.125 29.007812 8.511719 26.75 8.511719 26.75 C 9.550781 27.117188 10.070312 27.640625 10.332031 28.074219 C 10.449219 28.265625 10.515625 28.441406 10.550781 28.574219 C 10.8125 27.960938 11.0625 27.4375 11.285156 27.007812 Z M 11.285156 27.007812 " clip-rule="evenodd"/></clipPath><linearGradient x1="-0.0000000256879" gradientTransform="matrix(0, 33.821639, -33.821639, 0, 13.467996, 24.083628)" y1="0" x2="0.945351" gradientUnits="userSpaceOnUse" y2="0" id="d78552c2f6"><stop stop-opacity="1" stop-color="rgb(97.999573%, 90.99884%, 52.49939%)" offset="0"/><stop stop-opacity="1" stop-color="rgb(97.897339%, 90.815735%, 52.311707%)" offset="0.0078125"/><stop stop-opacity="1" stop-color="rgb(97.695923%, 90.45105%, 51.93634%)" offset="0.015625"/><stop stop-opacity="1" stop-color="rgb(97.492981%, 90.086365%, 51.560974%)" offset="0.0234375"/><stop stop-opacity="1" stop-color="rgb(97.290039%, 89.72168%, 51.185608%)" offset="0.03125"/><stop stop-opacity="1" stop-color="rgb(97.088623%, 89.356995%, 50.810242%)" offset="0.0390625"/><stop stop-opacity="1" stop-color="rgb(96.885681%, 88.99231%, 50.434875%)" offset="0.046875"/><stop stop-opacity="1" stop-color="rgb(96.682739%, 88.627625%, 50.061035%)" offset="0.0546875"/><stop stop-opacity="1" stop-color="rgb(96.481323%, 88.262939%, 49.685669%)" offset="0.0625"/><stop stop-opacity="1" stop-color="rgb(96.278381%, 87.896729%, 49.310303%)" offset="0.0703125"/><stop stop-opacity="1" stop-color="rgb(96.076965%, 87.532043%, 48.934937%)" offset="0.078125"/><stop stop-opacity="1" stop-color="rgb(95.874023%, 87.167358%, 48.55957%)" offset="0.0859375"/><stop stop-opacity="1" stop-color="rgb(95.671082%, 86.802673%, 48.184204%)" offset="0.09375"/><stop stop-opacity="1" stop-color="rgb(95.469666%, 86.437988%, 47.808838%)" offset="0.101562"/><stop stop-opacity="1" stop-color="rgb(95.266724%, 86.073303%, 47.433472%)" offset="0.109375"/><stop stop-opacity="1" stop-color="rgb(95.063782%, 85.708618%, 47.059631%)" offset="0.117188"/><stop stop-opacity="1" stop-color="rgb(94.862366%, 85.343933%, 46.684265%)" offset="0.125"/><stop stop-opacity="1" stop-color="rgb(94.659424%, 84.979248%, 46.308899%)" offset="0.132812"/><stop stop-opacity="1" stop-color="rgb(94.458008%, 84.613037%, 45.933533%)" offset="0.140625"/><stop stop-opacity="1" stop-color="rgb(94.255066%, 84.248352%, 45.558167%)" offset="0.148438"/><stop stop-opacity="1" stop-color="rgb(94.052124%, 83.883667%, 45.1828%)" offset="0.15625"/><stop stop-opacity="1" stop-color="rgb(93.850708%, 83.518982%, 44.807434%)" offset="0.164063"/><stop stop-opacity="1" stop-color="rgb(93.647766%, 83.154297%, 44.432068%)" offset="0.171875"/><stop stop-opacity="1" stop-color="rgb(93.444824%, 82.789612%, 44.056702%)" offset="0.179688"/><stop stop-opacity="1" stop-color="rgb(93.243408%, 82.424927%, 43.682861%)" offset="0.1875"/><stop stop-opacity="1" stop-color="rgb(93.040466%, 82.060242%, 43.307495%)" offset="0.195312"/><stop stop-opacity="1" stop-color="rgb(92.83905%, 81.695557%, 42.932129%)" offset="0.203125"/><stop stop-opacity="1" stop-color="rgb(92.636108%, 81.330872%, 42.556763%)" offset="0.210938"/><stop stop-opacity="1" stop-color="rgb(92.433167%, 80.964661%, 42.181396%)" offset="0.21875"/><stop stop-opacity="1" stop-color="rgb(92.23175%, 80.599976%, 41.80603%)" offset="0.226562"/><stop stop-opacity="1" stop-color="rgb(92.028809%, 80.235291%, 41.430664%)" offset="0.234375"/><stop stop-opacity="1" stop-color="rgb(91.827393%, 79.870605%, 41.055298%)" offset="0.242188"/><stop stop-opacity="1" stop-color="rgb(91.624451%, 79.50592%, 40.681458%)" offset="0.25"/><stop stop-opacity="1" stop-color="rgb(91.421509%, 79.141235%, 40.306091%)" offset="0.257812"/><stop stop-opacity="1" stop-color="rgb(91.220093%, 78.77655%, 39.930725%)" offset="0.265625"/><stop stop-opacity="1" stop-color="rgb(91.017151%, 78.411865%, 39.555359%)" offset="0.273437"/><stop stop-opacity="1" stop-color="rgb(90.814209%, 78.04718%, 39.179993%)" offset="0.28125"/><stop stop-opacity="1" stop-color="rgb(90.612793%, 77.680969%, 38.804626%)" offset="0.289063"/><stop stop-opacity="1" stop-color="rgb(90.409851%, 77.316284%, 38.42926%)" offset="0.296875"/><stop stop-opacity="1" stop-color="rgb(90.208435%, 76.951599%, 38.053894%)" offset="0.304688"/><stop stop-opacity="1" stop-color="rgb(90.005493%, 76.586914%, 37.680054%)" offset="0.3125"/><stop stop-opacity="1" stop-color="rgb(89.802551%, 76.222229%, 37.304688%)" offset="0.320313"/><stop stop-opacity="1" stop-color="rgb(89.601135%, 75.857544%, 36.929321%)" offset="0.328125"/><stop stop-opacity="1" stop-color="rgb(89.398193%, 75.492859%, 36.553955%)" offset="0.335938"/><stop stop-opacity="1" stop-color="rgb(89.195251%, 75.128174%, 36.178589%)" offset="0.34375"/><stop stop-opacity="1" stop-color="rgb(88.993835%, 74.763489%, 35.803223%)" offset="0.351562"/><stop stop-opacity="1" stop-color="rgb(88.790894%, 74.398804%, 35.427856%)" offset="0.359375"/><stop stop-opacity="1" stop-color="rgb(88.589478%, 74.032593%, 35.05249%)" offset="0.367188"/><stop stop-opacity="1" stop-color="rgb(88.386536%, 73.667908%, 34.677124%)" offset="0.375"/><stop stop-opacity="1" stop-color="rgb(88.183594%, 73.303223%, 34.303284%)" offset="0.382812"/><stop stop-opacity="1" stop-color="rgb(87.982178%, 72.938538%, 33.927917%)" offset="0.390625"/><stop stop-opacity="1" stop-color="rgb(87.779236%, 72.573853%, 33.552551%)" offset="0.398438"/><stop stop-opacity="1" stop-color="rgb(87.576294%, 72.209167%, 33.177185%)" offset="0.40625"/><stop stop-opacity="1" stop-color="rgb(87.374878%, 71.844482%, 32.801819%)" offset="0.414062"/><stop stop-opacity="1" stop-color="rgb(87.171936%, 71.479797%, 32.426453%)" offset="0.421875"/><stop stop-opacity="1" stop-color="rgb(86.97052%, 71.115112%, 32.051086%)" offset="0.429687"/><stop stop-opacity="1" stop-color="rgb(86.767578%, 70.748901%, 31.67572%)" offset="0.4375"/><stop stop-opacity="1" stop-color="rgb(86.564636%, 70.384216%, 31.30188%)" offset="0.445313"/><stop stop-opacity="1" stop-color="rgb(86.36322%, 70.019531%, 30.926514%)" offset="0.453125"/><stop stop-opacity="1" stop-color="rgb(86.160278%, 69.654846%, 30.551147%)" offset="0.460938"/><stop stop-opacity="1" stop-color="rgb(85.957336%, 69.290161%, 30.175781%)" offset="0.46875"/><stop stop-opacity="1" stop-color="rgb(85.75592%, 68.925476%, 29.800415%)" offset="0.476562"/><stop stop-opacity="1" stop-color="rgb(85.552979%, 68.560791%, 29.425049%)" offset="0.484375"/><stop stop-opacity="1" stop-color="rgb(85.351562%, 68.196106%, 29.049683%)" offset="0.492188"/><stop stop-opacity="1" stop-color="rgb(85.148621%, 67.831421%, 28.674316%)" offset="0.5"/><stop stop-opacity="1" stop-color="rgb(84.945679%, 67.46521%, 28.29895%)" offset="0.507812"/><stop stop-opacity="1" stop-color="rgb(84.744263%, 67.100525%, 27.92511%)" offset="0.515625"/><stop stop-opacity="1" stop-color="rgb(84.541321%, 66.73584%, 27.549744%)" offset="0.523438"/><stop stop-opacity="1" stop-color="rgb(84.344482%, 66.392517%, 27.177429%)" offset="0.53125"/><stop stop-opacity="1" stop-color="rgb(84.169006%, 66.117859%, 26.815796%)" offset="0.539062"/><stop stop-opacity="1" stop-color="rgb(84.005737%, 65.892029%, 26.460266%)" offset="0.546875"/><stop stop-opacity="1" stop-color="rgb(83.843994%, 65.666199%, 26.106262%)" offset="0.554688"/><stop stop-opacity="1" stop-color="rgb(83.680725%, 65.440369%, 25.752258%)" offset="0.5625"/><stop stop-opacity="1" stop-color="rgb(83.518982%, 65.214539%, 25.396729%)" offset="0.570312"/><stop stop-opacity="1" stop-color="rgb(83.355713%, 64.988708%, 25.042725%)" offset="0.578125"/><stop stop-opacity="1" stop-color="rgb(83.19397%, 64.762878%, 24.688721%)" offset="0.585938"/><stop stop-opacity="1" stop-color="rgb(83.032227%, 64.537048%, 24.333191%)" offset="0.59375"/><stop stop-opacity="1" stop-color="rgb(82.868958%, 64.309692%, 23.979187%)" offset="0.601562"/><stop stop-opacity="1" stop-color="rgb(82.707214%, 64.083862%, 23.625183%)" offset="0.609375"/><stop stop-opacity="1" stop-color="rgb(82.543945%, 63.858032%, 23.269653%)" offset="0.617188"/><stop stop-opacity="1" stop-color="rgb(82.382202%, 63.632202%, 22.915649%)" offset="0.625"/><stop stop-opacity="1" stop-color="rgb(82.218933%, 63.406372%, 22.561646%)" offset="0.632812"/><stop stop-opacity="1" stop-color="rgb(82.05719%, 63.180542%, 22.206116%)" offset="0.640625"/><stop stop-opacity="1" stop-color="rgb(81.893921%, 62.954712%, 21.852112%)" offset="0.648438"/><stop stop-opacity="1" stop-color="rgb(81.732178%, 62.728882%, 21.498108%)" offset="0.65625"/><stop stop-opacity="1" stop-color="rgb(81.568909%, 62.503052%, 21.142578%)" offset="0.664063"/><stop stop-opacity="1" stop-color="rgb(81.407166%, 62.275696%, 20.788574%)" offset="0.671875"/><stop stop-opacity="1" stop-color="rgb(81.243896%, 62.049866%, 20.43457%)" offset="0.679687"/><stop stop-opacity="1" stop-color="rgb(81.082153%, 61.824036%, 20.079041%)" offset="0.6875"/><stop stop-opacity="1" stop-color="rgb(80.918884%, 61.598206%, 19.725037%)" offset="0.695312"/><stop stop-opacity="1" stop-color="rgb(80.757141%, 61.372375%, 19.371033%)" offset="0.703125"/><stop stop-opacity="1" stop-color="rgb(80.593872%, 61.146545%, 19.015503%)" offset="0.710938"/><stop stop-opacity="1" stop-color="rgb(80.432129%, 60.920715%, 18.661499%)" offset="0.71875"/><stop stop-opacity="1" stop-color="rgb(80.26886%, 60.694885%, 18.307495%)" offset="0.726562"/><stop stop-opacity="1" stop-color="rgb(80.107117%, 60.469055%, 17.951965%)" offset="0.734375"/><stop stop-opacity="1" stop-color="rgb(79.943848%, 60.241699%, 17.597961%)" offset="0.742188"/><stop stop-opacity="1" stop-color="rgb(79.782104%, 60.015869%, 17.243958%)" offset="0.75"/><stop stop-opacity="1" stop-color="rgb(79.618835%, 59.790039%, 16.888428%)" offset="0.757813"/><stop stop-opacity="1" stop-color="rgb(79.457092%, 59.564209%, 16.534424%)" offset="0.765625"/><stop stop-opacity="1" stop-color="rgb(79.293823%, 59.338379%, 16.18042%)" offset="0.773438"/><stop stop-opacity="1" stop-color="rgb(79.13208%, 59.112549%, 15.82489%)" offset="0.78125"/><stop stop-opacity="1" stop-color="rgb(78.968811%, 58.886719%, 15.470886%)" offset="0.789062"/><stop stop-opacity="1" stop-color="rgb(78.807068%, 58.660889%, 15.116882%)" offset="0.796875"/><stop stop-opacity="1" stop-color="rgb(78.643799%, 58.435059%, 14.761353%)" offset="0.804688"/><stop stop-opacity="1" stop-color="rgb(78.482056%, 58.207703%, 14.407349%)" offset="0.8125"/><stop stop-opacity="1" stop-color="rgb(78.318787%, 57.981873%, 14.053345%)" offset="0.820313"/><stop stop-opacity="1" stop-color="rgb(78.157043%, 57.756042%, 13.697815%)" offset="0.828125"/><stop stop-opacity="1" stop-color="rgb(77.993774%, 57.530212%, 13.343811%)" offset="0.835938"/><stop stop-opacity="1" stop-color="rgb(77.832031%, 57.304382%, 12.989807%)" offset="0.84375"/><stop stop-opacity="1" stop-color="rgb(77.670288%, 57.078552%, 12.634277%)" offset="0.851562"/><stop stop-opacity="1" stop-color="rgb(77.507019%, 56.852722%, 12.280273%)" offset="0.859375"/><stop stop-opacity="1" stop-color="rgb(77.345276%, 56.626892%, 11.92627%)" offset="0.867188"/><stop stop-opacity="1" stop-color="rgb(77.182007%, 56.401062%, 11.572266%)" offset="0.875"/><stop stop-opacity="1" stop-color="rgb(77.020264%, 56.173706%, 11.216736%)" offset="0.882812"/><stop stop-opacity="1" stop-color="rgb(76.856995%, 55.947876%, 10.862732%)" offset="0.890625"/><stop stop-opacity="1" stop-color="rgb(76.695251%, 55.722046%, 10.508728%)" offset="0.898438"/><stop stop-opacity="1" stop-color="rgb(76.531982%, 55.496216%, 10.153198%)" offset="0.90625"/><stop stop-opacity="1" stop-color="rgb(76.370239%, 55.270386%, 9.799194%)" offset="0.914063"/><stop stop-opacity="1" stop-color="rgb(76.20697%, 55.044556%, 9.44519%)" offset="0.921875"/><stop stop-opacity="1" stop-color="rgb(76.045227%, 54.818726%, 9.089661%)" offset="0.929687"/><stop stop-opacity="1" stop-color="rgb(75.881958%, 54.592896%, 8.735657%)" offset="0.9375"/><stop stop-opacity="1" stop-color="rgb(75.720215%, 54.367065%, 8.381653%)" offset="0.945312"/><stop stop-opacity="1" stop-color="rgb(75.556946%, 54.139709%, 8.026123%)" offset="0.953125"/><stop stop-opacity="1" stop-color="rgb(75.395203%, 53.913879%, 7.672119%)" offset="0.960938"/><stop stop-opacity="1" stop-color="rgb(75.231934%, 53.688049%, 7.318115%)" offset="0.96875"/><stop stop-opacity="1" stop-color="rgb(75.07019%, 53.462219%, 6.962585%)" offset="0.976562"/><stop stop-opacity="1" stop-color="rgb(74.906921%, 53.236389%, 6.608582%)" offset="0.984375"/><stop stop-opacity="1" stop-color="rgb(74.745178%, 53.010559%, 6.254578%)" offset="0.992188"/><stop stop-opacity="1" stop-color="rgb(74.581909%, 52.784729%, 5.899048%)" offset="1"/></linearGradient><clipPath id="b09231d47b"><path d="M 58 24 L 70 24 L 70 57 L 58 57 Z M 58 24 " clip-rule="nonzero"/></clipPath><clipPath id="a652014ae5"><path d="M 63.554688 27.148438 C 62.699219 27.144531 62.195312 26.40625 61.90625 25.65625 C 61.605469 24.878906 61.535156 24.082031 61.535156 24.082031 C 61.535156 24.082031 64.253906 25.386719 63.714844 27.007812 C 63.9375 27.4375 64.191406 27.960938 64.449219 28.574219 C 64.488281 28.441406 64.550781 28.265625 64.667969 28.074219 C 64.929688 27.640625 65.453125 27.117188 66.488281 26.75 C 66.488281 26.75 65.878906 29.007812 64.578125 28.878906 C 64.886719 29.644531 65.199219 30.527344 65.472656 31.519531 C 65.523438 31.375 65.621094 31.152344 65.816406 30.90625 C 66.152344 30.480469 66.773438 29.996094 67.921875 29.746094 C 67.921875 29.746094 66.933594 32.148438 65.53125 31.726562 C 65.664062 32.21875 65.785156 32.734375 65.894531 33.277344 C 65.960938 33.609375 66.019531 33.953125 66.074219 34.300781 C 66.148438 34.148438 66.277344 33.925781 66.5 33.695312 C 66.910156 33.261719 67.644531 32.792969 68.929688 32.636719 C 68.929688 32.636719 67.609375 35.15625 66.117188 34.570312 C 66.242188 35.453125 66.328125 36.386719 66.355469 37.367188 C 66.449219 37.230469 66.585938 37.0625 66.785156 36.890625 C 67.238281 36.503906 68.019531 36.113281 69.3125 36.085938 C 69.3125 36.085938 67.777344 38.40625 66.363281 37.75 C 66.371094 38.5 66.347656 39.277344 66.277344 40.074219 C 66.386719 39.96875 66.527344 39.851562 66.703125 39.742188 C 67.257812 39.390625 68.164062 39.082031 69.574219 39.257812 C 69.574219 39.257812 67.644531 41.433594 66.21875 40.671875 C 66.1875 40.941406 66.152344 41.210938 66.113281 41.484375 C 66.039062 41.988281 65.945312 42.503906 65.835938 43.027344 C 65.960938 42.945312 66.121094 42.863281 66.3125 42.789062 C 66.925781 42.558594 67.878906 42.445312 69.222656 42.902344 C 69.222656 42.902344 66.949219 44.59375 65.695312 43.636719 C 65.539062 44.285156 65.355469 44.941406 65.136719 45.605469 C 65.269531 45.535156 65.433594 45.460938 65.628906 45.402344 C 66.253906 45.210938 67.210938 45.15625 68.527344 45.699219 C 68.527344 45.699219 66.117188 47.261719 64.9375 46.191406 C 64.707031 46.839844 64.441406 47.5 64.148438 48.164062 C 64.292969 48.097656 64.472656 48.027344 64.6875 47.976562 C 65.363281 47.8125 66.378906 47.808594 67.738281 48.460938 C 67.738281 48.460938 65.058594 49.996094 63.882812 48.742188 C 63.839844 48.835938 63.796875 48.925781 63.75 49.019531 C 63.492188 49.550781 63.210938 50.089844 62.902344 50.632812 C 63.046875 50.578125 63.222656 50.53125 63.421875 50.496094 C 64.109375 50.386719 65.121094 50.464844 66.429688 51.21875 C 66.429688 51.21875 63.648438 52.535156 62.570312 51.210938 C 62.367188 51.550781 62.15625 51.890625 61.933594 52.230469 C 61.792969 52.453125 61.644531 52.671875 61.492188 52.894531 C 61.644531 52.839844 61.832031 52.789062 62.050781 52.757812 C 62.738281 52.660156 63.75 52.757812 65.039062 53.539062 C 65.039062 53.539062 62.15625 54.832031 61.140625 53.394531 C 61.105469 53.441406 61.070312 53.488281 61.035156 53.53125 C 60.839844 53.792969 60.636719 54.050781 60.421875 54.308594 C 59.945312 54.882812 59.429688 55.445312 58.886719 56.019531 C 58.855469 56.054688 58.804688 56.058594 58.769531 56.027344 C 58.738281 56 58.734375 55.949219 58.761719 55.914062 C 59.234375 55.285156 59.664062 54.664062 60.078125 54.050781 C 60.265625 53.777344 60.441406 53.507812 60.621094 53.238281 C 60.667969 53.171875 60.710938 53.105469 60.757812 53.039062 C 59.199219 52.171875 60.191406 49.160156 60.191406 49.160156 C 61.089844 50.375 61.289062 51.371094 61.265625 52.0625 C 61.265625 52.144531 61.257812 52.222656 61.25 52.296875 C 61.328125 52.175781 61.40625 52.058594 61.480469 51.941406 C 61.71875 51.5625 61.945312 51.191406 62.160156 50.820312 C 60.550781 50.003906 61.488281 46.941406 61.488281 46.941406 C 62.414062 48.136719 62.636719 49.128906 62.625 49.820312 C 62.625 49.886719 62.621094 49.945312 62.617188 50.003906 C 62.84375 49.59375 63.054688 49.183594 63.25 48.773438 C 63.3125 48.644531 63.375 48.515625 63.433594 48.386719 C 61.789062 47.6875 62.480469 44.582031 62.480469 44.582031 C 63.496094 45.699219 63.792969 46.671875 63.839844 47.363281 C 63.839844 47.398438 63.84375 47.433594 63.84375 47.46875 C 64.074219 46.925781 64.285156 46.386719 64.46875 45.855469 C 62.886719 45.277344 63.375 42.320312 63.375 42.320312 C 64.382812 43.316406 64.714844 44.210938 64.796875 44.859375 C 64.957031 44.339844 65.09375 43.828125 65.214844 43.324219 C 63.566406 42.878906 63.867188 39.859375 63.867188 39.859375 C 64.921875 40.777344 65.316406 41.636719 65.445312 42.277344 C 65.5 41.984375 65.554688 41.691406 65.597656 41.402344 C 65.648438 41.09375 65.691406 40.789062 65.726562 40.488281 C 64.03125 40.378906 63.710938 37.375 63.710938 37.375 C 64.953125 38.066406 65.511719 38.84375 65.761719 39.449219 C 65.78125 39.5 65.800781 39.550781 65.816406 39.601562 C 65.871094 38.949219 65.898438 38.3125 65.902344 37.695312 C 64.429688 37.695312 63.785156 35.140625 63.785156 35.140625 C 64.980469 35.601562 65.585938 36.222656 65.890625 36.734375 C 65.863281 35.984375 65.804688 35.265625 65.71875 34.578125 C 64.242188 34.75 63.335938 32.253906 63.335938 32.253906 C 64.558594 32.589844 65.222656 33.140625 65.578125 33.613281 C 65.566406 33.523438 65.550781 33.433594 65.535156 33.34375 C 65.4375 32.792969 65.324219 32.269531 65.199219 31.765625 C 63.875 32.0625 62.839844 29.875 62.839844 29.875 C 63.964844 30.070312 64.605469 30.503906 64.972656 30.902344 C 64.761719 30.164062 64.535156 29.496094 64.308594 28.902344 C 63.078125 29.5 61.78125 27.46875 61.78125 27.46875 C 62.878906 27.519531 63.535156 27.863281 63.914062 28.199219 C 63.988281 28.261719 64.050781 28.324219 64.105469 28.382812 C 63.914062 27.914062 63.726562 27.5 63.554688 27.148438 Z M 63.554688 27.148438 " clip-rule="evenodd"/></clipPath><linearGradient x1="-0.0518034" gradientTransform="matrix(0, 30.389274, -30.389274, 0, 61.906234, 25.657896)" y1="0" x2="1.000322" gradientUnits="userSpaceOnUse" y2="0" id="716c7355e2"><stop stop-opacity="1" stop-color="rgb(97.999573%, 90.99884%, 52.49939%)" offset="0"/><stop stop-opacity="1" stop-color="rgb(97.999573%, 90.99884%, 52.49939%)" offset="0.03125"/><stop stop-opacity="1" stop-color="rgb(97.999573%, 90.99884%, 52.49939%)" offset="0.046875"/><stop stop-opacity="1" stop-color="rgb(97.920227%, 90.856934%, 52.352905%)" offset="0.0546875"/><stop stop-opacity="1" stop-color="rgb(97.729492%, 90.512085%, 51.998901%)" offset="0.0585937"/><stop stop-opacity="1" stop-color="rgb(97.616577%, 90.309143%, 51.789856%)" offset="0.0625"/><stop stop-opacity="1" stop-color="rgb(97.503662%, 90.106201%, 51.580811%)" offset="0.0664062"/><stop stop-opacity="1" stop-color="rgb(97.392273%, 89.903259%, 51.373291%)" offset="0.0703125"/><stop stop-opacity="1" stop-color="rgb(97.279358%, 89.700317%, 51.164246%)" offset="0.0742188"/><stop stop-opacity="1" stop-color="rgb(97.166443%, 89.497375%, 50.9552%)" offset="0.078125"/><stop stop-opacity="1" stop-color="rgb(97.053528%, 89.294434%, 50.746155%)" offset="0.0820312"/><stop stop-opacity="1" stop-color="rgb(96.940613%, 89.091492%, 50.537109%)" offset="0.0859375"/><stop stop-opacity="1" stop-color="rgb(96.827698%, 88.88855%, 50.328064%)" offset="0.0898437"/><stop stop-opacity="1" stop-color="rgb(96.716309%, 88.685608%, 50.120544%)" offset="0.09375"/><stop stop-opacity="1" stop-color="rgb(96.603394%, 88.482666%, 49.911499%)" offset="0.0976562"/><stop stop-opacity="1" stop-color="rgb(96.490479%, 88.279724%, 49.702454%)" offset="0.101562"/><stop stop-opacity="1" stop-color="rgb(96.377563%, 88.076782%, 49.493408%)" offset="0.105469"/><stop stop-opacity="1" stop-color="rgb(96.266174%, 87.87384%, 49.284363%)" offset="0.109375"/><stop stop-opacity="1" stop-color="rgb(96.153259%, 87.670898%, 49.075317%)" offset="0.113281"/><stop stop-opacity="1" stop-color="rgb(96.040344%, 87.467957%, 48.867798%)" offset="0.117187"/><stop stop-opacity="1" stop-color="rgb(95.927429%, 87.265015%, 48.658752%)" offset="0.121094"/><stop stop-opacity="1" stop-color="rgb(95.814514%, 87.062073%, 48.449707%)" offset="0.125"/><stop stop-opacity="1" stop-color="rgb(95.701599%, 86.857605%, 48.240662%)" offset="0.128906"/><stop stop-opacity="1" stop-color="rgb(95.59021%, 86.654663%, 48.031616%)" offset="0.132812"/><stop stop-opacity="1" stop-color="rgb(95.477295%, 86.451721%, 47.822571%)" offset="0.136719"/><stop stop-opacity="1" stop-color="rgb(95.36438%, 86.248779%, 47.615051%)" offset="0.140625"/><stop stop-opacity="1" stop-color="rgb(95.251465%, 86.045837%, 47.406006%)" offset="0.144531"/><stop stop-opacity="1" stop-color="rgb(95.140076%, 85.842896%, 47.19696%)" offset="0.148438"/><stop stop-opacity="1" stop-color="rgb(95.027161%, 85.639954%, 46.987915%)" offset="0.152344"/><stop stop-opacity="1" stop-color="rgb(94.914246%, 85.437012%, 46.77887%)" offset="0.15625"/><stop stop-opacity="1" stop-color="rgb(94.801331%, 85.23407%, 46.569824%)" offset="0.160156"/><stop stop-opacity="1" stop-color="rgb(94.688416%, 85.031128%, 46.362305%)" offset="0.164062"/><stop stop-opacity="1" stop-color="rgb(94.5755%, 84.828186%, 46.153259%)" offset="0.167969"/><stop stop-opacity="1" stop-color="rgb(94.464111%, 84.625244%, 45.944214%)" offset="0.171875"/><stop stop-opacity="1" stop-color="rgb(94.351196%, 84.422302%, 45.735168%)" offset="0.175781"/><stop stop-opacity="1" stop-color="rgb(94.238281%, 84.21936%, 45.527649%)" offset="0.179687"/><stop stop-opacity="1" stop-color="rgb(94.125366%, 84.016418%, 45.318604%)" offset="0.183594"/><stop stop-opacity="1" stop-color="rgb(94.013977%, 83.813477%, 45.109558%)" offset="0.1875"/><stop stop-opacity="1" stop-color="rgb(93.901062%, 83.610535%, 44.900513%)" offset="0.191406"/><stop stop-opacity="1" stop-color="rgb(93.788147%, 83.407593%, 44.691467%)" offset="0.195312"/><stop stop-opacity="1" stop-color="rgb(93.675232%, 83.203125%, 44.482422%)" offset="0.199219"/><stop stop-opacity="1" stop-color="rgb(93.562317%, 83.000183%, 44.274902%)" offset="0.203125"/><stop stop-opacity="1" stop-color="rgb(93.449402%, 82.797241%, 44.065857%)" offset="0.207031"/><stop stop-opacity="1" stop-color="rgb(93.338013%, 82.594299%, 43.856812%)" offset="0.210937"/><stop stop-opacity="1" stop-color="rgb(93.225098%, 82.391357%, 43.647766%)" offset="0.214844"/><stop stop-opacity="1" stop-color="rgb(93.112183%, 82.188416%, 43.438721%)" offset="0.21875"/><stop stop-opacity="1" stop-color="rgb(92.999268%, 81.985474%, 43.229675%)" offset="0.222656"/><stop stop-opacity="1" stop-color="rgb(92.887878%, 81.782532%, 43.022156%)" offset="0.226562"/><stop stop-opacity="1" stop-color="rgb(92.774963%, 81.57959%, 42.81311%)" offset="0.230469"/><stop stop-opacity="1" stop-color="rgb(92.662048%, 81.376648%, 42.604065%)" offset="0.234375"/><stop stop-opacity="1" stop-color="rgb(92.549133%, 81.173706%, 42.39502%)" offset="0.238281"/><stop stop-opacity="1" stop-color="rgb(92.436218%, 80.970764%, 42.185974%)" offset="0.242187"/><stop stop-opacity="1" stop-color="rgb(92.323303%, 80.767822%, 41.976929%)" offset="0.246094"/><stop stop-opacity="1" stop-color="rgb(92.211914%, 80.56488%, 41.769409%)" offset="0.25"/><stop stop-opacity="1" stop-color="rgb(92.098999%, 80.361938%, 41.560364%)" offset="0.253906"/><stop stop-opacity="1" stop-color="rgb(91.986084%, 80.158997%, 41.351318%)" offset="0.257812"/><stop stop-opacity="1" stop-color="rgb(91.873169%, 79.956055%, 41.142273%)" offset="0.261719"/><stop stop-opacity="1" stop-color="rgb(91.76178%, 79.753113%, 40.933228%)" offset="0.265625"/><stop stop-opacity="1" stop-color="rgb(91.648865%, 79.548645%, 40.724182%)" offset="0.269531"/><stop stop-opacity="1" stop-color="rgb(91.53595%, 79.345703%, 40.516663%)" offset="0.273438"/><stop stop-opacity="1" stop-color="rgb(91.423035%, 79.142761%, 40.307617%)" offset="0.277344"/><stop stop-opacity="1" stop-color="rgb(91.31012%, 78.939819%, 40.098572%)" offset="0.28125"/><stop stop-opacity="1" stop-color="rgb(91.197205%, 78.736877%, 39.889526%)" offset="0.285156"/><stop stop-opacity="1" stop-color="rgb(91.085815%, 78.533936%, 39.680481%)" offset="0.289062"/><stop stop-opacity="1" stop-color="rgb(90.9729%, 78.330994%, 39.471436%)" offset="0.292969"/><stop stop-opacity="1" stop-color="rgb(90.859985%, 78.128052%, 39.263916%)" offset="0.296875"/><stop stop-opacity="1" stop-color="rgb(90.74707%, 77.92511%, 39.054871%)" offset="0.300781"/><stop stop-opacity="1" stop-color="rgb(90.635681%, 77.722168%, 38.845825%)" offset="0.304688"/><stop stop-opacity="1" stop-color="rgb(90.522766%, 77.519226%, 38.63678%)" offset="0.308594"/><stop stop-opacity="1" stop-color="rgb(90.409851%, 77.316284%, 38.427734%)" offset="0.3125"/><stop stop-opacity="1" stop-color="rgb(90.296936%, 77.113342%, 38.218689%)" offset="0.316406"/><stop stop-opacity="1" stop-color="rgb(90.184021%, 76.9104%, 38.011169%)" offset="0.320312"/><stop stop-opacity="1" stop-color="rgb(90.071106%, 76.707458%, 37.802124%)" offset="0.324219"/><stop stop-opacity="1" stop-color="rgb(89.959717%, 76.504517%, 37.593079%)" offset="0.328125"/><stop stop-opacity="1" stop-color="rgb(89.846802%, 76.301575%, 37.384033%)" offset="0.332031"/><stop stop-opacity="1" stop-color="rgb(89.733887%, 76.098633%, 37.174988%)" offset="0.335937"/><stop stop-opacity="1" stop-color="rgb(89.620972%, 75.894165%, 36.965942%)" offset="0.339844"/><stop stop-opacity="1" stop-color="rgb(89.509583%, 75.691223%, 36.758423%)" offset="0.34375"/><stop stop-opacity="1" stop-color="rgb(89.396667%, 75.488281%, 36.549377%)" offset="0.347656"/><stop stop-opacity="1" stop-color="rgb(89.283752%, 75.285339%, 36.340332%)" offset="0.351562"/><stop stop-opacity="1" stop-color="rgb(89.170837%, 75.082397%, 36.131287%)" offset="0.355469"/><stop stop-opacity="1" stop-color="rgb(89.057922%, 74.879456%, 35.922241%)" offset="0.359375"/><stop stop-opacity="1" stop-color="rgb(88.945007%, 74.676514%, 35.713196%)" offset="0.363281"/><stop stop-opacity="1" stop-color="rgb(88.833618%, 74.473572%, 35.505676%)" offset="0.367187"/><stop stop-opacity="1" stop-color="rgb(88.720703%, 74.27063%, 35.296631%)" offset="0.371094"/><stop stop-opacity="1" stop-color="rgb(88.607788%, 74.067688%, 35.087585%)" offset="0.375"/><stop stop-opacity="1" stop-color="rgb(88.494873%, 73.864746%, 34.87854%)" offset="0.378906"/><stop stop-opacity="1" stop-color="rgb(88.383484%, 73.661804%, 34.671021%)" offset="0.382812"/><stop stop-opacity="1" stop-color="rgb(88.270569%, 73.458862%, 34.461975%)" offset="0.386719"/><stop stop-opacity="1" stop-color="rgb(88.157654%, 73.25592%, 34.25293%)" offset="0.390625"/><stop stop-opacity="1" stop-color="rgb(88.044739%, 73.052979%, 34.043884%)" offset="0.394531"/><stop stop-opacity="1" stop-color="rgb(87.931824%, 72.850037%, 33.834839%)" offset="0.398437"/><stop stop-opacity="1" stop-color="rgb(87.818909%, 72.647095%, 33.625793%)" offset="0.402344"/><stop stop-opacity="1" stop-color="rgb(87.70752%, 72.444153%, 33.418274%)" offset="0.40625"/><stop stop-opacity="1" stop-color="rgb(87.594604%, 72.239685%, 33.209229%)" offset="0.410156"/><stop stop-opacity="1" stop-color="rgb(87.481689%, 72.036743%, 33.000183%)" offset="0.414062"/><stop stop-opacity="1" stop-color="rgb(87.368774%, 71.833801%, 32.791138%)" offset="0.417969"/><stop stop-opacity="1" stop-color="rgb(87.257385%, 71.630859%, 32.582092%)" offset="0.421875"/><stop stop-opacity="1" stop-color="rgb(87.14447%, 71.427917%, 32.373047%)" offset="0.425781"/><stop stop-opacity="1" stop-color="rgb(87.031555%, 71.224976%, 32.165527%)" offset="0.429687"/><stop stop-opacity="1" stop-color="rgb(86.91864%, 71.022034%, 31.956482%)" offset="0.433594"/><stop stop-opacity="1" stop-color="rgb(86.805725%, 70.819092%, 31.747437%)" offset="0.4375"/><stop stop-opacity="1" stop-color="rgb(86.69281%, 70.61615%, 31.538391%)" offset="0.441406"/><stop stop-opacity="1" stop-color="rgb(86.581421%, 70.413208%, 31.329346%)" offset="0.445312"/><stop stop-opacity="1" stop-color="rgb(86.468506%, 70.210266%, 31.1203%)" offset="0.449219"/><stop stop-opacity="1" stop-color="rgb(86.355591%, 70.007324%, 30.912781%)" offset="0.453125"/><stop stop-opacity="1" stop-color="rgb(86.242676%, 69.804382%, 30.703735%)" offset="0.457031"/><stop stop-opacity="1" stop-color="rgb(86.131287%, 69.60144%, 30.49469%)" offset="0.460937"/><stop stop-opacity="1" stop-color="rgb(86.018372%, 69.398499%, 30.285645%)" offset="0.464844"/><stop stop-opacity="1" stop-color="rgb(85.905457%, 69.195557%, 30.076599%)" offset="0.46875"/><stop stop-opacity="1" stop-color="rgb(85.792542%, 68.992615%, 29.867554%)" offset="0.472656"/><stop stop-opacity="1" stop-color="rgb(85.679626%, 68.789673%, 29.660034%)" offset="0.476562"/><stop stop-opacity="1" stop-color="rgb(85.566711%, 68.585205%, 29.450989%)" offset="0.480469"/><stop stop-opacity="1" stop-color="rgb(85.455322%, 68.382263%, 29.241943%)" offset="0.484375"/><stop stop-opacity="1" stop-color="rgb(85.342407%, 68.179321%, 29.032898%)" offset="0.488281"/><stop stop-opacity="1" stop-color="rgb(85.229492%, 67.976379%, 28.823853%)" offset="0.492187"/><stop stop-opacity="1" stop-color="rgb(85.116577%, 67.773438%, 28.614807%)" offset="0.496094"/><stop stop-opacity="1" stop-color="rgb(85.005188%, 67.570496%, 28.407288%)" offset="0.5"/><stop stop-opacity="1" stop-color="rgb(84.892273%, 67.367554%, 28.198242%)" offset="0.503906"/><stop stop-opacity="1" stop-color="rgb(84.779358%, 67.164612%, 27.989197%)" offset="0.507812"/><stop stop-opacity="1" stop-color="rgb(84.666443%, 66.96167%, 27.780151%)" offset="0.511719"/><stop stop-opacity="1" stop-color="rgb(84.553528%, 66.758728%, 27.571106%)" offset="0.515625"/><stop stop-opacity="1" stop-color="rgb(84.440613%, 66.555786%, 27.362061%)" offset="0.519531"/><stop stop-opacity="1" stop-color="rgb(84.329224%, 66.352844%, 27.154541%)" offset="0.523438"/><stop stop-opacity="1" stop-color="rgb(84.234619%, 66.217041%, 26.954651%)" offset="0.527344"/><stop stop-opacity="1" stop-color="rgb(84.141541%, 66.081238%, 26.756287%)" offset="0.53125"/><stop stop-opacity="1" stop-color="rgb(84.051514%, 65.95459%, 26.559448%)" offset="0.535156"/><stop stop-opacity="1" stop-color="rgb(83.961487%, 65.829468%, 26.36261%)" offset="0.539062"/><stop stop-opacity="1" stop-color="rgb(83.869934%, 65.70282%, 26.164246%)" offset="0.542969"/><stop stop-opacity="1" stop-color="rgb(83.779907%, 65.577698%, 25.967407%)" offset="0.546875"/><stop stop-opacity="1" stop-color="rgb(83.68988%, 65.45105%, 25.769043%)" offset="0.550781"/><stop stop-opacity="1" stop-color="rgb(83.599854%, 65.325928%, 25.572205%)" offset="0.554688"/><stop stop-opacity="1" stop-color="rgb(83.508301%, 65.19928%, 25.375366%)" offset="0.558594"/><stop stop-opacity="1" stop-color="rgb(83.418274%, 65.074158%, 25.178528%)" offset="0.5625"/><stop stop-opacity="1" stop-color="rgb(83.328247%, 64.949036%, 24.980164%)" offset="0.566406"/><stop stop-opacity="1" stop-color="rgb(83.23822%, 64.823914%, 24.783325%)" offset="0.570312"/><stop stop-opacity="1" stop-color="rgb(83.146667%, 64.697266%, 24.586487%)" offset="0.574219"/><stop stop-opacity="1" stop-color="rgb(83.056641%, 64.572144%, 24.389648%)" offset="0.578125"/><stop stop-opacity="1" stop-color="rgb(82.966614%, 64.445496%, 24.191284%)" offset="0.582031"/><stop stop-opacity="1" stop-color="rgb(82.876587%, 64.320374%, 23.994446%)" offset="0.585938"/><stop stop-opacity="1" stop-color="rgb(82.785034%, 64.193726%, 23.797607%)" offset="0.589844"/><stop stop-opacity="1" stop-color="rgb(82.695007%, 64.068604%, 23.600769%)" offset="0.59375"/><stop stop-opacity="1" stop-color="rgb(82.60498%, 63.941956%, 23.402405%)" offset="0.597656"/><stop stop-opacity="1" stop-color="rgb(82.514954%, 63.816833%, 23.205566%)" offset="0.601562"/><stop stop-opacity="1" stop-color="rgb(82.423401%, 63.690186%, 23.008728%)" offset="0.605469"/><stop stop-opacity="1" stop-color="rgb(82.333374%, 63.565063%, 22.81189%)" offset="0.609375"/><stop stop-opacity="1" stop-color="rgb(82.243347%, 63.438416%, 22.613525%)" offset="0.613281"/><stop stop-opacity="1" stop-color="rgb(82.15332%, 63.313293%, 22.416687%)" offset="0.617188"/><stop stop-opacity="1" stop-color="rgb(82.061768%, 63.188171%, 22.218323%)" offset="0.621094"/><stop stop-opacity="1" stop-color="rgb(81.971741%, 63.063049%, 22.021484%)" offset="0.625"/><stop stop-opacity="1" stop-color="rgb(81.881714%, 62.936401%, 21.824646%)" offset="0.628906"/><stop stop-opacity="1" stop-color="rgb(81.791687%, 62.811279%, 21.627808%)" offset="0.632812"/><stop stop-opacity="1" stop-color="rgb(81.700134%, 62.684631%, 21.429443%)" offset="0.636719"/><stop stop-opacity="1" stop-color="rgb(81.610107%, 62.559509%, 21.232605%)" offset="0.640625"/><stop stop-opacity="1" stop-color="rgb(81.520081%, 62.432861%, 21.035767%)" offset="0.644531"/><stop stop-opacity="1" stop-color="rgb(81.430054%, 62.307739%, 20.838928%)" offset="0.648437"/><stop stop-opacity="1" stop-color="rgb(81.338501%, 62.181091%, 20.640564%)" offset="0.652344"/><stop stop-opacity="1" stop-color="rgb(81.248474%, 62.055969%, 20.443726%)" offset="0.65625"/><stop stop-opacity="1" stop-color="rgb(81.158447%, 61.929321%, 20.246887%)" offset="0.660156"/><stop stop-opacity="1" stop-color="rgb(81.06842%, 61.804199%, 20.050049%)" offset="0.664062"/><stop stop-opacity="1" stop-color="rgb(80.976868%, 61.679077%, 19.851685%)" offset="0.667969"/><stop stop-opacity="1" stop-color="rgb(80.886841%, 61.553955%, 19.654846%)" offset="0.671875"/><stop stop-opacity="1" stop-color="rgb(80.796814%, 61.427307%, 19.456482%)" offset="0.675781"/><stop stop-opacity="1" stop-color="rgb(80.706787%, 61.302185%, 19.259644%)" offset="0.679687"/><stop stop-opacity="1" stop-color="rgb(80.615234%, 61.175537%, 19.062805%)" offset="0.683594"/><stop stop-opacity="1" stop-color="rgb(80.525208%, 61.050415%, 18.865967%)" offset="0.6875"/><stop stop-opacity="1" stop-color="rgb(80.435181%, 60.923767%, 18.667603%)" offset="0.691406"/><stop stop-opacity="1" stop-color="rgb(80.345154%, 60.798645%, 18.470764%)" offset="0.695312"/><stop stop-opacity="1" stop-color="rgb(80.253601%, 60.671997%, 18.273926%)" offset="0.699219"/><stop stop-opacity="1" stop-color="rgb(80.163574%, 60.546875%, 18.077087%)" offset="0.703125"/><stop stop-opacity="1" stop-color="rgb(80.073547%, 60.420227%, 17.878723%)" offset="0.707031"/><stop stop-opacity="1" stop-color="rgb(79.983521%, 60.295105%, 17.681885%)" offset="0.710937"/><stop stop-opacity="1" stop-color="rgb(79.891968%, 60.169983%, 17.485046%)" offset="0.714844"/><stop stop-opacity="1" stop-color="rgb(79.801941%, 60.044861%, 17.288208%)" offset="0.71875"/><stop stop-opacity="1" stop-color="rgb(79.711914%, 59.918213%, 17.089844%)" offset="0.722656"/><stop stop-opacity="1" stop-color="rgb(79.621887%, 59.793091%, 16.893005%)" offset="0.726562"/><stop stop-opacity="1" stop-color="rgb(79.530334%, 59.666443%, 16.694641%)" offset="0.730469"/><stop stop-opacity="1" stop-color="rgb(79.440308%, 59.541321%, 16.497803%)" offset="0.734375"/><stop stop-opacity="1" stop-color="rgb(79.350281%, 59.414673%, 16.300964%)" offset="0.738281"/><stop stop-opacity="1" stop-color="rgb(79.260254%, 59.289551%, 16.104126%)" offset="0.742187"/><stop stop-opacity="1" stop-color="rgb(79.168701%, 59.162903%, 15.905762%)" offset="0.746094"/><stop stop-opacity="1" stop-color="rgb(79.078674%, 59.037781%, 15.708923%)" offset="0.75"/><stop stop-opacity="1" stop-color="rgb(78.988647%, 58.911133%, 15.512085%)" offset="0.753906"/><stop stop-opacity="1" stop-color="rgb(78.898621%, 58.786011%, 15.315247%)" offset="0.757812"/><stop stop-opacity="1" stop-color="rgb(78.807068%, 58.660889%, 15.116882%)" offset="0.761719"/><stop stop-opacity="1" stop-color="rgb(78.717041%, 58.535767%, 14.920044%)" offset="0.765625"/><stop stop-opacity="1" stop-color="rgb(78.627014%, 58.409119%, 14.723206%)" offset="0.769531"/><stop stop-opacity="1" stop-color="rgb(78.536987%, 58.283997%, 14.526367%)" offset="0.773438"/><stop stop-opacity="1" stop-color="rgb(78.445435%, 58.157349%, 14.328003%)" offset="0.777344"/><stop stop-opacity="1" stop-color="rgb(78.355408%, 58.032227%, 14.131165%)" offset="0.78125"/><stop stop-opacity="1" stop-color="rgb(78.265381%, 57.905579%, 13.9328%)" offset="0.785156"/><stop stop-opacity="1" stop-color="rgb(78.175354%, 57.780457%, 13.735962%)" offset="0.789062"/><stop stop-opacity="1" stop-color="rgb(78.083801%, 57.653809%, 13.539124%)" offset="0.792969"/><stop stop-opacity="1" stop-color="rgb(77.993774%, 57.528687%, 13.342285%)" offset="0.796875"/><stop stop-opacity="1" stop-color="rgb(77.903748%, 57.402039%, 13.143921%)" offset="0.800781"/><stop stop-opacity="1" stop-color="rgb(77.813721%, 57.276917%, 12.947083%)" offset="0.804688"/><stop stop-opacity="1" stop-color="rgb(77.722168%, 57.151794%, 12.750244%)" offset="0.808594"/><stop stop-opacity="1" stop-color="rgb(77.632141%, 57.026672%, 12.553406%)" offset="0.8125"/><stop stop-opacity="1" stop-color="rgb(77.542114%, 56.900024%, 12.355042%)" offset="0.816406"/><stop stop-opacity="1" stop-color="rgb(77.452087%, 56.774902%, 12.158203%)" offset="0.820312"/><stop stop-opacity="1" stop-color="rgb(77.360535%, 56.648254%, 11.961365%)" offset="0.824219"/><stop stop-opacity="1" stop-color="rgb(77.270508%, 56.523132%, 11.764526%)" offset="0.828125"/><stop stop-opacity="1" stop-color="rgb(77.178955%, 56.396484%, 11.566162%)" offset="0.832031"/><stop stop-opacity="1" stop-color="rgb(77.088928%, 56.271362%, 11.369324%)" offset="0.835938"/><stop stop-opacity="1" stop-color="rgb(76.998901%, 56.144714%, 11.170959%)" offset="0.839844"/><stop stop-opacity="1" stop-color="rgb(76.908875%, 56.019592%, 10.974121%)" offset="0.84375"/><stop stop-opacity="1" stop-color="rgb(76.817322%, 55.892944%, 10.777283%)" offset="0.847656"/><stop stop-opacity="1" stop-color="rgb(76.727295%, 55.767822%, 10.580444%)" offset="0.851562"/><stop stop-opacity="1" stop-color="rgb(76.637268%, 55.641174%, 10.38208%)" offset="0.855469"/><stop stop-opacity="1" stop-color="rgb(76.547241%, 55.516052%, 10.185242%)" offset="0.859375"/><stop stop-opacity="1" stop-color="rgb(76.455688%, 55.39093%, 9.988403%)" offset="0.863281"/><stop stop-opacity="1" stop-color="rgb(76.365662%, 55.265808%, 9.791565%)" offset="0.867188"/><stop stop-opacity="1" stop-color="rgb(76.275635%, 55.13916%, 9.593201%)" offset="0.871094"/><stop stop-opacity="1" stop-color="rgb(76.185608%, 55.014038%, 9.396362%)" offset="0.875"/><stop stop-opacity="1" stop-color="rgb(76.094055%, 54.88739%, 9.199524%)" offset="0.878906"/><stop stop-opacity="1" stop-color="rgb(76.004028%, 54.762268%, 9.002686%)" offset="0.882812"/><stop stop-opacity="1" stop-color="rgb(75.914001%, 54.63562%, 8.804321%)" offset="0.886719"/><stop stop-opacity="1" stop-color="rgb(75.823975%, 54.510498%, 8.607483%)" offset="0.890625"/><stop stop-opacity="1" stop-color="rgb(75.732422%, 54.38385%, 8.409119%)" offset="0.894531"/><stop stop-opacity="1" stop-color="rgb(75.642395%, 54.258728%, 8.21228%)" offset="0.898437"/><stop stop-opacity="1" stop-color="rgb(75.552368%, 54.13208%, 8.015442%)" offset="0.902344"/><stop stop-opacity="1" stop-color="rgb(75.462341%, 54.006958%, 7.818604%)" offset="0.90625"/><stop stop-opacity="1" stop-color="rgb(75.370789%, 53.881836%, 7.620239%)" offset="0.910156"/><stop stop-opacity="1" stop-color="rgb(75.280762%, 53.756714%, 7.423401%)" offset="0.914062"/><stop stop-opacity="1" stop-color="rgb(75.190735%, 53.630066%, 7.226562%)" offset="0.917969"/><stop stop-opacity="1" stop-color="rgb(75.100708%, 53.504944%, 7.029724%)" offset="0.921875"/><stop stop-opacity="1" stop-color="rgb(75.009155%, 53.378296%, 6.83136%)" offset="0.925781"/><stop stop-opacity="1" stop-color="rgb(74.919128%, 53.253174%, 6.634521%)" offset="0.929687"/><stop stop-opacity="1" stop-color="rgb(74.829102%, 53.126526%, 6.437683%)" offset="0.933594"/><stop stop-opacity="1" stop-color="rgb(74.739075%, 53.001404%, 6.240845%)" offset="0.9375"/><stop stop-opacity="1" stop-color="rgb(74.647522%, 52.874756%, 6.04248%)" offset="0.941406"/><stop stop-opacity="1" stop-color="rgb(74.557495%, 52.749634%, 5.845642%)" offset="0.945312"/><stop stop-opacity="1" stop-color="rgb(74.467468%, 52.622986%, 5.647278%)" offset="0.949219"/><stop stop-opacity="1" stop-color="rgb(74.377441%, 52.497864%, 5.450439%)" offset="0.953125"/><stop stop-opacity="1" stop-color="rgb(74.285889%, 52.372742%, 5.253601%)" offset="0.957031"/><stop stop-opacity="1" stop-color="rgb(74.195862%, 52.24762%, 5.056763%)" offset="0.960937"/><stop stop-opacity="1" stop-color="rgb(74.105835%, 52.120972%, 4.858398%)" offset="0.964844"/><stop stop-opacity="1" stop-color="rgb(74.015808%, 51.99585%, 4.66156%)" offset="0.96875"/><stop stop-opacity="1" stop-color="rgb(73.924255%, 51.869202%, 4.464722%)" offset="0.972656"/><stop stop-opacity="1" stop-color="rgb(73.834229%, 51.74408%, 4.267883%)" offset="0.976562"/><stop stop-opacity="1" stop-color="rgb(73.744202%, 51.617432%, 4.069519%)" offset="0.980469"/><stop stop-opacity="1" stop-color="rgb(73.654175%, 51.49231%, 3.872681%)" offset="0.984375"/><stop stop-opacity="1" stop-color="rgb(73.562622%, 51.365662%, 3.675842%)" offset="0.988281"/><stop stop-opacity="1" stop-color="rgb(73.472595%, 51.24054%, 3.479004%)" offset="0.992187"/><stop stop-opacity="1" stop-color="rgb(73.38562%, 51.119995%, 3.288269%)" offset="1"/></linearGradient></defs><g clip-path="url(#2fc5c99f7b)"><rect x="-7.5" fill="url(#cb5cf4b817)" width="90" y="-7.5" height="89.999996"/></g><path fill="#000000" d="M 37.5 3.015625 C 56.535156 3.015625 71.984375 18.46875 71.984375 37.5 C 71.984375 56.535156 56.535156 71.984375 37.5 71.984375 C 18.46875 71.984375 3.015625 56.535156 3.015625 37.5 C 3.015625 18.46875 18.46875 3.015625 37.5 3.015625 Z M 37.5 16.257812 C 49.222656 16.257812 58.742188 25.777344 58.742188 37.5 C 58.742188 49.222656 49.222656 58.742188 37.5 58.742188 C 25.777344 58.742188 16.257812 49.222656 16.257812 37.5 C 16.257812 25.777344 25.777344 16.257812 37.5 16.257812 Z M 37.5 16.257812 " fill-opacity="1" fill-rule="evenodd"/><path fill="#000000" d="M 39.296875 45.4375 C 38.128906 45.4375 37.234375 45.105469 36.613281 44.445312 C 35.996094 43.78125 35.683594 42.84375 35.683594 41.632812 L 35.683594 33.679688 C 35.683594 32.46875 35.996094 31.53125 36.613281 30.867188 C 37.234375 30.203125 38.128906 29.875 39.296875 29.875 C 40.460938 29.875 41.355469 30.203125 41.976562 30.867188 C 42.59375 31.53125 42.90625 32.46875 42.90625 33.679688 L 42.90625 41.632812 C 42.90625 42.84375 42.59375 43.78125 41.976562 44.445312 C 41.355469 45.105469 40.460938 45.4375 39.296875 45.4375 Z M 30.648438 45.4375 C 29.480469 45.4375 28.585938 45.105469 27.96875 44.445312 C 27.347656 43.78125 27.039062 42.84375 27.039062 41.632812 L 27.039062 33.679688 C 27.039062 32.46875 27.347656 31.53125 27.96875 30.867188 C 28.585938 30.203125 29.480469 29.875 30.648438 29.875 C 31.816406 29.875 32.707031 30.203125 33.328125 30.867188 C 33.949219 31.53125 34.257812 32.46875 34.257812 33.679688 L 34.257812 41.632812 C 34.257812 42.84375 33.949219 43.78125 33.328125 44.445312 C 32.707031 45.105469 31.816406 45.4375 30.648438 45.4375 Z M 53.304688 45.4375 C 52.554688 45.4375 51.984375 45.230469 51.597656 44.8125 C 51.207031 44.394531 51.011719 43.796875 51.011719 43.015625 L 51.011719 39.234375 C 51.011719 38.457031 51.207031 37.859375 51.597656 37.441406 C 51.984375 37.023438 52.554688 36.8125 53.304688 36.8125 C 54.054688 36.8125 54.621094 37.023438 55.011719 37.441406 C 55.402344 37.859375 55.59375 38.457031 55.59375 39.234375 L 55.59375 43.015625 C 55.59375 43.796875 55.402344 44.394531 55.011719 44.8125 C 54.621094 45.230469 54.054688 45.4375 53.304688 45.4375 Z M 21.890625 33.679688 L 19.40625 33.679688 L 19.40625 31.992188 C 20.082031 31.992188 20.628906 31.933594 21.039062 31.820312 C 21.449219 31.703125 21.777344 31.511719 22.023438 31.246094 C 22.265625 30.980469 22.484375 30.59375 22.671875 30.089844 L 24.269531 30.089844 L 24.269531 45.222656 L 21.890625 45.222656 Z M 52.15625 30.089844 L 53.671875 30.089844 L 47.8125 45.222656 L 46.300781 45.222656 Z M 53.304688 44.078125 C 53.824219 44.078125 54.082031 43.761719 54.082031 43.125 L 54.082031 39.125 C 54.082031 38.492188 53.824219 38.175781 53.304688 38.175781 C 52.785156 38.175781 52.527344 38.492188 52.527344 39.125 L 52.527344 43.125 C 52.527344 43.761719 52.785156 44.078125 53.304688 44.078125 Z M 39.296875 43.277344 C 40.117188 43.277344 40.527344 42.78125 40.527344 41.785156 L 40.527344 33.527344 C 40.527344 32.53125 40.117188 32.035156 39.296875 32.035156 C 38.472656 32.035156 38.0625 32.53125 38.0625 33.527344 L 38.0625 41.785156 C 38.0625 42.78125 38.472656 43.277344 39.296875 43.277344 Z M 30.648438 43.277344 C 31.46875 43.277344 31.878906 42.78125 31.878906 41.785156 L 31.878906 33.527344 C 31.878906 32.53125 31.46875 32.035156 30.648438 32.035156 C 29.824219 32.035156 29.414062 32.53125 29.414062 33.527344 L 29.414062 41.785156 C 29.414062 42.78125 29.824219 43.277344 30.648438 43.277344 Z M 46.667969 38.5 C 45.917969 38.5 45.347656 38.289062 44.960938 37.871094 C 44.570312 37.453125 44.375 36.855469 44.375 36.078125 L 44.375 32.292969 C 44.375 31.515625 44.570312 30.917969 44.960938 30.5 C 45.347656 30.082031 45.917969 29.875 46.667969 29.875 C 47.417969 29.875 47.984375 30.082031 48.375 30.5 C 48.765625 30.917969 48.957031 31.515625 48.957031 32.292969 L 48.957031 36.078125 C 48.957031 36.855469 48.765625 37.453125 48.375 37.871094 C 47.984375 38.289062 47.417969 38.5 46.667969 38.5 Z M 46.667969 37.136719 C 47.1875 37.136719 47.445312 36.820312 47.445312 36.1875 L 47.445312 32.1875 C 47.445312 31.550781 47.1875 31.234375 46.667969 31.234375 C 46.148438 31.234375 45.886719 31.550781 45.886719 32.1875 L 45.886719 36.1875 C 45.886719 36.820312 46.148438 37.136719 46.667969 37.136719 Z M 46.667969 37.136719 " fill-opacity="1" fill-rule="nonzero"/><path fill="#ffffff" d="M 17.964844 19.339844 C 17.882812 19.269531 17.800781 19.230469 17.714844 19.226562 C 17.628906 19.222656 17.539062 19.242188 17.445312 19.28125 C 17.355469 19.320312 17.261719 19.375 17.164062 19.445312 C 17.070312 19.511719 16.96875 19.585938 16.867188 19.664062 C 16.730469 19.761719 16.59375 19.855469 16.457031 19.933594 C 16.316406 20.015625 16.175781 20.070312 16.035156 20.097656 C 15.890625 20.125 15.746094 20.121094 15.597656 20.082031 C 15.453125 20.042969 15.300781 19.953125 15.148438 19.820312 C 14.976562 19.667969 14.855469 19.507812 14.78125 19.339844 C 14.707031 19.167969 14.675781 18.996094 14.683594 18.824219 C 14.691406 18.648438 14.734375 18.472656 14.8125 18.300781 C 14.894531 18.128906 15.007812 17.957031 15.160156 17.785156 C 15.3125 17.613281 15.480469 17.457031 15.664062 17.3125 C 15.851562 17.171875 16.027344 17.058594 16.1875 16.980469 L 16.691406 17.425781 C 16.480469 17.535156 16.292969 17.652344 16.128906 17.777344 C 15.964844 17.90625 15.820312 18.035156 15.703125 18.171875 C 15.53125 18.363281 15.4375 18.542969 15.414062 18.710938 C 15.390625 18.878906 15.453125 19.023438 15.59375 19.148438 C 15.675781 19.21875 15.757812 19.261719 15.839844 19.273438 C 15.921875 19.285156 16.007812 19.277344 16.09375 19.25 C 16.179688 19.222656 16.269531 19.175781 16.355469 19.117188 C 16.445312 19.058594 16.535156 18.996094 16.628906 18.925781 C 16.78125 18.8125 16.925781 18.710938 17.074219 18.621094 C 17.222656 18.53125 17.371094 18.46875 17.523438 18.429688 C 17.675781 18.394531 17.828125 18.394531 17.988281 18.433594 C 18.144531 18.472656 18.308594 18.566406 18.476562 18.714844 C 18.648438 18.867188 18.769531 19.03125 18.839844 19.207031 C 18.910156 19.382812 18.933594 19.566406 18.914062 19.753906 C 18.890625 19.945312 18.828125 20.144531 18.71875 20.347656 C 18.609375 20.550781 18.46875 20.75 18.292969 20.953125 C 18.136719 21.125 17.96875 21.28125 17.785156 21.421875 C 17.601562 21.558594 17.429688 21.65625 17.269531 21.714844 L 16.773438 21.277344 C 16.980469 21.179688 17.167969 21.066406 17.332031 20.945312 C 17.496094 20.824219 17.648438 20.679688 17.789062 20.519531 C 17.871094 20.429688 17.941406 20.328125 18.007812 20.226562 C 18.070312 20.125 18.117188 20.019531 18.140625 19.917969 C 18.167969 19.8125 18.167969 19.710938 18.144531 19.613281 C 18.117188 19.511719 18.058594 19.421875 17.964844 19.339844 Z M 58.195312 19.046875 C 58.078125 19.570312 57.960938 20.015625 57.839844 20.386719 L 57.855469 20.398438 C 58.246094 20.003906 58.539062 19.722656 58.726562 19.550781 L 60.15625 18.238281 L 60.6875 18.820312 L 57.527344 21.710938 L 56.972656 21.105469 L 57.484375 18.742188 C 57.570312 18.332031 57.6875 17.878906 57.84375 17.378906 L 57.832031 17.367188 C 57.460938 17.738281 57.171875 18.023438 56.957031 18.21875 L 55.527344 19.527344 L 54.996094 18.949219 L 58.15625 16.054688 L 58.710938 16.664062 Z M 21.507812 16.324219 L 20.25 17.335938 L 20.609375 18.449219 L 19.957031 18.972656 L 18.59375 14.570312 L 19.152344 14.121094 L 23.164062 16.390625 L 22.519531 16.910156 Z M 55.402344 16.425781 C 55.210938 16.6875 54.996094 16.902344 54.761719 17.066406 C 54.527344 17.234375 54.277344 17.34375 54.019531 17.398438 C 53.757812 17.449219 53.492188 17.445312 53.21875 17.378906 C 52.945312 17.316406 52.675781 17.1875 52.40625 16.992188 C 52.140625 16.796875 51.933594 16.578125 51.789062 16.339844 C 51.644531 16.097656 51.554688 15.84375 51.527344 15.582031 C 51.5 15.316406 51.527344 15.050781 51.613281 14.773438 C 51.699219 14.5 51.835938 14.230469 52.027344 13.964844 C 52.222656 13.703125 52.433594 13.488281 52.667969 13.324219 C 52.90625 13.15625 53.152344 13.046875 53.410156 12.992188 C 53.671875 12.941406 53.9375 12.945312 54.210938 13.011719 C 54.484375 13.074219 54.757812 13.203125 55.023438 13.398438 C 55.289062 13.59375 55.496094 13.8125 55.644531 14.050781 C 55.789062 14.292969 55.875 14.546875 55.902344 14.808594 C 55.933594 15.074219 55.902344 15.339844 55.820312 15.617188 C 55.734375 15.890625 55.59375 16.160156 55.402344 16.425781 Z M 54.746094 15.949219 C 54.902344 15.738281 55.007812 15.535156 55.074219 15.339844 C 55.136719 15.144531 55.160156 14.960938 55.144531 14.789062 C 55.128906 14.617188 55.078125 14.457031 54.992188 14.3125 C 54.902344 14.171875 54.785156 14.042969 54.632812 13.933594 C 54.484375 13.824219 54.328125 13.75 54.164062 13.710938 C 54 13.671875 53.832031 13.671875 53.664062 13.710938 C 53.496094 13.746094 53.328125 13.828125 53.164062 13.949219 C 52.996094 14.066406 52.835938 14.234375 52.683594 14.441406 C 52.53125 14.652344 52.421875 14.855469 52.359375 15.050781 C 52.296875 15.246094 52.269531 15.429688 52.285156 15.601562 C 52.300781 15.773438 52.355469 15.929688 52.441406 16.074219 C 52.527344 16.21875 52.648438 16.347656 52.796875 16.457031 C 52.949219 16.566406 53.105469 16.640625 53.269531 16.679688 C 53.433594 16.71875 53.597656 16.71875 53.765625 16.679688 C 53.933594 16.640625 54.101562 16.5625 54.269531 16.441406 C 54.433594 16.324219 54.59375 16.15625 54.746094 15.949219 Z M 19.519531 15.152344 C 19.683594 15.59375 19.8125 15.96875 19.910156 16.277344 L 20.035156 16.664062 L 20.898438 15.972656 L 20.542969 15.765625 C 20.265625 15.601562 19.925781 15.394531 19.527344 15.144531 Z M 25.199219 15.230469 L 24.519531 15.621094 L 22.714844 12.476562 L 21.515625 13.164062 L 21.1875 12.59375 L 24.265625 10.828125 L 24.589844 11.398438 L 23.394531 12.085938 Z M 49.019531 14.816406 L 51.023438 11.027344 L 51.714844 11.394531 L 49.714844 15.183594 Z M 27.277344 14.199219 L 25.613281 10.253906 L 26.335938 9.949219 L 28 13.894531 Z M 46.910156 13.859375 L 46.179688 13.582031 L 47.46875 10.191406 L 46.175781 9.699219 L 46.410156 9.085938 L 49.726562 10.347656 L 49.492188 10.960938 L 48.203125 10.472656 Z M 30.953125 11.636719 C 30.925781 11.53125 30.875 11.453125 30.804688 11.402344 C 30.734375 11.351562 30.652344 11.320312 30.550781 11.304688 C 30.449219 11.285156 30.34375 11.28125 30.226562 11.285156 C 30.109375 11.292969 29.984375 11.300781 29.855469 11.308594 C 29.6875 11.320312 29.523438 11.320312 29.363281 11.3125 C 29.203125 11.304688 29.054688 11.277344 28.921875 11.222656 C 28.785156 11.167969 28.667969 11.085938 28.566406 10.972656 C 28.460938 10.859375 28.382812 10.703125 28.328125 10.507812 C 28.265625 10.289062 28.25 10.089844 28.28125 9.90625 C 28.3125 9.722656 28.378906 9.558594 28.476562 9.417969 C 28.578125 9.273438 28.710938 9.152344 28.871094 9.050781 C 29.03125 8.949219 29.222656 8.867188 29.441406 8.804688 C 29.660156 8.742188 29.886719 8.703125 30.121094 8.683594 C 30.355469 8.664062 30.5625 8.664062 30.742188 8.6875 L 30.925781 9.335938 C 30.6875 9.3125 30.464844 9.308594 30.257812 9.324219 C 30.050781 9.34375 29.859375 9.375 29.6875 9.425781 C 29.441406 9.492188 29.261719 9.59375 29.152344 9.722656 C 29.042969 9.851562 29.015625 10.003906 29.066406 10.183594 C 29.09375 10.289062 29.140625 10.371094 29.203125 10.425781 C 29.265625 10.480469 29.34375 10.519531 29.433594 10.542969 C 29.519531 10.566406 29.617188 10.574219 29.722656 10.574219 C 29.828125 10.574219 29.941406 10.570312 30.058594 10.558594 C 30.242188 10.546875 30.421875 10.542969 30.59375 10.546875 C 30.769531 10.550781 30.929688 10.578125 31.074219 10.628906 C 31.222656 10.679688 31.351562 10.765625 31.464844 10.882812 C 31.574219 11.003906 31.660156 11.171875 31.722656 11.386719 C 31.785156 11.605469 31.796875 11.8125 31.761719 11.996094 C 31.722656 12.183594 31.644531 12.347656 31.523438 12.496094 C 31.402344 12.644531 31.242188 12.777344 31.039062 12.886719 C 30.839844 13 30.609375 13.09375 30.351562 13.164062 C 30.128906 13.226562 29.902344 13.269531 29.671875 13.285156 C 29.445312 13.300781 29.246094 13.289062 29.082031 13.25 L 28.902344 12.613281 C 29.128906 12.644531 29.34375 12.652344 29.550781 12.636719 C 29.753906 12.625 29.960938 12.585938 30.164062 12.527344 C 30.285156 12.496094 30.398438 12.453125 30.507812 12.402344 C 30.617188 12.347656 30.710938 12.285156 30.789062 12.214844 C 30.867188 12.140625 30.921875 12.054688 30.953125 11.957031 C 30.988281 11.863281 30.988281 11.753906 30.953125 11.636719 Z M 44.007812 9.085938 C 43.796875 9.042969 43.597656 9.039062 43.40625 9.070312 C 43.214844 9.105469 43.042969 9.171875 42.890625 9.277344 C 42.738281 9.386719 42.605469 9.527344 42.496094 9.707031 C 42.382812 9.886719 42.304688 10.097656 42.253906 10.347656 C 42.203125 10.59375 42.191406 10.816406 42.214844 11.019531 C 42.242188 11.21875 42.304688 11.394531 42.398438 11.542969 C 42.496094 11.695312 42.625 11.820312 42.785156 11.917969 C 42.945312 12.019531 43.136719 12.089844 43.359375 12.136719 C 43.519531 12.167969 43.683594 12.1875 43.855469 12.199219 C 44.023438 12.207031 44.1875 12.203125 44.339844 12.183594 L 44.207031 12.84375 C 44.050781 12.855469 43.886719 12.855469 43.710938 12.847656 C 43.539062 12.835938 43.359375 12.8125 43.175781 12.773438 C 42.820312 12.703125 42.519531 12.585938 42.269531 12.429688 C 42.023438 12.273438 41.824219 12.085938 41.683594 11.863281 C 41.539062 11.640625 41.449219 11.390625 41.410156 11.113281 C 41.371094 10.839844 41.386719 10.542969 41.449219 10.234375 C 41.515625 9.914062 41.625 9.625 41.777344 9.371094 C 41.929688 9.117188 42.117188 8.910156 42.34375 8.746094 C 42.566406 8.582031 42.828125 8.472656 43.125 8.414062 C 43.425781 8.355469 43.75 8.359375 44.09375 8.425781 C 44.273438 8.464844 44.4375 8.511719 44.59375 8.566406 C 44.746094 8.625 44.882812 8.6875 45 8.757812 L 44.867188 9.410156 C 44.710938 9.324219 44.5625 9.253906 44.421875 9.203125 C 44.285156 9.152344 44.144531 9.113281 44.007812 9.085938 Z M 34.027344 12.292969 L 33.246094 12.382812 L 32.761719 8.125 L 35.472656 7.816406 L 35.546875 8.46875 L 33.617188 8.6875 L 33.742188 9.789062 L 35.390625 9.601562 L 35.464844 10.253906 L 33.816406 10.441406 Z M 39.144531 11.007812 L 37.53125 10.960938 L 37.078125 12.039062 L 36.242188 12.011719 L 38.074219 7.78125 L 38.789062 7.804688 L 40.355469 12.140625 L 39.527344 12.113281 Z M 38.398438 8.824219 C 38.234375 9.269531 38.089844 9.636719 37.960938 9.933594 L 37.804688 10.3125 L 38.910156 10.34375 L 38.777344 9.960938 C 38.667969 9.652344 38.546875 9.273438 38.410156 8.824219 Z M 38.398438 8.824219 " fill-opacity="1" fill-rule="nonzero"/><path fill="#ffffff" d="M 37.5 19.40625 L 38.058594 21.128906 L 39.871094 21.128906 L 38.40625 22.191406 L 38.964844 23.914062 L 37.5 22.847656 L 36.035156 23.914062 L 36.597656 22.191406 L 35.132812 21.128906 L 36.941406 21.128906 Z M 43.539062 20.675781 L 42.867188 21.714844 L 41.667969 21.394531 L 42.449219 22.355469 L 41.773438 23.394531 L 42.929688 22.949219 L 43.710938 23.914062 L 43.644531 22.675781 L 44.800781 22.230469 L 43.605469 21.910156 Z M 31.460938 20.675781 L 32.136719 21.714844 L 33.332031 21.394531 L 32.550781 22.355469 L 33.226562 23.394531 L 32.070312 22.949219 L 31.292969 23.914062 L 31.355469 22.675781 L 30.199219 22.230469 L 31.394531 21.910156 Z M 31.460938 20.675781 " fill-opacity="1" fill-rule="evenodd"/><path fill="#ffffff" d="M 37.5 51.398438 L 38.058594 53.121094 L 39.871094 53.121094 L 38.40625 54.183594 L 38.964844 55.90625 L 37.5 54.84375 L 36.035156 55.90625 L 36.597656 54.183594 L 35.132812 53.121094 L 36.941406 53.121094 Z M 32.070312 51.828125 L 32.136719 53.066406 L 33.332031 53.386719 L 32.175781 53.832031 L 32.242188 55.066406 L 31.460938 54.105469 L 30.304688 54.546875 L 30.980469 53.511719 L 30.199219 52.546875 L 31.394531 52.867188 Z M 42.929688 51.828125 L 42.867188 53.066406 L 41.667969 53.386719 L 42.824219 53.832031 L 42.761719 55.066406 L 43.539062 54.105469 L 44.695312 54.546875 L 44.023438 53.511719 L 44.800781 52.546875 L 43.605469 52.867188 Z M 42.929688 51.828125 " fill-opacity="1" fill-rule="evenodd"/><path fill="#ffffff" d="M 33.867188 64.996094 C 33.613281 64.523438 33.410156 64.109375 33.257812 63.75 L 33.242188 63.75 C 33.199219 64.304688 33.164062 64.707031 33.136719 64.960938 L 32.910156 66.886719 L 32.128906 66.796875 L 32.632812 62.542969 L 33.449219 62.636719 L 34.605469 64.761719 C 34.808594 65.128906 35.011719 65.550781 35.222656 66.027344 L 35.238281 66.03125 C 35.277344 65.507812 35.3125 65.101562 35.34375 64.816406 L 35.574219 62.890625 L 36.351562 62.980469 L 35.847656 67.234375 L 35.03125 67.136719 Z M 38.277344 64.03125 L 39.886719 63.933594 L 40.242188 62.820312 L 41.078125 62.773438 L 39.632812 67.148438 L 38.917969 67.191406 L 36.96875 63.015625 L 37.792969 62.964844 Z M 42.257812 65.574219 C 42.195312 65.28125 42.222656 65.019531 42.335938 64.777344 C 42.453125 64.539062 42.667969 64.332031 42.984375 64.160156 L 42.984375 64.148438 L 41.355469 62.707031 L 42.277344 62.5 L 43.773438 63.867188 L 44.296875 63.75 L 43.9375 62.132812 L 44.703125 61.960938 L 45.632812 66.144531 L 44.359375 66.425781 C 44.148438 66.472656 43.953125 66.503906 43.765625 66.519531 C 43.578125 66.535156 43.414062 66.535156 43.277344 66.515625 C 43.007812 66.476562 42.789062 66.378906 42.613281 66.226562 C 42.441406 66.070312 42.320312 65.855469 42.257812 65.574219 Z M 29.957031 61.800781 L 30.707031 62.023438 L 29.6875 65.503906 L 31.011719 65.890625 L 30.828125 66.523438 L 27.425781 65.523438 L 27.609375 64.894531 L 28.933594 65.28125 Z M 39.21875 66.140625 C 39.339844 65.683594 39.453125 65.300781 39.550781 64.996094 L 39.675781 64.605469 L 38.570312 64.671875 L 38.738281 65.042969 C 38.871094 65.339844 39.027344 65.703125 39.203125 66.140625 Z M 44.0625 64.476562 C 43.886719 64.515625 43.738281 64.554688 43.621094 64.597656 C 43.503906 64.640625 43.40625 64.6875 43.328125 64.738281 C 43.1875 64.828125 43.097656 64.933594 43.0625 65.046875 C 43.027344 65.160156 43.023438 65.285156 43.050781 65.414062 C 43.074219 65.527344 43.121094 65.621094 43.1875 65.699219 C 43.253906 65.773438 43.347656 65.824219 43.472656 65.851562 C 43.550781 65.867188 43.648438 65.871094 43.761719 65.863281 C 43.878906 65.851562 44.015625 65.832031 44.179688 65.792969 L 44.722656 65.671875 L 44.441406 64.390625 Z M 46.871094 62.339844 L 48.359375 61.722656 L 48.332031 60.554688 L 49.105469 60.234375 L 49.167969 64.839844 L 48.507812 65.113281 L 45.300781 61.804688 L 46.066406 61.488281 Z M 27.078125 61.433594 L 25.167969 60.542969 L 25.445312 59.949219 L 28.066406 61.171875 L 26.25 65.050781 L 23.738281 63.878906 L 24.015625 63.285156 L 25.820312 64.125 L 26.289062 63.121094 L 24.738281 62.398438 L 25.015625 61.804688 L 26.566406 62.527344 Z M 48.445312 64.023438 C 48.414062 63.554688 48.394531 63.15625 48.386719 62.832031 L 48.378906 62.425781 L 47.355469 62.847656 L 47.636719 63.144531 C 47.859375 63.378906 48.125 63.675781 48.433594 64.03125 Z M 51.109375 58.898438 C 51.296875 58.777344 51.476562 58.6875 51.652344 58.628906 C 51.828125 58.566406 51.996094 58.535156 52.152344 58.53125 C 52.3125 58.527344 52.464844 58.550781 52.609375 58.597656 C 52.753906 58.644531 52.890625 58.71875 53.019531 58.8125 C 53.125 58.886719 53.222656 58.980469 53.320312 59.09375 C 53.414062 59.207031 53.507812 59.335938 53.605469 59.488281 L 54.960938 61.613281 L 54.300781 62.035156 L 52.980469 59.96875 C 52.820312 59.714844 52.660156 59.53125 52.507812 59.425781 C 52.339844 59.3125 52.164062 59.257812 51.988281 59.273438 C 51.8125 59.285156 51.632812 59.347656 51.457031 59.460938 C 51.277344 59.574219 51.144531 59.707031 51.058594 59.863281 C 50.972656 60.019531 50.945312 60.199219 50.980469 60.402344 C 51.011719 60.585938 51.109375 60.804688 51.269531 61.058594 L 52.589844 63.128906 L 51.925781 63.546875 L 50.570312 61.421875 C 50.476562 61.269531 50.394531 61.128906 50.335938 60.996094 C 50.273438 60.859375 50.230469 60.730469 50.207031 60.605469 C 50.175781 60.449219 50.167969 60.292969 50.1875 60.140625 C 50.207031 59.988281 50.25 59.839844 50.324219 59.695312 C 50.398438 59.554688 50.5 59.414062 50.628906 59.277344 C 50.757812 59.144531 50.917969 59.015625 51.109375 58.898438 Z M 23.695312 59.652344 L 21.9375 58.492188 L 22.300781 57.945312 L 24.710938 59.535156 L 22.351562 63.109375 L 20.035156 61.582031 L 20.394531 61.035156 L 22.058594 62.128906 L 22.667969 61.207031 L 21.242188 60.265625 L 21.605469 59.714844 L 23.03125 60.660156 Z M 21.621094 57.453125 L 18.71875 60.601562 L 17.886719 59.832031 C 17.8125 59.765625 17.738281 59.695312 17.667969 59.621094 C 17.59375 59.542969 17.527344 59.46875 17.464844 59.394531 C 17.398438 59.316406 17.339844 59.242188 17.285156 59.164062 C 17.230469 59.089844 17.183594 59.015625 17.144531 58.945312 C 17.027344 58.738281 16.945312 58.53125 16.898438 58.320312 C 16.855469 58.109375 16.84375 57.902344 16.871094 57.699219 C 16.898438 57.496094 16.960938 57.296875 17.058594 57.101562 C 17.15625 56.90625 17.285156 56.71875 17.449219 56.542969 C 17.605469 56.371094 17.773438 56.230469 17.945312 56.117188 C 18.121094 56.003906 18.300781 55.921875 18.492188 55.871094 C 18.683594 55.816406 18.878906 55.800781 19.082031 55.8125 C 19.285156 55.828125 19.492188 55.878906 19.707031 55.96875 C 19.886719 56.039062 20.074219 56.140625 20.265625 56.273438 C 20.460938 56.40625 20.660156 56.566406 20.875 56.761719 Z M 55.105469 58.089844 L 55.808594 57.4375 L 56.253906 57.917969 L 54.972656 59.101562 L 53.507812 57.515625 C 53.539062 57.457031 53.582031 57.382812 53.636719 57.296875 C 53.691406 57.210938 53.757812 57.117188 53.835938 57.019531 C 53.910156 56.921875 53.992188 56.824219 54.082031 56.726562 C 54.167969 56.628906 54.257812 56.535156 54.351562 56.449219 C 54.632812 56.1875 54.914062 56 55.195312 55.878906 C 55.476562 55.761719 55.753906 55.707031 56.019531 55.714844 C 56.289062 55.722656 56.542969 55.789062 56.789062 55.914062 C 57.035156 56.039062 57.265625 56.21875 57.476562 56.449219 C 57.628906 56.613281 57.753906 56.785156 57.855469 56.96875 C 57.953125 57.148438 58.027344 57.335938 58.070312 57.527344 C 58.117188 57.722656 58.136719 57.914062 58.128906 58.109375 C 58.121094 58.308594 58.085938 58.5 58.019531 58.695312 C 57.957031 58.886719 57.863281 59.074219 57.742188 59.257812 C 57.621094 59.441406 57.472656 59.613281 57.292969 59.777344 C 57.136719 59.925781 56.976562 60.054688 56.8125 60.164062 C 56.648438 60.269531 56.503906 60.351562 56.382812 60.402344 L 55.933594 59.914062 C 56.089844 59.839844 56.242188 59.753906 56.386719 59.660156 C 56.527344 59.566406 56.664062 59.460938 56.789062 59.34375 C 56.960938 59.183594 57.097656 59.011719 57.199219 58.824219 C 57.300781 58.632812 57.359375 58.441406 57.378906 58.238281 C 57.394531 58.039062 57.367188 57.835938 57.296875 57.632812 C 57.222656 57.429688 57.097656 57.234375 56.921875 57.042969 C 56.578125 56.671875 56.222656 56.484375 55.859375 56.476562 C 55.492188 56.46875 55.132812 56.628906 54.78125 56.953125 C 54.714844 57.015625 54.648438 57.082031 54.585938 57.15625 C 54.519531 57.226562 54.46875 57.292969 54.425781 57.351562 Z M 20.363281 57.183594 C 20.023438 56.875 19.71875 56.675781 19.445312 56.59375 C 19.199219 56.523438 18.960938 56.527344 18.726562 56.605469 C 18.496094 56.683594 18.265625 56.847656 18.039062 57.09375 C 17.921875 57.222656 17.828125 57.351562 17.761719 57.480469 C 17.691406 57.609375 17.648438 57.738281 17.628906 57.871094 C 17.605469 58 17.605469 58.128906 17.628906 58.257812 C 17.652344 58.386719 17.695312 58.511719 17.753906 58.636719 C 17.8125 58.753906 17.890625 58.871094 17.984375 58.988281 C 18.078125 59.105469 18.195312 59.226562 18.332031 59.351562 L 18.585938 59.585938 L 20.601562 57.402344 Z M 20.363281 57.183594 " fill-opacity="1" fill-rule="nonzero"/><g clip-path="url(#240c21a1a1)"><g clip-path="url(#8e0c47d2ce)"><path fill="url(#d78552c2f6)" d="M 16.269531 24.082031 L 5.425781 24.082031 L 5.425781 56.058594 L 16.269531 56.058594 Z M 16.269531 24.082031 " fill-rule="nonzero"/></g></g><g clip-path="url(#b09231d47b)"><g clip-path="url(#a652014ae5)"><path fill="url(#716c7355e2)" d="M 69.574219 24.082031 L 58.734375 24.082031 L 58.734375 56.058594 L 69.574219 56.058594 Z M 69.574219 24.082031 " fill-rule="nonzero"/></g></g></svg>